<?xml version="1.0" encoding="utf-8"?>
<!-- Generator: Adobe Illustrator 26.3.1, SVG Export Plug-In . SVG Version: 6.00 Build 0)  -->
<svg version="1.1" id="Laag_1" xmlns="http://www.w3.org/2000/svg" xmlns:xlink="http://www.w3.org/1999/xlink" x="0px" y="0px"
	 viewBox="0 0 2630 782" style="enable-background:new 0 0 2630 782;" xml:space="preserve">
<style type="text/css">
	.st0{fill:#F3F3F3;}
</style>
<g>
	
		<image style="overflow:visible;opacity:0.3;" width="2572" height="678" xlink:href="1E93D486B7D38550.png"  transform="matrix(1 0 0 1 29 52)">
	</image>
	<g>
		<g>
			<path class="st0" d="M2133.4,102.2C2134.5,102.1,2134.6,102.1,2133.4,102.2L2133.4,102.2z"/>
			<path class="st0" d="M1706.4,104.8c-0.7-0.6,1.3-2.4,1.9-3c1.2,0.1,2.3,0.2,3.5,0.4c-1.2-0.1-2.3-0.3-3.5-0.4c0,0,0,0,0.1-0.1
				c-5.3,0.5-12.6,0.7-13.6-1.7C1681.9,103.6,1699.6,103,1706.4,104.8z"/>
			<path class="st0" d="M2527.6,606.6C2527.6,606.6,2527.6,606.6,2527.6,606.6C2527.9,606.7,2527.9,606.7,2527.6,606.6z"/>
			<path class="st0" d="M2509.2,636.2c-1.3,0-4.2,0.4-5.1,0.5c0,0,0,0,0,0C2505.7,636.6,2507.7,636.5,2509.2,636.2z"/>
			<polygon class="st0" points="513.8,676 513.7,676 513.8,676 			"/>
			<path class="st0" d="M234.2,211.1c1-0.5,2.4-1.2,3.4-1.7C235.1,210,234.2,210.6,234.2,211.1z"/>
			<path class="st0" d="M2062.4,669C2062.4,669,2062.4,669,2062.4,669C2062.4,669,2062.4,669,2062.4,669
				C2062.4,669,2062.4,669,2062.4,669z"/>
			<path class="st0" d="M2486.6,506.3c1.3,2.1,1.1,2.4-2.7,4.2C2482.2,508.2,2482,508,2486.6,506.3z M2481.3,487.3
				c-0.1,0,4.2,0.8,1,0.9C2480.7,488.1,2480.3,487.8,2481.3,487.3z M2508,379.3c1,0.4,1,0.8-0.1,1.2
				C2506.8,380.1,2506.9,379.7,2508,379.3z M2495,422.5c-1.8-1-9.9-4.6-2.2-5.5C2503.6,415.8,2496.6,421.4,2495,422.5z
				 M2492.1,408.3c11.1,1.4,7,2.9,2.4,5.5C2494.4,413.8,2485.4,407.5,2492.1,408.3z M2503.8,372.7c-0.5,1.9,1.1,7.3-5.1,8.3
				c-7.1,1.2-5.1-1.3-5.2-2.1C2493,377.2,2497.8,373.1,2503.8,372.7z M2487.1,369.4c7.4-1.2,9.9,2.5,11.6,3.9
				C2493.3,373.7,2475.3,371.3,2487.1,369.4z M2481.4,432.7c0,0.4,0.1,0.7,0.1,1.1c-0.5-0.1-0.9-0.2-1.4-0.2
				C2479.5,433.1,2479.9,432.8,2481.4,432.7z M2481,278.7c-0.8,0.2,4.4-0.7,6-1c0.5,2.3,6.9,13.8-3.9,13.1c-4.5-0.3-4.9-5.2-5.4-6.3
				C2476.5,281.7,2474,280.4,2481,278.7z M1770.6,91.1c-1.2-0.1-2.5-0.2-3.7-0.3C1768.8,89.6,1770.8,91.1,1770.6,91.1z M237.9,263
				c-3.1-2.5-6.3-5.3-0.7-7.7c1.5,1.5,3.5,4,2.8,5.6C240.1,260.8,239.6,264.3,237.9,263z M244.5,243.5c-1.9,0.9-3.8,1.8-5.8,2.8
				c-0.3-2.1-0.6-4.2-0.8-6.3c3,0.1,6,0.1,9,0.2C246,241.2,244.8,242.4,244.5,243.5z M251,297c-0.3-0.2-4.1-2.1-0.1-1.9
				C255,295.3,251.6,296.6,251,297z M250.1,287.2c-4.4,1.6,2.8-5.7,1-2.3C250.3,286.5,260.4,283.4,250.1,287.2z M170.5,422.4
				c-0.5-0.2-1-0.4-1.6-0.7c0.4-0.1,0.8-0.2,1.2-0.3C171.3,421.7,171.4,422,170.5,422.4z M187.5,415.1c0.3-0.7,1.6-0.4,2.3-0.2
				C189.5,415.2,186.9,416.5,187.5,415.1z M189.7,423c-0.3-0.4-3.3,0.4-0.7-0.8C190.4,421.6,189.8,423.1,189.7,423z M199.5,419.2
				c-6-2.2-4.1-2.6-0.8-5.2C202.1,416.4,202.7,416.7,199.5,419.2z M203.4,452.1c-0.5-0.3-1-0.6-1.5-1c0.4-0.1,0.7-0.3,1.1-0.4
				C204.8,451.2,205,451.7,203.4,452.1z M210.7,403.5c-0.4-0.3-0.8-0.6-1.1-0.9c0.9-0.1,1.9-0.1,2.8-0.2
				C211.8,402.8,211.3,403.1,210.7,403.5z M208.5,506.3c-1.3-0.8-2.4-1.7-3.3-2.5c6.2,0.7,6.1,1.3,7.3,3.4
				C210.9,507,209.6,506.7,208.5,506.3z M216.6,580.2c-1.4,3-3.1,9.8-14.9,10.4c-1.8-3.7-3.6-7.3-4.5-11.1
				c-0.8-3.2-2.5-5.4,11.4-5.3c6.8,0.1,3.9-0.7,7.2,0.9C217.8,576.1,217.2,579.2,216.6,580.2z M270.6,354.3
				c-0.3-0.3-0.7-0.6-1.1-0.9C270.9,353.9,271.6,354.9,270.6,354.3z M263.6,225c0.2,0.5,1.8,0.7-0.4,0.8
				C263.3,225.5,263.5,225.3,263.6,225z M260.5,313.6c0.9,0,1.8-0.1,2.7-0.1c-0.1,0.4-0.3,0.8-0.4,1.2
				C260.9,314.9,260.1,314.5,260.5,313.6z M265.4,321.3c9.3,0.5,5.9,6.9-2.7,6.5C254.5,327.4,258.3,320.9,265.4,321.3z M258.2,345.2
				c1.5-1.8,3.1-3.6,4.6-5.3c2.1,4.3,4,8.7,5.8,13C257.5,352.7,255.7,348.2,258.2,345.2z M246.5,458.5c-2.1-0.7-2.6-1.3,0.3-1.7
				C248.4,456.5,247.1,457.9,246.5,458.5z M246.5,458.5C246.1,458.8,246,458.9,246.5,458.5L246.5,458.5z M243.6,435.5
				c2.7,0.9,3.3,2.2-1.6,1.3C242.5,436.3,243,435.9,243.6,435.5z M243,390c4.6,2.4,5.8,2.6,2.2,5.2C239.5,393.1,240.9,392.7,243,390
				z M246,378.3c-3.1,0.9-13.8-3.7-17.4-4.5c2.9-0.7,5.8-1.4,8.7-2.1C244.3,371.6,251.6,376.8,246,378.3z M235.7,460.4
				c1.2,0.4-0.2,0.2-0.6,0.5C235.3,460.6,234.4,460,235.7,460.4z M223.6,391.8c2.1,0.2,4.4,0.7,6.3,1c-0.7,0.4-1.3,0.8-2,1.2
				C226.5,393.4,224.5,392.6,223.6,391.8z M225.7,439.8c-0.6,0.1-1.3,0.3-1.9,0.4C223.9,439.3,224.5,439.8,225.7,439.8z M245.1,360
				c0.9,0.5,1.6,1.1,2.4,1.6C243,361.2,245.2,360.9,245.1,360z M246,366.4c0.2-1.7-1.4-4.3,4.8-4.4C251,364,248.8,364.8,246,366.4z
				 M232,367.1c-1.6-1.1-2.2-2.3-1.8-3.5C232.7,364.8,234.3,366.1,232,367.1z M212,360.3c7.5-0.6,21.9-3.1,19.7,1.2
				C229.3,366.1,215.5,362.9,212,360.3z M203.4,385.3c-1.7-0.3-3.2-0.6-4.7-1c1.6-1.2,3.2-2.5,4.8-3.7
				C208.4,382.2,206.2,383.2,203.4,385.3z M220,378c-2.9-1.3-5.2-2.8-7.8-4.2c8.5-0.8,10.1,1.6,15,3.9
				C227.4,377.7,220.6,378.3,220,378z M216.2,454.6c-0.8-2,0.8-4.1,1.7-6.1c4.5,2.4,5.2,3.6,5.6,6.4
				C221.3,454.8,218.2,454.9,216.2,454.6z M219.3,484.3c4.7-1.9,7-2.8,13.9-3.3C231.3,485,230,488.3,219.3,484.3z M232.2,471.4
				c-0.8-0.4-0.7-0.7,0.5-1C234.3,471.3,232.5,471.2,232.2,471.4z M243.1,474.7c3.8,2.5-2.4,5.1-9.2,6.1
				C237,478.7,240.1,476.7,243.1,474.7z M239,496.8C238.6,496.4,238.7,496.5,239,496.8L239,496.8z M239.6,498.6
				c-0.7-0.2-1.4-0.4-2.1-0.6c0.6-0.3,1.1-0.7,1.7-1C239.9,497.6,241.1,498.9,239.6,498.6z M241,514.2c1.3,0.1,2.6,0.3,4,0.4
				c-0.4,0.3-0.8,0.7-1.3,1C242.8,515.1,242,514.6,241,514.2z M238.3,607.7c-2.1-0.9-5.2-2.9-5.7-3.9c0.1,0.1-2.5-3.6,0.2-2.9
				C238.6,602.6,239.8,605.2,238.3,607.7z M235.2,571.5c0.6-0.6,1.2-1.2,1.8-1.8c0.2,0.7,0.3,1.3,0.4,2
				C236.7,571.6,236,571.6,235.2,571.5z M247.8,600.2c-1.8-0.2-0.4-1.2,0.2-1.5C248.2,598.8,250.6,600.5,247.8,600.2z M245.8,566.1
				c-1.5,0.2-3.1,0.3-4.7,0.3c2.5-3.2,1.3-4.2,10.3-2.3C249.7,564.8,247.8,565.5,245.8,566.1z M244.5,554.3c1.6-0.9,2.6-0.9,3-0.1
				C246.5,554.3,245.5,554.3,244.5,554.3z M258.5,547.4c-0.9,3.2-9.3-0.4-13.5-0.4c-6.1,0-11.7,2.8-18,1.2c4.7,5.4,12.2,8-3.9,12.3
				c-1.1-4.7-9.6-16.6,4.3-20.1C237.9,537.7,259.7,543.2,258.5,547.4z M251.3,510.5c-1-1.1-1.9-2.3-2.9-3.4c7.5,1,9.1,2.7,12.7,5.1
				C257.8,511.6,254.6,511.1,251.3,510.5z M255.5,374.5c1.5-0.2,2.2,0,2,0.6C257,375,255.8,375.9,255.5,374.5z M261.7,360.1
				c-1.9,0-4-0.1-5.9-0.2c1.5-0.5,4.2-1,6.1-1.3C261.7,359.1,261.7,359.6,261.7,360.1z M264.6,364.1c-0.8-1.2-1.7-2.5-2.5-3.7
				c3,0.5,6,1,9,1.4C268.9,362.5,266.8,363.3,264.6,364.1z M270,374.1c1.3-0.6,2.7-1.1,4-1.6c0.3,0.2,0.6,0.4,0.9,0.7
				C273.3,373.5,271.6,373.8,270,374.1z M278.7,202.2c-1.3,0.2-2,0.1-2.1-0.4C277.3,202,278,202.1,278.7,202.2z M277.1,377.3
				c-0.2,0-1.4-0.9,2.3-0.7c0.1,0.2,0.2,0.4,0.2,0.7C278.8,377.3,277.9,377.3,277.1,377.3z M279.2,334.4c0-0.2,1-2,1.9-0.6
				C281.6,334.5,280.5,334.6,279.2,334.4z M280.4,361.4c0.6-0.2,0-0.7,1.1-0.4C282.8,361.2,281,361.2,280.4,361.4z M282.4,342
				c-1.2-0.1-1.5-0.3-0.9-0.7C283.2,341.4,282.1,341.6,282.4,342z M283.3,354.1c-1.3,0.3-0.3-0.2-0.6-0.5
				C283,354,284.6,353.8,283.3,354.1z M297.2,638.1c-0.4-0.3-0.9-0.6-1.3-0.9C299.3,637.4,298.8,638.7,297.2,638.1z M309.4,173.1
				c-2-1.3-3.7-2.7-5.3-4.1c1.5-0.6,3.3-1.1,5.2-1.5c1.9,1.4,3.7,2.7,5.4,4.1C313,172.2,311.3,172.7,309.4,173.1z M325.7,638.2
				c0.5,0.9,0.7,1.8,1,2.7c-1.6-1-3.2-2-4.9-3C323.2,638,324.4,638.1,325.7,638.2z M322.3,643.3c-2.8-1.2,0.3-2,4.5-2.1
				C326.8,642.2,325.3,642.9,322.3,643.3z M327.1,634.1c-0.3-0.4-0.7-0.7-1-1C327.3,633.4,327.6,633.7,327.1,634.1z M331.2,649.3
				c-0.3-0.2-0.7-0.5-1-0.7c4.2,0.3,3.4,0.1,4.6,1C333.6,649.5,332.4,649.4,331.2,649.3z M349.2,349.5c-0.4-0.7-2.5-0.7-0.5-1.3
				C350,348.8,348.8,349,349.2,349.5z M417.5,656.9c-1.8,0.2-3.6,0.4-5.4,0.6c-0.9-0.3-1.7-0.6-2.4-1
				C412.9,656.4,420.4,656.1,417.5,656.9z M419.3,125.8c1.5-0.4,3-0.8,4.5-1.2c2.4,0.1,4.7,0.3,7,0.5
				C426.2,126.1,424.9,126,419.3,125.8z M459.5,661.4c1.1,0,2.3,0,3.4,0c0.1,0.2,0.1,0.3,0.2,0.5
				C461.9,661.8,460.7,661.6,459.5,661.4z M526.2,669.1c-1.3-0.2-2.6-0.5-3.9-0.7c1.3-0.4,7.2-1.3,7.7-0.1
				C529,668.7,527.7,669,526.2,669.1z M555.5,675.4c-3.1-1.2-6-2.5-9-3.8c7,0.2,14,0.3,21.1,0.3
				C563.6,673.1,559.5,674.2,555.5,675.4z M578.6,126.5c1.3-0.5,3-0.9,4.9-1.2c3.9,0.5,7.7,1.1,11.6,1.6
				C588.3,127.9,585.1,128.2,578.6,126.5z M612.3,163.6c0.4-0.2,0.8-0.5,1.2-0.7C613.7,163.3,616.9,163.9,612.3,163.6z M616.3,672.7
				c-3.8-1,1.2-0.6,2.9-0.1C618.2,672.6,617.3,672.7,616.3,672.7z M647.1,661.3C644.7,661.5,645.4,661.5,647.1,661.3L647.1,661.3z
				 M654.4,661.2c-1,0.2-2,0.5-3,0.7c-1-0.2-2.1-0.5-3.1-0.7C651.5,661,655.8,660.7,654.4,661.2z M671.4,667.6
				c-0.7-0.3-3.3,0-0.3-0.6C672.8,667.1,672.9,667.3,671.4,667.6z M714,133.6c-0.5,1.5-2.1,1.1-4,1.4
				C711.2,134.5,712.6,134.1,714,133.6z M708.1,128.4c-5.3,1.4-11.8,1.8-23.6,1.4C695.6,126.9,695,127.3,708.1,128.4z M698.1,668.1
				c-4.6-0.9-8.4-2.2-12.5-3.3c10.5-1.8,16.2,0.4,21.6,3.2C704.2,668.3,701.2,668.3,698.1,668.1z M707.6,669.2c0-0.3,0.1-0.7,0.2-1
				c3.4,0.3,6.7,0.7,10.1,1C714.5,669.2,711.1,669.2,707.6,669.2z M715.9,132.8c1.5-1.5,3.3-1.3,5.8-1.5
				C719.9,131.8,717.8,132.3,715.9,132.8z M750.1,128.6c1.3,0.4,2.2,1.1,3.2,1.6c-1.3,0.1-2.5,0.1-3.7,0.2
				C749.7,129.8,749.5,129.1,750.1,128.6z M752.3,137.4c6.3-0.4,8.3-0.6,13.4,0.7C760.4,138.3,757.1,138.1,752.3,137.4z
				 M790.2,141.6c-0.3,0-4-0.2-1.3-0.5C791.6,140.6,790.8,141.3,790.2,141.6z M811.8,130.4c0.1,0.3,0.2,0.6,0.3,0.9
				c-0.7,0-1.3,0.1-2,0.1C808.7,130.2,811.2,130.8,811.8,130.4z M811.9,676.5c-1.1-0.2-2.1-0.3-3.2-0.5
				C812.9,675.5,813.8,676.6,811.9,676.5z M819.9,135.4c-1.6,0-1.9-0.2-0.9-0.5C819.8,135.1,821.5,134.8,819.9,135.4z M833.3,678.9
				c-2.1-0.2-4-0.5-5.7-1c5.7-1,6-1.3,11,0.1C837,678.4,835.2,678.7,833.3,678.9z M880.7,127.3c1.3-0.3,2.4,0.1,2.7,0.4
				C883.2,127.8,878,128,880.7,127.3z M866.5,131.5c1.3,0,2.6,0,3.9,0C871.3,131.5,867.9,132.6,866.5,131.5z M878.3,123.7
				c-1,0.1-0.7,0.7-1.6,0.2C875.9,123.4,877.4,123.8,878.3,123.7z M891.7,677.5c-4.8,0.1-11.2-0.1-13.8-1.7c-2-1.2-1.9-3.3,2.7-3.6
				c3-0.2,14.5,3.3,17.4,3.9C896.2,676.8,894.1,677.2,891.7,677.5z M979.2,127.4c3.2-0.8,6.4-1.5,9.7-2.3c2.3,0.6,4.5,1.3,6.7,1.9
				C987.6,128.5,986.7,129,979.2,127.4z M1023.5,678.4c1-0.2,2-0.5,3-0.7c0,0.3,0,0.7,0,1C1025.6,678.6,1024.6,678.5,1023.5,678.4z
				 M1062.7,118.2c-2,0,0-0.1,0.1-0.4C1062.7,118.1,1064.7,118.2,1062.7,118.2z M1071.8,111.3c2.9-1,7.8-2.8,10.4-0.9
				c1.1,0.8-6.3,2.4-7.9,2.8C1072.9,112.7,1072.1,112.1,1071.8,111.3z M1080.4,131.2c-1.2-0.7,2.4-0.2,2.5-0.2
				C1082.5,131.3,1081.4,131.7,1080.4,131.2z M1081.1,114.6c1.4-0.3,2.1-0.3,2.2,0.2C1081.9,115.1,1081.2,115.1,1081.1,114.6z
				 M1109.2,682.4c-5-0.4-10.7-1.3-9.8-3.4c3.8,0.2,16.3,0.2,18.8,1.1C1123.5,682,1115.4,682.9,1109.2,682.4z M1120.4,679.9
				c0.3-0.5,0.6-0.9,0.9-1.4c1.1,0.1,2.1,0.2,3.2,0.4C1123.1,679.2,1121.6,679.6,1120.4,679.9z M1155.9,162.7c0.6,0.5,1,1.1,1.5,1.6
				C1154.9,163.7,1153.2,163.1,1155.9,162.7z M1155.4,684.6c-5.9-2.4-10.9-3-5.6-5.6C1155,681.2,1163.2,682.7,1155.4,684.6z
				 M1213.5,672.2c1,0.1,2,0.2,2.9,0.3C1215.4,672.5,1213,673.4,1213.5,672.2z M1209,679.9c-2.2,0.1-4.6,0-6.8,0
				c4.8-0.9,13.5-2.1,16.9-0.3C1215.7,679.8,1212.3,679.8,1209,679.9z M1230.5,670c-0.2-0.5-2.3-0.3-0.7-1
				C1233.7,669.5,1230.4,669.6,1230.5,670z M1271.5,672.9c1.1,0.2,2.1,0.3,3.2,0.5C1270.3,674.1,1272.2,673.2,1271.5,672.9z
				 M1272.2,677.1c-0.1-0.3-0.2-0.7-0.3-1.1c6.2,0.1,12.4,0.1,18.6,0.2C1284.5,676.7,1278.2,676.8,1272.2,677.1z M1309.2,111.7
				c1.7,0.1,3.3,0.3,4.8,0.5C1312.9,114.4,1307.8,113.8,1309.2,111.7z M1308.5,105.9c2.7-1.1,6.1-0.6,8.2,0.1
				C1319.4,107,1303.8,107.8,1308.5,105.9z M1375.5,105.5c-0.3-0.5-0.4-1.1-0.6-1.6C1378.9,105.1,1376.3,104.9,1375.5,105.5z
				 M1372.1,101.4c0.7,0.5,1.2,1.1,1.8,1.7c-1.4-0.4-3-1.1-4-1.5C1370.6,101.5,1371.3,101.4,1372.1,101.4z M1371.8,682.5
				c-1.5-0.1-2.9-0.1-4.3-0.2c3.3-0.7,6.9-0.8,10.7-0.2C1376,682.2,1373.9,682.4,1371.8,682.5z M1399.5,99.7
				c-0.4-0.1-0.8-0.3-1.2-0.4c2-0.2,4-0.4,6-0.6C1402.8,99.1,1401.1,99.4,1399.5,99.7z M1415.8,678c2.1-0.5,4.4-0.8,6.7-1.3
				C1420.8,677.7,1418.5,678.3,1415.8,678z M1432,681.4c3.8-0.3,7.6-0.4,7.5,1C1437.1,682.1,1434.1,681.9,1432,681.4z M1440.8,681.1
				c1.4-0.5,2.8-0.9,4.3-1.4c0.6,0.1,1.2,0.3,1.8,0.4C1445,680.4,1442.8,680.9,1440.8,681.1z M1501.4,674.7c6.3,0.7,7.9,0.8,9.4,3
				C1504.9,676.8,1501.6,676.8,1501.4,674.7z M1561.1,113.8c1.2,0.1,2.4,0.3,3.7,0.4C1560.3,115.3,1560.7,113.8,1561.1,113.8z
				 M1623.4,119.9c1.1-0.6,2.1-1.4,3.4-1.9c0.8,0.6,0.8,1.5,1.2,2.1C1626.5,120,1625,120,1623.4,119.9z M1636.2,685.6
				c-0.9-0.5-0.4-0.8,1.5-0.8c0.5,0.1,1,0.2,1.5,0.4C1638.2,685.3,1637.2,685.5,1636.2,685.6z M1653.7,687.4c-1.3-0.2-2.5-0.6-3.4-1
				c7-0.6,5.3-0.8,9,0.3C1657.4,686.9,1655.5,687.2,1653.7,687.4z M1644.8,130.9c-7.4-1.1-2.3-2.9,4-3.5c2.6-0.3,9.6,1.3,11.4,1.5
				C1655.4,129.9,1650.6,131.7,1644.8,130.9z M1673.7,139.7c-0.1-2.1-4.6-4.4,4.9-6.1L1673.7,139.7z M1679.3,133.3
				c2.8-2,6-3.9,8.2-6c3.3-3.1,13.2-1.8,17.4,0C1693.4,128.5,1693.4,133.3,1679.3,133.3z M1695.2,136.2c0.4-0.9,2.4-0.2,2.8,0.1
				C1697.7,136.4,1694.9,137.1,1695.2,136.2z M1705.1,684.7c-0.2-0.4-2.7-0.4,0-0.8C1707,684.2,1707,684.4,1705.1,684.7z
				 M1706.9,116.8c-7.5,0.8-5.3-1.8-3.8-3.3C1705.8,114.2,1715.2,115.9,1706.9,116.8z M1760.4,680.5c1.2,0.2,2.3,0.4,3.5,0.5
				C1757.6,682.3,1759.4,680.4,1760.4,680.5z M1770.9,688.9c-3.8-0.1-8.4-1.3-11.6-1.8c10.4-1,13.9-2.3,21.6,0.7
				C1777.7,688.3,1774.4,688.7,1770.9,688.9z M1798.6,94.2c-1.4-0.7-1-1.1,1.1-1.3c0.9,0.2,1.7,0.5,2.6,0.7
				C1801.1,93.8,1799.9,94,1798.6,94.2z M1813.8,87.2c0.8-0.3,1.7-0.6,2.7-0.8c2.6,0.4,5.1,0.8,7.6,1.2
				C1819.6,89.2,1818.7,88.7,1813.8,87.2z M1826.1,91.3c1.6-0.4,3.2-0.7,4.8-1.1c1.3,0.4,2.6,0.8,3.9,1.3
				C1831.2,91.7,1823.5,92.2,1826.1,91.3z M1827.1,85.1c2.1-0.7,4.2-1.5,6.4-2.2c1.6,0.7,2.9,1.6,4.2,2.4
				C1834.2,85.2,1830.6,85.2,1827.1,85.1z M1848.4,80.2c0.8-0.2,1.5-0.4,2.3-0.6C1854,80.4,1850.1,80.3,1848.4,80.2z M1854.3,681.1
				c-5.3,0.7-0.6-2.4-0.4-2.5C1858.1,679.8,1860.8,680.2,1854.3,681.1z M1882.3,87.9c-0.7,1.9-18,2.7-23,3.2c2.5-1.5,4-3.3,7.8-4.5
				C1871.6,85.1,1883.4,84.9,1882.3,87.9z M1880.1,85.3c0.2-1,1.9-1.7,5.1-2.1c1.4,0.1,2.7,0.2,4,0.5
				C1886.4,84.4,1883.4,85,1880.1,85.3z M1906.3,85.5c1-0.2,2-0.3,3-0.5c0.4,0.4,0.7,0.9,1.1,1.3C1909,86.1,1907.6,85.8,1906.3,85.5
				z M1921,682.6c-1.7-0.3-1.7-0.5,0.1-0.8C1922.6,682.1,1922.6,682.4,1921,682.6z M1911,86.5c5.4-1.3,11-2.4,16.6-3.6
				C1927.4,86,1920.8,89.5,1911,86.5z M1930.6,88c0.2-0.4,0.7-0.7,1.5-0.9c1.2,0.1,2.3,0.3,3.5,0.4
				C1934.9,87.8,1931.9,89.4,1930.6,88z M1936.3,687.6c-1-0.2-1.9-0.4-2.9-0.6C1935.2,686.6,1939,686.7,1936.3,687.6z M1935.4,675.9
				c-1.2-0.3-2.2-0.6-3-1C1936.9,673.4,1941.6,674.1,1935.4,675.9z M1996.8,671.7c-1.1-0.4-0.9-0.6,0.7-0.7
				C1999.8,671.8,1997.6,671.4,1996.8,671.7z M2003,683.2c5.4-1,6,1.1,7.9,2.5C2008.2,684.9,2005.6,684.1,2003,683.2z M2130.5,107
				c-3.4,1.2-14.8,6.9-19.3,7.1c-1.7,0.1-4.3-0.9-6.1-1c-4.3-0.3-12.5-2.1-14.9-2.5C2092,105.7,2121.2,107.5,2130.5,107z
				 M2112.3,114.2c2.8-0.2,5.7-0.1,8.5-0.2C2118.6,115,2115.7,115,2112.3,114.2z M2116.4,662.2c-3.3,0.5-7.9,1.7-10.7,1
				c-3.3-0.8-3.3-2.5,2-2.3C2110.7,661.2,2113.6,661.6,2116.4,662.2z M2093.1,644c-0.6-0.2-1.3-0.4-1.9-0.6
				C2090.7,643.2,2092.5,643.1,2093.1,644z M2080.8,99c-1.1,0.1-2.3,0.2-3.4,0.3c-2.2-0.6-4.4-1.2-6.6-1.8
				C2074.2,98.1,2077.5,98.6,2080.8,99z M2026.6,98.7c1.1,0.4,0.8,0.6-1,0.7C2023.4,98.5,2025.6,99,2026.6,98.7z M2016.6,90.6
				c3,0.8,6,1.5,9,2.3C2018.1,94.5,2009.2,93.5,2016.6,90.6z M2027.3,667.3c-1.3,0-2.5-0.1-3.7-0.3c2.8-1.1,2.7-0.8,6.2-0.5
				C2028.9,666.7,2028.1,667,2027.3,667.3z M2037.7,164c-0.9-0.2-1.9-0.4-2.8-0.6c-0.9-0.3,2.9-0.2,3.9,0.1
				C2038.4,163.7,2038,163.9,2037.7,164z M2033.9,104.8c2-1.3,13.8-1.3,16.9-1.4c2.1-0.1,6,0.7,7.9,1.1c-2.9,0.8-12.5,4.7-16,4.6
				C2039.5,109.1,2032,106.1,2033.9,104.8z M2043.2,657.4c0.8-0.1,1.1-0.5,1.5-0.1S2044,657.3,2043.2,657.4z M2042.8,651.2
				c0-0.4,0-0.7,0-1.1c0.7,0.3,1.4,0.5,2.1,0.8C2044.2,651,2043.5,651.1,2042.8,651.2z M2043.1,109.4c2.6,0.1,5.3,0.4,7.8,0.6
				C2047.8,110.8,2045.2,110.6,2043.1,109.4z M2050.9,638.1c1.6-0.4,3.3-0.3,5,0.2C2054.2,638.2,2052.6,638.2,2050.9,638.1z
				 M2070.8,656.1c0.1-0.4-2.1-0.5,0.5-0.8C2072.7,655.7,2072.6,655.9,2070.8,656.1z M2083.4,662.9c-1.3-0.1-2.6-0.2-3.9-0.3
				C2079.1,662.6,2085.1,661.5,2083.4,662.9z M2079.9,640.6c-9.9-1.5-19-2.8-29.3-3.9c11.5,0.2,23,0.3,34.5,0.3
				C2082.2,637.8,2080.9,639.5,2079.9,640.6z M2067.5,105.7c8.3-0.5,13.3-0.4,21.4,0.3C2079.7,106.8,2076.2,106.9,2067.5,105.7z
				 M2093.6,647.7c-1.4,0-2.9-0.1-4.3-0.1c4.4-3.1,5.8-3.4,15.4-4.7C2103.4,645.7,2100.8,646.1,2093.6,647.7z M2102,670.2
				c6-0.1,7.6,0.1,12.4,1.4C2109.4,671.3,2106,671.3,2102,670.2z M2117.9,672.9c-0.9-0.4-1.8-0.8-2.7-1.2c1.6,0.1,3.9,0.3,5.4,0.5
				C2119.7,672.5,2118.8,672.7,2117.9,672.9z M2122.2,638.3c-0.8-0.2-1.6-0.5-2.4-0.7c2.4-0.7,4.4-0.6,6,0.3
				C2124.6,638,2123.4,638.1,2122.2,638.3z M2127.2,670.2c-0.4-0.2-0.8-0.4-1.2-0.6C2128.7,669.6,2127,669.8,2127.2,670.2z
				 M2126.8,662.2c0.8,0.3,1.7,0.6,2.5,0.9C2124.7,662.8,2127.1,662.4,2126.8,662.2z M2129.9,665.7c-0.2-0.7,0.4-1.6,0.6-2.3
				c1.8,0.4,4.2,1.2,5.5,1.8C2134.1,665.4,2131.8,665.7,2129.9,665.7z M2184.1,124.8c1.3,0.1-0.2,1-3.2,0
				C2182,124.8,2183.1,124.8,2184.1,124.8z M2173.5,114.4c3.9,0.6,5,0.8,6,2.3C2175.2,116.8,2171,116,2173.5,114.4z M2144.4,645.8
				c4.2-0.4,10.8-0.9,8-0.2C2147.5,647,2147.6,646.7,2144.4,645.8z M2154.3,659.5c-0.6-0.2-1.2-0.5-1.8-0.7c-0.8-0.5,2.9-0.1,5,0.2
				C2156.5,659.2,2155.4,659.4,2154.3,659.5z M2158.5,659.1C2159.1,659.2,2159.2,659.2,2158.5,659.1L2158.5,659.1z M2165.3,668.3
				c-0.5,0.2-2.5-0.8,1.7-0.8C2166.4,667.8,2165.9,668.1,2165.3,668.3z M2152.3,651.4c7.1-1.6,7.8-1.9,15.4-0.7
				C2160.8,652.6,2160.6,652.7,2152.3,651.4z M2155.7,641c2.5-0.6,5-1.3,7.5-1.9C2167.7,641.8,2162.7,642.5,2155.7,641z
				 M2180.3,663.6c-1.4-0.9-3.8-0.7-10.5-1.3c5.9-0.7,8.9-0.8,10.9-1.9C2180.5,661.5,2180.4,662.6,2180.3,663.6z M2182.1,640
				c-0.1-0.1-0.2-0.2-0.3-0.3c-1.9-1.9,2.2-0.7-3-1.8c-9.4-2.1-21.6,1.2-29.7-0.8c13.8,0,27.5-0.4,41.3-0.6
				C2185.9,636.9,2183.4,638.3,2182.1,640z M2210.3,665.8c-0.9,0-1.9,0-2.8,0C2209.1,665.3,2212.7,665.6,2210.3,665.8z
				 M2195.6,114.2c9.1,0.2,18.3,0.3,27.3,0.7C2217.9,116.6,2202.2,114.6,2195.6,114.2z M2238.2,112.4c1.8,0,3.6,0.1,5.4,0.1
				C2240.9,112.8,2240.4,113.5,2238.2,112.4z M2240.2,121.6c1-0.1,0.8-0.6,2.7-0.1C2242,121.5,2241.1,121.5,2240.2,121.6z
				 M2243.3,116.7c7.2,0.1,11.6-0.2,15.5,1.9C2253.3,118.2,2247.1,118.1,2243.3,116.7z M2286.1,669.3c-3.2-1.9-2.6-1.9-1.7-3.7
				C2291.7,666.7,2291.3,666.9,2286.1,669.3z M2345.2,357c-1.6,0.5-2.4,0.4-2.4-0.4C2343.7,356.7,2344.5,356.8,2345.2,357z
				 M2358.3,662.3c-4.3,0.9-23.3,5.1-28.3,2.4C2338.8,662.6,2360.7,654.8,2358.3,662.3z M2416.6,165c-1.3-1-2.7-2.1-4-3.1
				C2414.9,163.1,2417.9,164.1,2416.6,165z M2411.7,161.1c-2.1-1.9,1.2-3.7-2-5.5c-3.5-2-11-2.1-3-4.4
				C2416.3,155,2425.6,157.5,2411.7,161.1z M2424.8,646.3c-5.5-3,0.6-3.5,7.4-5.2C2429.7,642.9,2427.3,644.6,2424.8,646.3z
				 M2502.7,588.4c2.4-0.4,1.1,8.5-4.6,8.6C2494,597.2,2497.3,589.4,2502.7,588.4z M2499.7,597.3c0,0.1-0.7,5.1-3.1,4.5
				c-0.7-0.4-1.3-0.7-2-1.1C2496.2,599.6,2498,598.5,2499.7,597.3z M2475,573.5c1.4,0.2,1.6,0.5,0.6,1
				C2473.7,574.1,2475.1,574,2475,573.5z M2469.1,603c0,0.4-0.1,0.8-0.4,1.2c-0.9,0-1.9,0-2.8-0.1
				C2466.2,604.2,2464.7,602.4,2469.1,603z M2467.8,578.8c0.1,0.3,0.1,0.6,0.2,0.8c-1.7,0.1-4.6,0.2-6.3,0.1
				C2463.7,579.4,2465.7,579.1,2467.8,578.8z M2463.7,480.9c-1.5,1.7-2.3-0.9-2.7-1.8C2463.5,479.4,2465,479.4,2463.7,480.9z
				 M2469,559.2c-3-0.7-2.7-1.5,0-2.4C2471.5,558.2,2471,558,2469,559.2z M2467.9,534.3c0.2-0.2,0.4-0.5,0.5-0.7
				C2470,533.8,2470.1,534.7,2467.9,534.3z M2470.5,509.5c-3.7,0-1.8-1.5-0.3-2C2470,507.5,2474.9,509.6,2470.5,509.5z
				 M2473.3,501.2c-4.1-0.6-2.5-3.5-1.8-5.1C2473.3,498.2,2474.1,499,2473.3,501.2z M2495.8,460
				C2495.5,460.3,2495.4,460.4,2495.8,460L2495.8,460z M2496.2,458c1.4-0.4,0.6,0.8,0,1.6C2493.8,459.1,2494,458.7,2496.2,458z
				 M2487.6,455.1c0,2.2-3.4,1.7-9.6,1.9C2479.6,456,2484.8,455.5,2487.6,455.1z M2476.7,466.6c0,0,0.9,0.9-0.6,1.4
				C2474.6,467.5,2474.8,467.1,2476.7,466.6z M2465.4,332.6c-1.6-0.1-3-0.4-4.1-0.8c7.1-2.2,6.9-2.8,15.5-1.4
				C2473.2,331.1,2469.4,332.1,2465.4,332.6z M2465.5,371.4c-0.7,0.2-1.3,0.3-1.9,0.5C2463.6,371.1,2464.2,371,2465.5,371.4z
				 M2486.7,342.1c-4.7-2.6-4.8-2.7-0.3-5.3C2490.8,339.1,2489.8,339.5,2486.7,342.1z M2490.9,319.2c-1.3,0.6-3.6,1-5.2,1.5
				c-0.1-1.1-0.2-2.2-0.4-3.3C2487.1,318,2489.4,318.5,2490.9,319.2z M2480.6,312.8c1.4,1.4,2.8,2.9,4.3,4.3c-3,0-7.3-1.8-9.4-2.4
				C2477,314.1,2478.7,313.2,2480.6,312.8z M2471.7,323.4c-0.6,0.8-1.6,1.5-3.1,2.1c-3.5-2.4-6.4-3-1-5.1
				C2469.3,321.3,2470.7,322.3,2471.7,323.4z M2469.7,292.5c-1.4-0.3-3.1-0.5-4.6-0.7c0.2-0.2,0.3-0.4,0.5-0.7
				C2467,291.6,2468.4,292,2469.7,292.5z M2465.2,223.1c1.8-0.1,0.4,2,0.6,1.7C2465.1,224.5,2462.3,223.2,2465.2,223.1z
				 M2460.7,182.6c-0.6,0.3,0.6,1-0.8,0.4C2458.3,182.3,2460.1,183,2460.7,182.6z M2461.8,274.1c1.5-0.6,1.7,1.9,0.3,2.5
				C2457.8,276,2457.8,275.2,2461.8,274.1z M2457.4,301.9c1.2,0.5,1,0.7-0.7,0.7C2455.6,302.2,2455.8,301.9,2457.4,301.9z
				 M2450.1,291.7c0,0.3,2.6,1.2-0.9,0.9C2449.5,292.4,2449.8,292,2450.1,291.7z M2444.3,573.7c1.3,0.9,0.9,1.4-1.2,1.5
				C2441.9,574.3,2442.3,573.8,2444.3,573.7z M2439.4,175.1c-1.1-0.3-2.2-0.6-3.2-0.9c-0.1-0.6-0.2-1.1-0.4-1.7
				C2439.5,173,2441.1,173.9,2439.4,175.1z M2442.2,613.9c-0.9-0.1-1.6-0.4-2-0.7c1.5-0.8,2.9-1.7,4.2-2.5c2.5-2.1,6-4.3,9.3-6.3
				C2452.6,607.8,2447.8,610.9,2442.2,613.9z M2454.7,580.5c1.5-0.2,3.2-0.3,4.8-0.5C2456.4,581.3,2456.3,580.9,2454.7,580.5z
				 M2466,461.6c2.8,3.4,6.8,8-4.3,9.7C2459.2,467.2,2461,465.6,2466,461.6z M2461.1,631.7c3.1-5,4.5-6.4,14.4-10.4
				C2475.1,626.1,2470,627.9,2461.1,631.7z M2475.8,649.4c-5.8,2.1-13,3.5-19.8,5.2c7.1-4.8,12.6-6.9,24.8-10.4
				C2479.5,645.7,2479,648.3,2475.8,649.4z M2481.2,608.3c-2.3,1.5-5.5,2.8-9.1,3.9c-0.1,0,0-3.5,0.2-3.8c1.7-2.2,6.2-4.3,8.6-6.4
				C2481.3,603.7,2483.2,606.7,2481.2,608.3z"/>
			<path class="st0" d="M2180.8,706.9c0.4,0.3,0.7,0.5,1,0.8C2182.2,706.9,2180.5,706.3,2180.8,706.9z"/>
			<path class="st0" d="M201.9,321.5c0,0-0.1,0.1-0.1,0.1C201.8,321.6,201.9,321.6,201.9,321.5z"/>
			<path class="st0" d="M150.7,300.3c3.4,0,6.6,0.3,9.7,0.8c-6.1,4.3-2.1,9.1-7.2,13.1c-3.4,2.7-6.1,2.5-15.1,2.2
				c1.1,1.4,3.1,4.1,8,4.6c6.7,0.7,7.4-1.4,10.9-2.3c5.4-1.3-0.3-2.1,6.4-1.3c4.4,0.5,6.7,5.2,8.3,6.5c1.1,0.9,4.5,4.7,8.6,4.9
				c1.9-0.9,4.4-1.4,7.5-1.5c2.5,0.1,4.6,0.5,6.3,1.2c3,0.5,4.4,2.7,8.6,2.5c6.8-0.3,1.4-3.4,0.7-4.4c-1.8-0.7-3.4-1.5-4.6-2.4
				c0.5-1,1.5-1.9,3-2.7c-0.1-0.2,0-1-0.1-0.7c0.9-2.5-0.7-5.1-0.4-7.6c0.3-2.5,3.6-5.1-3.4-6.7c-11.9-2.7-21.7,2.2-31.1,3.6
				c0.3-4,1.6-5.7,12.5-7.9c6.2-1.2,12.5-1.3,19.2-1.8c-7.7-1.2-1-5.9-3.3-8.5c-2.6-0.4-4.1-1-4.6-1.9c-0.2-1-0.5-2-1-2.9
				c-1.5-2.4-3.7-4.8-5.6-7.1c-0.3,2.1,4.4,13.8-7.8,13.2c-5.1-0.2-6.5-2.9-7.6-4.2c0.1,0.1-4.5-5.7-6-4.5
				c-8.1,6.6-23.9,10.4-20.9,18.1C143.5,301.7,147.5,300.5,150.7,300.3z M179.2,323.9c0,0.1,2.9,0.8,0,0.8
				C176.3,324.7,179.2,324,179.2,323.9z"/>
			<path class="st0" d="M77.8,453.3c0.5-0.8,0.8-1.6,0.8-2.4c-17.2,1.5-7.4,6.8-10.8,11.3c-6.1,8.1-7.9-0.9-14.8-1.6
				c-8-0.8-5.3,6-3.3,7.7c3.6,3.2,4.4,0.7,10.6,1.9c2.6,0.5,2.6,1.8,4.5,2.5c3.8,1.4,7.6,1.7,13,2.3C80.9,467.3,69.4,461,77.8,453.3
				z"/>
			<path class="st0" d="M2513.3,434.8C2513.3,434.8,2513.3,434.8,2513.3,434.8c0.3-0.7,1.1-1.6,1.9-2.5
				C2514.2,433.2,2513.1,434.1,2513.3,434.8z"/>
			<path class="st0" d="M2539.7,451.8c-0.2-3.6-4.5-5.8-10.5-8.6c-3.9-1.9-15.3-6-15.9-8.3c0,0,0,0,0,0c-3.5-0.1-7-0.2-10.5-0.3
				c2.8,4.5,8.3,6.6,18.1,9.9c13.6,4.5,11.2,10.8,7.8,16.5c-2.7-1.2-5.5-2.4-8.2-3.6c-0.9,2.1-5.8,6.7-3.7,8.7
				c7.2,6.6,19-2.7,21-4.6C2540.1,459.1,2539.8,454.3,2539.7,451.8z"/>
			<path class="st0" d="M2516.5,431c-0.4,0.4-0.8,0.9-1.3,1.4C2515.7,431.9,2516.3,431.4,2516.5,431z"/>
			<path class="st0" d="M2492.9,561.5c4.6,3.4,13.9,4.7,21.3,2.2c8.4-2.8,6.5-4.2,20.2-3.5c-7.3-1.6-22.1-3.9-24.2-7.1
				c-3.1-4.7-4.3-3.7-9.7-0.5C2495.4,555.5,2487.9,557.8,2492.9,561.5z M2495.4,557.9c2.7,0.3,0.9,0.5,1.1,0.9
				C2495.2,558.7,2494.8,558.4,2495.4,557.9z"/>
			<path class="st0" d="M2560.4,545.8c10.6-5.3-6.3-3.6-15.2-5c1.1,5.7-10.6,14.3,3,18.7c2.7-3.1-1.4-5.1,5.1-7.1
				c-1.5,0.4,10.1-1.4,9.5-1.2c2.5-0.6,5-1.7,7.5-2.3C2564.9,548.8,2554.8,548.6,2560.4,545.8z"/>
			<path class="st0" d="M2505.7,513c8.2,0.6,14.8-3.2,21.8,0c1-1.3,12.9-14.4,0.2-12c-3.1,0.6-1,4.1-5,4.8c-4,0.7-5.7-1-8.9-1.5
				C2496,501.7,2511.2,509.7,2505.7,513z"/>
			<path class="st0" d="M163.3,329.8c-2.5-2.2-12.3-3.2-18.5-4.5c-2.4,1.7-7.9,3.4-7.1,4.9c0.2,0.3,5.4,1,6.2,2.1
				c0.7,0.9-2.3,2.5-3,3.4c-0.4,1-0.4,2,0,3c7-1.7,8-3.9,12.3-6.3c0.3-0.2,6.1,1.6,6,1.5C163.7,333.2,165.1,331.4,163.3,329.8z"/>
			<path class="st0" d="M138.7,587.2c-5.9,2.7,11,6,16.4,4.8c9.4-2,4.1-9.4,2.3-12.1C151,582.2,144.6,584.6,138.7,587.2z"/>
			<path class="st0" d="M2516.1,545.2c7.5-1.4-0.3-7.8-4-9.4c0,2.3,2.3,5.8-7.5,5.5c-4.9-0.1-8.3-1.1-13.2-0.6
				C2493.1,542.1,2511.1,546.2,2516.1,545.2z"/>
			<path class="st0" d="M1724.9,97.9c9.5-1.1,12.6-5.7,0.6-6.9C1707,89,1720.4,96.1,1724.9,97.9z"/>
			<path class="st0" d="M2444.8,159.7c2.9,1.7,11.2,6.3,13.8,1.8c-7.2-3.2-7.3-4.9-7.4-8.4c0-1.2-1.4-7.2-10.7-5.1
				C2431.9,149.9,2441.4,157.7,2444.8,159.7z"/>
			<path class="st0" d="M2437.7,154.6c1.3,0.9-0.2-0.1-0.2-0.2C2437,154.8,2437.6,154.8,2437.7,154.6z"/>
			<path class="st0" d="M2532.7,476.8c-0.7-0.7-1.6-1.5-2.6-2.2c-2.6,1.5-11.6,5-10.9,6.7c1.1,2.4,12.7,2,18.9,2.3
				C2536.3,481.4,2534.5,479.1,2532.7,476.8z"/>
			<path class="st0" d="M177.5,385.4c-0.7-4.3-10.6-2.8-10.3,0.8c0.1,1.3-2.9,3.5-3.9,4.8C170.6,390,178,388.5,177.5,385.4z"/>
			<path class="st0" d="M1663.7,116.3c7.1-3.1,3.3-5.1-3.6-8C1651.5,111.9,1655.5,112.8,1663.7,116.3z"/>
			<path class="st0" d="M1893.8,707.2c9.6,2.4,24.2,2.7,35.5,4c-1.4-1-3.3-1.7-5.9-2.3C1914,707.7,1903.6,706.6,1893.8,707.2z"/>
			<path class="st0" d="M557.3,683.4c-18.9-0.1-37.3-2.4-55.9-0.2c7.2,0.5,14.2,1,21.5,1.3c6.5,0.3,12.9,0.6,19.4,0.9
				c2,0.1,13,1,14.3,0.6C556.4,686.1,557.9,683.4,557.3,683.4z"/>
			<path class="st0" d="M1349.3,694.3c10.7-0.6,18.8-2.3,28.5-3.4c-1.3-0.3-3.6-1-5.3-1.2C1368.9,687.2,1351.5,693.3,1349.3,694.3z"
				/>
			<path class="st0" d="M1595.7,104.7c-20.8-1.3-22.5-1-19.7,4.5L1595.7,104.7z"/>
			<path class="st0" d="M237.7,195.1c-1,2.9,0.4,2.5,5.8,0.8c10-3.2,9.1-6.7,11.2-11.1C248.3,187.2,239,191.5,237.7,195.1z"/>
			<path class="st0" d="M2505.8,496.9c1.5-2.3,0.9-4.7,1.3-7.1c-2.5,1.3-13.8,6.1-11.7,7.8C2498.4,500.2,2504.5,498.9,2505.8,496.9z
				"/>
			<path class="st0" d="M215.2,337.1c1,0.4,6.8,3.4,9.5,3.2c2.2-0.1,6-3.3,5.7-3.7C228,333.3,219.6,336.2,215.2,337.1z"/>
			<path class="st0" d="M200.3,276.9c4.1-0.3,8.1-0.6,12.2-1c-2.3-2.3-4.7-4.6-7.1-6.8C205.4,269.2,201.1,275.3,200.3,276.9z"/>
			<path class="st0" d="M955.1,684c8.6,1.6,9.3,1.7,17.6-0.1C963.9,682.5,962.9,682,955.1,684z"/>
			<path class="st0" d="M1389.1,690.8c-2.4,1.9-7.3,4.1-0.2,5.5c3.6,0.7,8.6-0.5,9-1.7C1398.3,693.3,1391.7,691.7,1389.1,690.8z"/>
			<path class="st0" d="M159.3,441.1c-4,2.6-14.4,6.3-4.9,8.5C159.7,446.1,162.5,444.9,159.3,441.1z"/>
			<path class="st0" d="M130.3,310.8c-1.8,0-9.2-0.5-10.4,0.4c-3.1,2.4-0.5,4.8,4.5,6.5C126.3,315.4,128.3,313.1,130.3,310.8z"/>
			<path class="st0" d="M673.1,676.8c2.7,2.1,3.4,4.2,10.5,4.1c-1.7-1.6-3.4-3.3-5.1-4.9C676.7,676.3,674.9,676.5,673.1,676.8z"/>
			<path class="st0" d="M159.5,562.9c-4.9,1.1-18.8,5.6-6.4,6.4c2.9,0.2,6.1-2.4,6.8-3.2C159.9,566,163.9,561.9,159.5,562.9z"/>
			<path class="st0" d="M1780.3,694.6c-0.7,1.1-1.3,2.1-2,3.2c11.7,0.1,25.1,1.7,31.9-2C1800.1,696.8,1789.4,696.3,1780.3,694.6z"/>
			<path class="st0" d="M2117.5,679c-7.6,1.2-8.6,3.1,0.5,2.9C2127.9,681.7,2127,677.6,2117.5,679z"/>
			<path class="st0" d="M141.3,306.2c-2.3,1-10.4,3.4-10.6,4.6c-0.3,1.4,5.5,4.1,7.2,5.5C139,312.9,140.1,309.5,141.3,306.2z"/>
			<path class="st0" d="M2566.6,488.3c2.9-2.8-5.9-2.6-10.5-2.9C2556.8,486.7,2563.3,491.6,2566.6,488.3z"/>
			<path class="st0" d="M222.4,348c-1.9,0.6-2.3,4-2.9,5.1c5.3,0.4,10.3-0.4,13.9-1.7C234.1,351,230.8,345.3,222.4,348z"/>
			<path class="st0" d="M2242.9,682.8c12.6-1.6,31.5-2.9,40.4-6.5c-7.5,0.6-17.2,0.6-24.2,1.6
				C2252.3,678.8,2248.2,680.9,2242.9,682.8z"/>
			<path class="st0" d="M2511.4,350.2c1.6,1.4,3.2,2.8,4.8,4.2c4.5-2.3,0-4.1-3.1-6.6C2512.5,348.6,2512,349.4,2511.4,350.2z"/>
			<path class="st0" d="M2552.9,516.8c-0.1,0,0-2.7-0.4-2.8c-5.5-1.1-10.1,3.8-11.1,4.8c5.1-0.7,7.5-1.1,11-2.6
				C2552.5,516.5,2551.9,517.1,2552.9,516.8z"/>
			<path class="st0" d="M1233.4,92.7c2.4,1.5,4.7,3.1,7.5,4.5C1253.1,95,1242.3,92.3,1233.4,92.7z"/>
			<path class="st0" d="M269.6,162.6c-7.3,1.6-9.3,2.9-9.7,5.7c5.3-1.9,10.6-3.7,15.4-5.8C273.3,162.3,271.4,162.4,269.6,162.6z"/>
			<path class="st0" d="M2549.3,392.2c0.8-0.7,1.5-1.3,1.9-2c-3-1.1-4.7-2-7.9-1.4C2538.1,389.6,2547.9,391.7,2549.3,392.2z"/>
			<path class="st0" d="M222.1,636.8c0.4,0.4,0.7,0.7,1.1,1.1c4.1-0.7,8.3-1.3,12.3-2C229.7,635.6,222.2,632.9,222.1,636.8z"/>
			<path class="st0" d="M257.1,629.2c1.9,1.2,4.5,1.7,8.3,2.3c-2.3-2.2-5-3.8-9.5-5.6C253.6,625,258.2,629.7,257.1,629.2z"/>
			<path class="st0" d="M257.1,629.2c-0.2-0.1-0.4-0.2-0.5-0.4C256.9,629.1,257,629.2,257.1,629.2z"/>
			<path class="st0" d="M2526.9,552.9c2.9-1,5.9-2.1,8.8-3.1C2529.7,546.3,2526,550.7,2526.9,552.9z"/>
			<path class="st0" d="M975.7,115.7c1.4-0.1,2.7-0.3,3.9-0.6c-5.5-1.4-10.6-2.5-16.9-3.5C965.8,114.1,968.5,114.8,975.7,115.7z"/>
			<path class="st0" d="M1132.3,105.7c7.5,0.5,15.1,0.8,22.7,1C1153.3,104.2,1137.6,104.8,1132.3,105.7z"/>
			<path class="st0" d="M372.9,121.3c-4,0.2-10.5,0.7-12.9,0.8c0,0,0,0,0,0c-0.1,0-0.3-0.1-0.9-0.2c-0.9-0.4-1.3-0.3-1.2,0.3
				c1,0,1.6,0,1.9,0c-0.8,0.3-3.8,0.9-5.6,1.3C360.6,124.7,367.1,122.5,372.9,121.3z"/>
			<path class="st0" d="M2523.7,392.6c-4.6,0-9.2,0-13.9,0c1,0.7,2.2,1.3,3.5,1.9c2.6,1,5.2,1.9,8,2.8
				C2522.1,395.7,2522.9,394.1,2523.7,392.6z"/>
			<path class="st0" d="M2560.8,460.5c3.1,1-1.8-1.9-1.6-1.8c-1.6-1-4.4-2-6.4-2.9C2548.8,457.7,2556.9,459.2,2560.8,460.5z"/>
			<path class="st0" d="M2524.1,494.3c-2.2,1.4-4.4,2.7-6.6,4.1c3.3,0.7,6.6,1.5,9.9,2.2C2526.3,498.5,2525.2,496.4,2524.1,494.3z"
				/>
			<path class="st0" d="M1457,689.9c6.6,1.2,7.2,1.2,14.2,0.1C1465.7,688.6,1463.7,689.2,1457,689.9z"/>
			<path class="st0" d="M2537.9,376.6c1.6-3.2-0.4-5.8-9.6-2.7C2531.9,374.5,2535.4,375.5,2537.9,376.6z"/>
			<path class="st0" d="M239.9,180.4c1.1-0.9-0.7-3.2-0.8-4c-3.4,2.6-6.7,4.3-5.4,7.2C236,182.6,238.1,181.5,239.9,180.4z"/>
			<path class="st0" d="M160,397.2c0-1.2-1.3-2.5-2-3.7c-0.4,0.2-6.2,3-5.8,3.4C153.2,397.8,160.1,398.9,160,397.2z"/>
			<path class="st0" d="M170,594.3c-2,0.4-3.1,1-3.3,1.8c-1.2,1.4-0.4,3.3,0,4.8C168.4,600.1,181.5,594.3,170,594.3z"/>
			<path class="st0" d="M1231.2,104.2c2.5-0.6,4.9-1.2,7.4-1.9c-3.3-0.5-9.2-2-10.7-0.2C1226.7,103.6,1227.2,103.4,1231.2,104.2z"/>
			<path class="st0" d="M1987.9,689.3c-1.9,0.5-3.9,1-5.8,1.6c1.1,0.4,2.2,0.7,3.3,1.1C1989.7,690.1,1989.8,690.7,1987.9,689.3z"/>
			<path class="st0" d="M216.3,297.1c2.3,0.3,5.2,0.3,7.7,0.5c-1.1-1.2-2.2-2.3-3.3-3.5c-2.4,0.8-5.9,1.7-8.8,2.5
				C213.3,296.8,214.8,296.9,216.3,297.1z"/>
			<path class="st0" d="M2423.5,651.1c-7.5,1.9-18.1,4.9-25,5.8c-4.1,1.9-8.3,3.7-12.5,5.6c10.8-0.7,17.4-0.8,24.5-3.5
				C2416,656.9,2419.7,653.6,2423.5,651.1z"/>
			<path class="st0" d="M812.3,120.1c0.7-0.5,1.4-1,2.1-1.5c1.8-0.9,3.7-1.7,5.6-2.5C813,115.6,807.9,118.2,812.3,120.1z"/>
			<path class="st0" d="M1743.6,696.9c0.1,0,0.2,0,0.4,0c-0.2,0-0.3,0-0.5,0C1743.5,696.9,1743.6,696.9,1743.6,696.9z"/>
			<path class="st0" d="M1753.9,696.9c-3.3,0-6.7,0-10,0c2.8,0.1,7.2,0.1,10.3,0.1c1-1.2,2.5-2.5,3.7-3.6c-4.7,0.4-9.4,0.8-14.1,1.2
				C1744.6,694.7,1751.3,696.3,1753.9,696.9z"/>
			<path class="st0" d="M2535.6,514.8c-2.7-0.5-5.4-1-8.1-1.6c-1.6,1.1-4.5,2.4-2.7,3.2C2529.2,518.4,2534.6,516.3,2535.6,514.8z"/>
			<path class="st0" d="M2526.8,420.1c1.2-0.6,2.4-1.2,3.6-1.9C2523.4,416.8,2524.3,418.5,2526.8,420.1z"/>
			<path class="st0" d="M1404.5,91.6c-5.8-0.9-6.6-1.2-12.2-0.3C1396.7,92.3,1399,91.9,1404.5,91.6z"/>
			<path class="st0" d="M1950.5,73.9c1.7-0.3,3.1-0.6,4.4-1.1c0-0.7-0.5-1.3-1.5-2C1949.2,72.2,1948.1,72.2,1950.5,73.9z"/>
			<path class="st0" d="M2554.9,500.7c3.7,1,4.9,1.8,9.2,1.2c-1.9-0.7-3.9-1.3-5.9-1.9C2556.9,500.1,2555.8,500.3,2554.9,500.7z"/>
			<path class="st0" d="M1413.6,688.6c3.7,0.9,7.4,1.1,12,1.2c0.9-0.3,1.6-0.6,2.1-0.9C1422.7,688.6,1418.6,688,1413.6,688.6z"/>
			<path class="st0" d="M2484.7,191.2c-0.8-1.8-2-3.4-4.3-5.1C2481.4,188,2481.2,189.8,2484.7,191.2z"/>
			<path class="st0" d="M909.6,117.1c0.5-0.4,1-0.7,1.5-1.1C906.2,114.2,902.6,115.6,909.6,117.1z"/>
			<path class="st0" d="M1699.2,97c-3.1,0.4-4,2-4.2,2.9c4.2-0.5,8.2-1,10.6-2.4C1706.1,97.1,1700.2,96.8,1699.2,97z"/>
			<path class="st0" d="M587.6,689.2c5.3,0.8,6.5,0.7,11.8,0.6C597.6,688.3,591.7,689.1,587.6,689.2z"/>
			<path class="st0" d="M296.4,152.7c-7,1.7-6.7,1.8-5.8,4.7C292.3,155.8,294.2,154.2,296.4,152.7z"/>
			<path class="st0" d="M2502.5,299.8c0.9-0.6,2.3-1.2,2.9-1.8c-1.8-0.6-4.2-1-6.2-1.5C2500.3,297.7,2501.4,298.8,2502.5,299.8z"/>
			<path class="st0" d="M174.6,506.6c-0.5-0.7-0.9-1.5-1.4-2.2C169.5,505.1,171,506.3,174.6,506.6z"/>
			<path class="st0" d="M195.4,544.5c-0.2-0.2-0.5-0.5-0.7-0.7C194.8,544.1,194.5,544.2,195.4,544.5z"/>
			<path class="st0" d="M198.7,547.9c0.4-0.3,0.9-0.5,1.3-0.8c-1.5-0.9-3.1-1.8-4.6-2.7C196.5,545.7,197.6,546.8,198.7,547.9z"/>
			<path class="st0" d="M1277,102c0.9-0.5,1.6-1,1.9-1.6c-0.5-0.5-1.1-1.1-1.7-1.6C1272.8,100.3,1273.4,100.3,1277,102z"/>
			<path class="st0" d="M191.8,523.7c0.5,0.4,1,0.9,1.5,1.3c3.9-1.9,3.8-1.3,2.4-2.8C194.4,522.7,192.7,523.2,191.8,523.7z"/>
			<path class="st0" d="M498.6,105.5c-6-1.8-8.9-0.8-14.7,0.4C484.5,106,499.9,105.9,498.6,105.5z"/>
			<path class="st0" d="M1596.3,104.7l15.5,1.9C1608.9,104.9,1608.2,102.3,1596.3,104.7z"/>
			<path class="st0" d="M1309.2,692.9c-1.9,0.9,5.1,0.3,8.6,0C1314.2,691.8,1312.6,691.2,1309.2,692.9z"/>
			<path class="st0" d="M1317.9,692.9C1320.7,692.6,1319.9,692.7,1317.9,692.9C1317.8,692.9,1317.9,692.9,1317.9,692.9z"/>
			<path class="st0" d="M2488.9,180.8c-1.1-1.8-0.3-4.8-6.5-4.8C2484.8,177.4,2487.6,179.2,2488.9,180.8z"/>
			<path class="st0" d="M750.3,116c-3.9-1.3-4.1-1.3-9.2-0.6C745.8,116.7,745.4,116.5,750.3,116z"/>
			<path class="st0" d="M2529.4,404.2c1.3-0.6,2.3-1.3,2.8-2c-0.7-0.7-1.8-1.2-3.2-1.8C2525.4,402.2,2526.2,402.3,2529.4,404.2z"/>
			<path class="st0" d="M994.7,90.3c-6.3-0.5-8.4-0.8-14.9-0.2C986.5,90.9,988,90.7,994.7,90.3z"/>
			<path class="st0" d="M485.1,682.9c5.6,0.5,9.4,0.4,15.1,0.3C494.2,682.5,491,682.5,485.1,682.9z"/>
			<path class="st0" d="M1868.2,703c2.5-0.6,3.9-1.4,4.2-2.4C1867.7,701.3,1866.8,701.3,1868.2,703z"/>
			<path class="st0" d="M1331.9,681.2c-3.4,0.7-5.9,0.9-7.1,2.2C1330.3,683,1331,683,1331.9,681.2z"/>
			<path class="st0" d="M119.4,302.2c0.9-0.2,1.5-0.4,1.9-0.8c-0.7-0.4-1.4-0.9-2-1.3C117.9,300.9,115.9,301.4,119.4,302.2z"/>
			<path class="st0" d="M269.5,655.8c3.7,0.8,7.4,1.5,11.1,2.3c-3.4-1.2-6.8-2.3-10.1-3.5C270.1,655,269.8,655.4,269.5,655.8z"/>
			<path class="st0" d="M216.1,606.7c0.5,2.4,0.8,4.8,1.6,7.2C225.5,609.6,225.8,610.2,216.1,606.7z"/>
			<path class="st0" d="M253.2,634.1c-3.8-1.3-5.8-1.9-10.9-2.6C245.5,633.2,247.2,633.5,253.2,634.1z"/>
			<path class="st0" d="M1378.6,91.9c-3.7-1.1-5.2-1.1-8.5-0.1c2.6,0.4,5.2,0.7,7.8,1.1C1378.5,92.6,1378.7,92.3,1378.6,91.9z"/>
			<path class="st0" d="M2497.9,535.9c-1-1.7-2.6-2.2-5.8-3.4C2493.2,534.3,2492.9,535.3,2497.9,535.9z"/>
			<path class="st0" d="M202,564.1c2.7-2.6,2.6-4.5,2-7.3C200.5,559.5,201,561.1,202,564.1z"/>
			<path class="st0" d="M2208.2,678.4c6.4,1,12.5-0.2,17.3-1.9C2219.5,677,2214,677.8,2208.2,678.4z"/>
			<path class="st0" d="M1353.5,698.1c0.7,0.3,1.4,0.7,2.1,1c0.7-0.1,1.3-0.2,1.9-0.3C1353.1,696.2,1356.9,698.5,1353.5,698.1z"/>
			<path class="st0" d="M168.4,450.8c-0.7-0.3-1.4-0.6-2.1-0.9c-0.4,0.3-3.9,1.8,0,1.7C167.2,451.5,167.9,451.2,168.4,450.8z"/>
			<path class="st0" d="M167.7,438.1c-1.3,1.3,1.8,2.2,5.8,2.3C172.7,439.4,170.8,438.6,167.7,438.1z"/>
			<path class="st0" d="M211.5,296.8c-0.3,2-1.3,3.7,1.4,5.5C214.3,300.2,213,298.9,211.5,296.8z"/>
			<path class="st0" d="M486.3,675.3C486.3,675.3,486.4,675.3,486.3,675.3C486.2,675.3,486.2,675.2,486.3,675.3z"/>
			<path class="st0" d="M491.8,675.9c0.7-1.2-1.2-1.5-5.4-0.7C487.1,675.5,491.3,676.7,491.8,675.9z"/>
			<path class="st0" d="M2567.7,567.9c-0.7,0.3-1.3,0.5-2,0.8C2565.4,568.8,2569.8,569.5,2567.7,567.9z"/>
			<path class="st0" d="M2104.9,676.7c-3.4-0.2-6.7-0.3-10.2-0.4C2098,677,2101.4,677.2,2104.9,676.7z"/>
			<path class="st0" d="M218.3,178.2c1.1,0.1,2.1,0.1,3.1-0.1C222.2,174.9,216.4,177.4,218.3,178.2z"/>
			<path class="st0" d="M217.5,627.3C218.4,627.8,218.2,627.7,217.5,627.3C217.5,627.3,217.5,627.3,217.5,627.3z"/>
			<path class="st0" d="M214.1,624.9c-1.6-0.1,2,1.7,3.4,2.4C218.1,626.3,217.4,625.1,214.1,624.9z"/>
			<path class="st0" d="M853.8,83.8c-0.7-0.3-1.3-0.6-1.9-0.9c-0.7,0.1-1.3,0.2-1.9,0.3C852,84.6,853.6,83.7,853.8,83.8z"/>
			<path class="st0" d="M232.1,326.6c0.4-0.4,0.7-0.8,1.1-1.2c-1.9-0.1-4.1-0.1-6.1-0.2C228.2,325.7,230.6,326.3,232.1,326.6z"/>
			<path class="st0" d="M1999.6,81.6c0.2-0.1-1.2-1.4-5.1-0.3C1993.5,81.6,1996.9,82.3,1999.6,81.6z"/>
			<path class="st0" d="M898.8,109.4c0.5-0.3,1-0.5,1.5-0.8c-1.1-0.1-2.2-0.3-3.4-0.4C895.7,108.7,896.3,109.1,898.8,109.4z"/>
			<path class="st0" d="M945,99.7c-0.9-0.9-6.4-0.5-5.4,0.2C940.5,100.6,945.9,100.6,945,99.7z"/>
			<path class="st0" d="M155.2,465.9c0.4-0.4,0.8-0.8,1.2-1.1c-0.4-0.1-0.9-0.2-1.3-0.3C153.3,465.3,155.2,465.3,155.2,465.9z"/>
			<path class="st0" d="M221.2,215.1c0-0.7,0.1-1.3,0.1-2C216.3,212.5,216.3,214.8,221.2,215.1z"/>
			<path class="st0" d="M1331.6,696c-5.6-1.8-1.4,0-4.9,0.2C1318.9,695.7,1334.4,696.8,1331.6,696z"/>
			<path class="st0" d="M2561.9,468.7c0.7-0.2,1.3-0.4,2-0.5C2560.4,467,2562,468.6,2561.9,468.7z"/>
			<path class="st0" d="M116.7,428.9c-2.5,0.2-1.8,2.1,0.7,1.9C119.8,430.5,119.5,428.6,116.7,428.9z"/>
			<path class="st0" d="M735.7,679.3c2.4-0.1,4.9-0.3,7.3-0.4c-2-0.3-5.1-0.5-7.3-0.6C735.7,678.6,735.7,678.9,735.7,679.3z"/>
			<path class="st0" d="M198.4,471.9c1.4,0.2,4.1,0.4,5.7,0.4c-0.2-0.5-0.4-1-0.5-1.5C201.8,471,200.1,471.5,198.4,471.9z"/>
			<path class="st0" d="M203.2,232.1c2.8-1.2,2.3-0.8,1-2.9c-1,0.2-1.8,0.5-2.2,0.9C202.4,230.8,202.8,231.4,203.2,232.1z"/>
			<path class="st0" d="M2325.5,122.5c4.7,0.6,8,0.8,12.9,0.8C2335.4,123.3,2330.8,122.1,2325.5,122.5z"/>
			<path class="st0" d="M1081.2,75.1c-2.1,0-2.9,0.1-2.3,1C1081.5,76.3,1081.2,75.9,1081.2,75.1z"/>
			<path class="st0" d="M2506.2,312.2c0,1.1,0,2.1,0,3.2c1.6-0.6,3.5-1.2,4.9-1.8C2509.8,313,2507.7,312.6,2506.2,312.2z"/>
			<path class="st0" d="M1661.4,100.9c1.3-0.5,1-0.9-1-1.3C1657.9,100.8,1658.6,100.5,1661.4,100.9z"/>
			<path class="st0" d="M125.4,452.5c0,0.5,0.1,0.9,0.1,1.4C129.8,453.6,125.4,452.2,125.4,452.5z"/>
			<path class="st0" d="M2047.6,682.2c2.3-0.2,4.6-0.8,6.8-1.1C2051,680.2,2048.9,680.8,2047.6,682.2z"/>
			<path class="st0" d="M1666.5,697.4c1.1,0.1,2.1,0.2,3.2,0.3C1669.9,697.1,1668.8,697,1666.5,697.4z"/>
			<path class="st0" d="M1260.1,697.6c2.3,0.7,4.3,0.6,5.9-0.3C1263,696.6,1262.5,697.2,1260.1,697.6z"/>
			<path class="st0" d="M2042,677.8l-14.4,1.1C2035.5,680.6,2038.1,678.8,2042,677.8z"/>
			<path class="st0" d="M208.9,195.1c3.8-0.7,4.4-1.5,6.4-2.8C211.4,193.1,210,193.5,208.9,195.1z"/>
			<path class="st0" d="M591,116.8c1.7-0.2,3.3-0.3,5-0.5C594.3,116.1,587.4,115.7,591,116.8z"/>
			<path class="st0" d="M2051.5,701.1c1.4-0.2,2.7,0.5,2.2-0.6C2052,700.4,2051.3,700.6,2051.5,701.1z"/>
			<path class="st0" d="M1887.5,701.5c3-0.4,4.7-1.1,5.3-2.1C1889.7,699.7,1887.9,700.4,1887.5,701.5z"/>
			<path class="st0" d="M198.2,194.4c4.3,0.8,2.4-2.2,0.4-2.6C194.3,191,194.1,193.6,198.2,194.4z"/>
			<path class="st0" d="M2533.3,530.6c-2.5-1.7-2.7-1.3-4.5-1C2530.2,530,2531.8,530.3,2533.3,530.6z"/>
			<path class="st0" d="M183.2,234.5c-0.5,0.5-1.1,1.1-1.7,1.6C182.1,235.6,182.6,235,183.2,234.5z"/>
			<path class="st0" d="M183.5,234.1c-0.1,0.1-0.3,0.3-0.4,0.4c0.1-0.1,0.2-0.2,0.2-0.2C183.6,234.1,185.7,234.5,183.5,234.1z"/>
			<path class="st0" d="M2219.9,688.1c0.9,0.1,8.1,0.2,7.7,0.1C2224,687.5,2223,687.5,2219.9,688.1z"/>
			<path class="st0" d="M206.5,286c1.7-0.2,3.3-0.6,4.9-0.9C206.7,284.8,207.4,285.2,206.5,286z"/>
			<path class="st0" d="M1328.1,685.5c-0.9-0.6-2.1-1.2-3.2-1.7C1324.2,685.4,1325.7,685.2,1328.1,685.5z"/>
			<path class="st0" d="M739,684.1c0.9-0.1,1.8-0.1,2.7-0.2c-0.9-0.4-1.9-0.9-2.8-1.3C738.9,683.1,739,683.6,739,684.1z"/>
			<path class="st0" d="M1642,105.5c-0.2-0.5-1.1-0.6-2.6-0.4C1640.2,106.3,1640.7,105.5,1642,105.5z"/>
			<path class="st0" d="M2065.4,684.1c-0.2,0.5,0.6,0.7,2.4,0.6C2068.2,683.7,2066.9,684.3,2065.4,684.1z"/>
			<path class="st0" d="M1628.8,103.1c-0.5-0.3-1.1-0.6-1.6-0.9c-1.7,0.3-3.3,0.7-4.9,1C1624.2,103.3,1627,103.2,1628.8,103.1z"/>
			<path class="st0" d="M827.5,683.6c1.1-0.3,2.1-0.6,3.1-0.9C826.8,682.9,827.8,683.5,827.5,683.6z"/>
			<path class="st0" d="M1937.1,71.8c-0.3,0.3-2.3,0.3-0.3,0.4C1938.9,72.2,1936.8,72.1,1937.1,71.8z"/>
			<path class="st0" d="M2032.8,697.9c-2.3,0,0,0.1,0.2,0.4C2032.8,698,2035.2,697.9,2032.8,697.9z"/>
			<path class="st0" d="M90.8,457.3c1.3-0.2,2.7-0.4,4-0.6C91,456.3,90.5,457.3,90.8,457.3z"/>
			<path class="st0" d="M451,679.5c-6.5-0.7-12.9-1.9-19.3-2.5C437.9,677.8,446,679.1,451,679.5z"/>
			<path class="st0" d="M963.5,94.4c0-0.5-3-0.4-3.8-0.3C959.8,94.2,963.6,95.5,963.5,94.4z"/>
			<path class="st0" d="M1965,77.4c3.3-0.7-2.4-0.4-2.7-0.4C1962.5,77.5,1963.3,77.7,1965,77.4z"/>
			<path class="st0" d="M633.6,691.5c2.1,0.2,3.4,0.1,4.1-0.5C634.6,690.8,633.5,691.5,633.6,691.5z"/>
			<path class="st0" d="M2546.7,399.9c-3.1,0.5-0.5,0.6-0.7,0.9C2546.2,400.4,2548.1,400.6,2546.7,399.9z"/>
			<path class="st0" d="M2547.7,468.8c-0.5-0.4-1-0.8-1.5-1.1c-1.5,0.5-2.8,1.2-4.1,1.7C2543.7,469.3,2546.3,469,2547.7,468.8z"/>
			<path class="st0" d="M2549.1,480.6c0.6,0.7,1.5,1.5,2.2,2.2C2551.9,481.4,2550,480.9,2549.1,480.6z"/>
			<path class="st0" d="M2546,528.2c0-0.5,2.3-0.5-0.5-1.2C2544.4,527.6,2544.6,527.9,2546,528.2z"/>
			<path class="st0" d="M1578.7,686.2l-9.9,0C1572.2,688.1,1575.5,687.6,1578.7,686.2z"/>
			<path class="st0" d="M1660.4,120.4c2.6,0,5.2-0.1,7.7-0.1C1665,119.9,1661.7,119.8,1660.4,120.4z"/>
			<path class="st0" d="M236,196.4c-0.3,0.3-0.5,0.5-0.8,0.8C235.6,196.9,236.4,196.6,236,196.4z"/>
			<path class="st0" d="M235.2,197.2c-2.6,0.9-3.5,1.9-2.7,2.9C233.2,199.1,234.1,198.2,235.2,197.2z"/>
			<path class="st0" d="M141.6,302.5c0,1,0,2.1,0.1,3.1C145.2,304.6,145.7,303.4,141.6,302.5z"/>
			<path class="st0" d="M208.4,344.4c0.4-0.1,0.5-0.1,0.5,0C208.9,344.1,208.7,344.3,208.4,344.4z"/>
			<path class="st0" d="M205.1,346.6c1.4-0.6,2.2-1.5,3.3-2.2C204.6,344.4,204.1,345.3,205.1,346.6z"/>
			<path class="st0" d="M1287.9,687.9c1.7,0.7,3.3,0.8,4.8,0.2C1290.9,687.4,1289.3,687.3,1287.9,687.9z"/>
			<path class="st0" d="M2527.3,306.8c0.4-0.8,0.8-1.5,1.1-2.3C2528,305.2,2527.6,306,2527.3,306.8z"/>
			<path class="st0" d="M302.2,137.9c-0.6-0.2-1.2-0.4-1.8-0.6c-2.6,0.4-2.9,0.8-0.9,1.2C300.4,138.3,301.3,138.1,302.2,137.9z"/>
			<path class="st0" d="M2145.9,99.9c-8.3,1.2-18.3,1.5-27.1,2.2c11.5,0,16.1-0.2,26.1-2C2144.9,100,2147.9,99.6,2145.9,99.9z"/>
			<path class="st0" d="M155.9,605.3c-1.5,1.5-0.8,2.2,2.2,2.2C158.9,606.4,157.8,605.9,155.9,605.3z"/>
			<path class="st0" d="M134.1,620.9c0,0.5-0.1,1-0.2,1.5C137.7,622.7,135.1,621.3,134.1,620.9z"/>
			<path class="st0" d="M2253,685.8c3,0.3,4.5,0.5,7-0.1C2256,685.1,2256.1,685.2,2253,685.8z"/>
			<path class="st0" d="M2517.8,411.6c1.1-0.4,1-0.8-0.3-1.2C2515.5,411.3,2517.5,411.2,2517.8,411.6z"/>
			<path class="st0" d="M924.4,686.8c0.1-0.1,1.7,0.8,3.2-0.6c-0.5-0.1-1.1-0.2-1.7-0.2C925.4,686.2,924.9,686.5,924.4,686.8z"/>
			<path class="st0" d="M2539.2,395.5c0.4-0.1,0.9-0.2,1.4-0.3c-0.3-1.1-1.3-1.4-2.8-0.7C2538.2,394.8,2538.7,395.2,2539.2,395.5z"
				/>
			<path class="st0" d="M2540.1,593.5c0.8-0.3,2.3-0.8,1.5-2.1C2539.9,592,2539.4,592.7,2540.1,593.5z"/>
			<path class="st0" d="M1627.4,692.8c1.2,0.4,2.3,0.4,3.3-0.1C1629,692.3,1628.9,692.7,1627.4,692.8z"/>
			<path class="st0" d="M185.5,503.5c-0.5-0.1-1-0.2-1.5-0.3c-1.1,0.5-0.8,0.9,0.8,1.1C185.1,504,185.3,503.8,185.5,503.5z"/>
			<path class="st0" d="M414.4,113.4c-5.8-0.3-4.4-0.5-7.5,0.3C409.8,114.3,412.3,114.2,414.4,113.4z"/>
			<path class="st0" d="M1251.5,690.7c1.2,0.3,2,0.2,2.5-0.2C1252.8,690.2,1252,690.2,1251.5,690.7z"/>
			<path class="st0" d="M2512.8,284.7c1.3,0,0-0.2-0.1-0.5C2512.7,284.4,2511.5,284.7,2512.8,284.7z"/>
			<path class="st0" d="M76.8,479.6c-0.9-0.5-0.4,0-1.5,0.1C76.2,479.6,77.7,480.1,76.8,479.6z"/>
			<path class="st0" d="M1926.3,698.4c1.9-0.4,3.5-1.3,4.8-1.9c-4.4-0.6-8.8-1.1-13.2-1.7c4.4,0.6,8.7,1.2,13.1,1.7
				C1929.6,697.1,1928,697.9,1926.3,698.4z"/>
			<path class="st0" d="M1926.3,698.4c-0.8,0.3-1.5,0.6-2.3,0.9C1923.2,699.5,1925.8,698.6,1926.3,698.4z"/>
			<path class="st0" d="M90.6,489c-0.9,0.4-0.7,0.7,0.5,0.9C92.1,489.5,91.9,489.2,90.6,489z"/>
			<path class="st0" d="M455.7,688.5c1.4,0.2-2.3,1.5,2.7,0.4C460.4,688.5,455.2,688.5,455.7,688.5z"/>
			<path class="st0" d="M2405.8,127.9c-1.7-0.1-3.5-0.3-5.2-0.4c2.2,0.4,4.8,0.8,7.2,1.1C2407.2,128.4,2406.5,128.2,2405.8,127.9z"
				/>
			<path class="st0" d="M1193.2,690.7c1.1,0,2.1,0,3.2,0C1199.4,690.6,1194.7,690.6,1193.2,690.7z"/>
			<path class="st0" d="M191,518.3c-1.2-0.3-1.8-0.2-1.9,0.4C191.7,519.2,190.2,518.6,191,518.3z"/>
			<path class="st0" d="M181.4,552.4c0.3-0.4,1.5-0.3,0.2-0.8C181.5,551.8,181.4,552.1,181.4,552.4z"/>
			<path class="st0" d="M220.6,294.1c-0.2-0.4-0.5-0.8-0.8-1.2C220,293.3,220.3,293.7,220.6,294.1z"/>
			<path class="st0" d="M1784.6,82.4c-0.7-0.1-1.4-0.1-2.1-0.2C1783.4,83.2,1783.4,82.5,1784.6,82.4z"/>
			<path class="st0" d="M2018.6,82.2c-1.2-0.4-2.3-0.4-3.5,0C2016.3,82.6,2017.4,82.6,2018.6,82.2z"/>
			<path class="st0" d="M2580.9,438.7c0.3,0.3,0.6,0.6,0.9,0.9C2582.7,439.2,2582.4,438.9,2580.9,438.7z"/>
			<path class="st0" d="M1779.5,698.8c-0.4-0.3-1-0.8-1.2-1.1C1778.3,697.9,1779.1,698.5,1779.5,698.8z"/>
			<path class="st0" d="M2537.6,605.5c-0.2,0.5-0.5,1-0.7,1.5C2537.5,606.3,2539,606.2,2537.6,605.5z"/>
			<path class="st0" d="M2106,85.4c-1.6-0.4-3.6-0.3-5,0.1C2100.9,85.5,2108.1,85.9,2106,85.4z"/>
			<path class="st0" d="M800.3,121.7c2,0.3,0.1-0.1,0.8-0.4C800.5,121.6,798.4,121.5,800.3,121.7z"/>
			<path class="st0" d="M488.8,688.9c0.8,0.1,1.7,0.1,2.5,0.2C490.8,688.4,490.2,688.9,488.8,688.9z"/>
			<path class="st0" d="M1181.8,97.1c1.4-0.2,1.5-0.5,0.1-0.7C1180.4,96.7,1180.4,96.9,1181.8,97.1z"/>
			<path class="st0" d="M1277.1,98.7c0,0,1-1.1,1-1.5C1277.7,97.7,1277.4,98.2,1277.1,98.7z"/>
			<path class="st0" d="M1743.4,696.8l0-2.3C1737.3,695.3,1736.9,696,1743.4,696.8z"/>
			<path class="st0" d="M2553.1,606.6c0.7,0.5,1.3,1,2,1.6C2554.8,607.8,2553.8,607.1,2553.1,606.6z"/>
			<path class="st0" d="M193.5,535.7c0.1-0.3,0.1-0.6,0.2-0.9C192,535.1,193.3,535.2,193.5,535.7z"/>
			<path class="st0" d="M2557.4,396.9c1.8-0.8-0.4-0.8-1.8-0.6C2555.6,396.4,2556.1,397.6,2557.4,396.9z"/>
			<path class="st0" d="M212.9,343.3c-1.3-0.2-2.7-0.4-4-0.6c0,0.5,0,1.1,0,1.6C210.2,343.9,211.8,343.6,212.9,343.3z"/>
			<path class="st0" d="M1003.2,98.8c-1.3-0.4-2.1-0.3-2.4,0.2C1002.1,99.4,1002.8,99.3,1003.2,98.8z"/>
			<path class="st0" d="M1612.5,106.6c0.3,0.1,1.2,0.7,2.3,1C1614.1,107.3,1613.3,107,1612.5,106.6z"/>
			<path class="st0" d="M822.7,107.6c-0.7,0.2-2.8,0-1.1,0.3C823.5,108.2,821.9,107.8,822.7,107.6z"/>
			<path class="st0" d="M1065.3,101.6c1.7,0.1,3.3,0.1,5,0.2C1068.7,101.5,1067,101.5,1065.3,101.6z"/>
			<path class="st0" d="M182.1,529.1c1.5,0.1,2.1-0.2,1.8-0.8C180.7,528.1,182.8,528.6,182.1,529.1z"/>
			<path class="st0" d="M2506.1,473c-0.5-0.2-5.7-1.3-7.3-2C2498.7,471.6,2504.6,472.6,2506.1,473z"/>
			<path class="st0" d="M1610,694.6c0.2-0.4,0.4-0.7,0.6-1.1C1610,693.9,1610.1,694.3,1610,694.6z"/>
			<path class="st0" d="M711.8,114.1c-3.5,0.4-9.5-0.4-8.4,0.2C706.2,114.4,709.3,114.4,711.8,114.1z"/>
			<path class="st0" d="M2530.3,321.8c1.3,0.3,0.3-0.2,0.6-0.4C2530.5,321.6,2529,321.5,2530.3,321.8z"/>
			<path class="st0" d="M561.9,678.9c-5.1,0.2-10.6,0.8-15.9,1.1C551.2,679.9,556.7,679.3,561.9,678.9z"/>
			<path class="st0" d="M158.9,414.8c-0.6-1.1-1.8-2.4-2.8-3.6C157,412.4,158,413.6,158.9,414.8z"/>
			<path class="st0" d="M614.8,678.6c-0.8,0-2.2,0.2-2.3,0.2C613.3,678.7,614,678.7,614.8,678.6z"/>
			<path class="st0" d="M2406.7,661c1.1-0.3,2.2-0.6,3.2-0.9C2410.4,660,2407.2,660.8,2406.7,661z"/>
			<path class="st0" d="M333.2,686.4c0.8,0.1,1.7,0.2,2.6,0.2C334.3,686,334.2,686.4,333.2,686.4z"/>
			<path class="st0" d="M233.7,354.8c1.1,0,2.2,0,3.3,0c-1.1-1.1-2.2-2.1-3.3-3.2C233.7,352.7,233.7,353.8,233.7,354.8z"/>
			<path class="st0" d="M124,321.6c0.1-1.3,0.3-2.6,0.4-3.8C124.1,319,123.9,320.3,124,321.6z"/>
			<path class="st0" d="M1096.9,102.1c-3.7,0-4.6,1.6-5.3,2.6C1092.6,103.5,1093.9,102.2,1096.9,102.1z"/>
			<path class="st0" d="M891.2,88.4c-0.2-0.4-0.9-0.5-2.2-0.2C889.1,88.6,889.9,88.7,891.2,88.4z"/>
			<path class="st0" d="M130.1,546.4c-0.1,0.4-0.2,0.7-0.2,1.1C130.4,547,132.1,547.1,130.1,546.4z"/>
			<path class="st0" d="M176.1,367.9c0,0.6,0.3,0,1.1,0C176.4,367.9,176.2,367.3,176.1,367.9z"/>
			<path class="st0" d="M2539.8,366.7c1.2,0.1,0.1-0.3,0.2-0.6C2539.9,366.4,2538.6,366.6,2539.8,366.7z"/>
			<path class="st0" d="M2169,102.1c-1.3,0-2.7-0.1-4-0.1C2165.7,102.3,2168.1,102.1,2169,102.1z"/>
			<path class="st0" d="M2537.5,346.2c1.4,0.4,0.3-0.2,0.8-0.5C2537.8,346.1,2536.2,345.8,2537.5,346.2z"/>
			<path class="st0" d="M1440.6,695.5C1440.4,695.4,1438.1,695.5,1440.6,695.5L1440.6,695.5z"/>
			<path class="st0" d="M1440.6,695.5c-0.4,0.8-0.7,1.7-0.9,2.5c1-0.7,1-1.8,1.4-2.5C1440.9,695.5,1440.8,695.5,1440.6,695.5
				C1440.6,695.5,1440.6,695.5,1440.6,695.5z"/>
			<path class="st0" d="M1377.9,689.7c0,0.4,0,0.7-0.1,1.1c3.5-0.1,7-0.1,10.4-0.2C1384.8,690.4,1381.4,690.1,1377.9,689.7z"/>
			<path class="st0" d="M2198.2,107c-0.8,0-1.6,0-2.3,0C2197.2,107.5,2197.1,107.1,2198.2,107z"/>
			<path class="st0" d="M201.2,194.2c2.2,0.4,6.4,0.9,7.4,1C206.4,194.7,203.2,194.2,201.2,194.2z"/>
			<path class="st0" d="M205,566.9c-0.9-0.7-1.7-1.8-3.1-2.4c-0.6,0.8-0.2,1.8-0.2,2.7C202.8,567.1,203.9,567,205,566.9z"/>
			<path class="st0" d="M205.1,342.5c0,0.6-0.4,1.4,0,1.9C204.7,344,205.2,343.1,205.1,342.5c0.4,0.1,3.5,0.1,3.8,0.1
				C208.1,342.5,206.2,342.5,205.1,342.5z"/>
			<path class="st0" d="M890.3,114.1C890.4,114.1,890.2,114.1,890.3,114.1L890.3,114.1z"/>
			<path class="st0" d="M890.3,114.1c-0.1,0-0.3,0-0.8,0C887.7,114.1,890.4,114.1,890.3,114.1C890.3,114.1,890.3,114.1,890.3,114.1z
				"/>
			<path class="st0" d="M1568.7,686.1c-1.6-0.4-3.8-0.8-5.3-1.1C1565.1,685.4,1567.1,685.9,1568.7,686.1z"/>
			<path class="st0" d="M337,663.2c-5.2,1.1-4.8,2.6-2.6,4.3c4.8,3.7,13.8,2,22.1,3.3C351.9,669,336.9,665.5,337,663.2z"/>
			<path class="st0" d="M218.8,606.1c-1.3-0.5-2.7-1-4-1.5c0.4,0.7,0.8,1.4,1.2,2C217,606.4,217.9,606.2,218.8,606.1z"/>
			<path class="st0" d="M990.8,682.5c2,0,3.9,0,5.9,0C994.8,682.4,992.7,682.5,990.8,682.5z"/>
			<path class="st0" d="M260.9,635.8c-1.8-0.6-5.7-1.4-7.1-1.5C256.1,634.8,258.6,635.3,260.9,635.8z"/>
			<path class="st0" d="M2551.6,483.3c1.4,0.7,2.8,1.4,4.3,2.1C2555.1,484.7,2552.6,483.7,2551.6,483.3z"/>
			<path class="st0" d="M2548.8,578.1c-0.7-0.7-3.2-1.7-4.3-2.1C2545.9,576.7,2547.4,577.4,2548.8,578.1z"/>
			<path class="st0" d="M762.9,680.3c2.3,0,4.6-0.1,6.9-0.1C767.9,680.2,763.8,680.2,762.9,680.3z"/>
			<path class="st0" d="M684,120.1c-1.1,0.1,3.7,0,5.9,0.2C688,120,686.2,120.2,684,120.1z"/>
			<path class="st0" d="M2246.6,677.7c-0.7-0.1-1.2-0.3-1.7-0.5c0.1,0.1,0.2,0.3,0.3,0.4C2245.7,677.7,2246.1,677.7,2246.6,677.7z"
				/>
			<path class="st0" d="M2255.8,678c-3.1-0.1-6.2-0.2-9.3-0.3C2249.6,678.3,2254.2,678.6,2255.8,678z"/>
			<path class="st0" d="M2244.3,676.4c0,0-0.4,0-0.4,0c0,0.3,0.4,0.5,0.9,0.7C2244.7,676.9,2244.5,676.7,2244.3,676.4z"/>
			<path class="st0" d="M227.3,207.8c0.9,1.1,1.8,2.1,2.9,3.2C229.9,210.6,227.4,207.9,227.3,207.8z"/>
			<path class="st0" d="M1088.8,677.7c-1.5,0-3,0-4.5,0c1.5,0.3,3,0.7,4.5,1C1088.8,678.4,1088.8,678.1,1088.8,677.7z"/>
			<path class="st0" d="M808.5,100.9c0-0.5-0.1-0.9-0.1-1.4c-0.4-0.2-1.6-0.5-2.1-0.7C807.2,99.5,807.8,100.1,808.5,100.9z"/>
			<path class="st0" d="M2270.7,697.8c1.8,0.1,3.5,0.2,5.3,0.3C2274.1,697.9,2268,697.3,2270.7,697.8z"/>
			<path class="st0" d="M2399,126.9c0.5,0.2,0.6,0.5,1.6,0.6C2400.1,127.4,2399.5,127.2,2399,126.9z"/>
			<path class="st0" d="M801.9,102.3c2.1-0.5,4.3-1,6.6-1.4C806.3,101.1,803.4,101.9,801.9,102.3z"/>
			<path class="st0" d="M174.5,597.3c0.9-0.6,2.2-1.1,3.8-1.5c-0.4,0.1-0.8,0.1-1.2,0.2C180.5,593.9,174.4,597.1,174.5,597.3z"/>
			<path class="st0" d="M1419.7,695.8c-1.9-0.5-4.6-1-6.5-1.3C1415.2,695,1417.7,695.5,1419.7,695.8z"/>
			<path class="st0" d="M2466.5,163.1c1.6,0.6,4.1,1.3,6.3,1.8C2471.2,164.3,2468.7,163.6,2466.5,163.1z"/>
			<path class="st0" d="M2458.6,161.4c2,0.6,6.3,1.6,7.8,1.7C2463.8,162.5,2461.2,162,2458.6,161.4z"/>
			<path class="st0" d="M1538.6,691.3c-0.1-0.4-0.9-1.4-1-1.5C1537.9,690.3,1538.2,690.8,1538.6,691.3z"/>
			<path class="st0" d="M1003.8,111.3c-1,0.3-2,0.1-1.1,0.8C1002.1,111.5,1002.9,111.5,1003.8,111.3z"/>
			<path class="st0" d="M2494.9,207.6c0.1,0,0.1,0-0.2-0.1c-1.2,0.2-2.4,0.3-3.6,0.5C2491.5,208,2493.8,207.7,2494.9,207.6z"/>
			<path class="st0" d="M2498.2,207.8c0.8-0.8-1.8-3.5-5-3.8c-4.8-0.5-1.9,1.6,0.1,2.8c1.5,0,3,0,4.7,0
				C2498.4,207,2498.4,207.5,2498.2,207.8z"/>
			<path class="st0" d="M1002.7,112c0.1,0.4,0.2,0.7,0.3,1.1C1003.3,113.1,1002.7,112.1,1002.7,112z"/>
			<path class="st0" d="M2516.5,447.1c-3.4,1.5-12.6,4.9-3.5,6.3C2516.5,451,2520.2,449.6,2516.5,447.1z"/>
			<path class="st0" d="M2494,442.3c-0.8-0.3-1.6-0.6-2.4-0.9C2492,441.5,2492.9,442,2494,442.3z"/>
			<path class="st0" d="M2512.8,453.6c2.5,1.2,5,2.4,7.5,3.7C2518.9,456.2,2515,454.2,2512.8,453.6z"/>
			<path class="st0" d="M1718.4,690.3c9.8-0.3,13.7-1.8,24.6-1c11.2,0.8,21.8,1.7,33.3,2c16.6,0.5,29.8-1.1,44.8,0.7
				c-0.6,0.1-0.5,0.1,0.2,0c-3.3,1.2-6.7,2.4-10,3.6c6.6,0,13.1,0,19.7,0c0-2,3.3-5.3-5.1-4.7c0-1.3,5.4-4.7,12-4.3
				c-2.1,1.4-4,2.9-6.4,4.2c7.9,1,21.9-0.5,26.4,2.8c-6.4,0.5-13.6,0.7-19.7,1.5c-1.7,0.2-5.5,0.1-6.9,0.5c-2.7,0.8-8.6,7-5,7.7
				c4.8,0.9,12-5.6,18.9-6c7.2-0.5,25.7-0.1,27.5,2.9c6.7-1.1,8.3-3.6,15-4.7c7.6-1.3,16.8-0.2,24.8-1.6c1.8,0.2,3.5,0.4,5.3,0.7
				c-1.8-0.2-3.5-0.5-5.3-0.7c0,0,0.1,0,0.1,0c-15.4-2.5-4.4-3.5,7.5-3.8c11.5-0.3,33.5,1.4,42-2.1c1.1-0.4,2-1.1,2.2-1.7
				c0.8-2.2,1-0.5-3.7-2.1c-2.6-0.9-13.4-1.6-4.6-3.7c5.2-1.3,10.9,2,16.7,1.6c9.8-0.7,5.6-5.2,4.8-7.3c4.6,0,21.9-0.7,23.1,1.2
				c0.6,1-8.8,2.9-8.3,5c0.7,2.9,13.4,7.1,20.3,8.2c0.7-4,0.8-8.8,14.5-10.6c-6.3-2.6-7.7-2.5-2.1-5.4c3.4-1.8,9.3-5.4,15-3.4
				c3.8,1.3,2.5,5.7,3.1,7.5c3.6-0.7,15.4-1.2,16.1-2.8c1-2.1-9-2.1-4.7-4.3c2-1,4.8-1.4,8.1-1.5c-1.1-0.3-2.1-0.5-3.2-0.8
				c1.6,0,2.7,0.2,3.2,0.8c9.2-0.3,21.6,2.2,26.3,2.7c3.3,0.8,8.3,1.1,11.2,2c2.9,0.9,5.5,2.7,7.4,3c5.9,0.9,17.3-1.9,17.5,2.2
				c10-0.7,20.1-1.7,30.3-1.6c-4.6,3.9-4.4,5.2,9.2,5c17.8-0.3,17.5-0.5,17.5-5.7c0-1.4,0.4-3.1,0.7-4.7c2.9,3.2,9.7,3.1,20,3
				c7.6-0.1,13.4-0.3,20.6,0.5c1.5,0.2,2,1,3.2,1.2c3.6,0.4,10.8,0.2,14.7,0.1c9.3-0.2,18.2-1.4,27.6-1.5c6.4-0.1,13.1,1,17.3,0.5
				c11.7-1.5,27.4-14.1,43.3-10.6c-8.2,3.9-21,7.2-28.1,11.2c-7.4,4.2,3.6,2.2,10.5,0.5c23.4-5.8,47.9-9.2,73.1-13.9
				c-9.9-0.4,2.1-9.3,4-11.1c5.8-5.5,19.7-4.9,35.3-4.7c4.7-1.2,38.9-12.5,41.1-12c11.1,2.1-34.3,14.3-40.1,15.9
				c34.8-1.1-28.8,15.8-36.3,17.1c-16,2.7-34.4,3.9-48.8,7.7c-6.5,1.7-10.3,4.2-16.4,5.9c-7.4,2.1-19.9,3.3-28.3,4.7
				c23.4-0.9,43.4-4.7,63.7-8.6c9.2-1.8,15.9-3.2,26.3-3.2c7.5,0-0.5,1.2,9.3,0.3c4.8-0.4,10.6-2.6,14.3-3.6
				c17.7-4.7,36.1-9.1,53.8-13.9c9.5-2.6,18.9-5.2,27.4-8.1c10.5-3.6,11.7-7.3,13.8-12.2c0,0,0.1,0,0.2,0c1.2-2.4,2.4-4.9,3.2-7.3
				c-2.8-1.2-3-9.3,1.9-10.9c8.8-2.9,18.2,2.6,19.6,5.2c0.3-5.7,0.1-11.4-1.2-17.1c-0.8-0.2-3.7-0.9-3.6-0.9
				c-2.2,3.9-8.1,0.7-8.1-1.5c0-4.3,6.7-8.2,6.1-12.5c-0.3-2.3-6.3-7.2-3.3-9.3c1.9-1.3,7.1-1,9.1-2.2c1.3-0.8-0.1-3.3-0.2-4.1
				c-22.7,1-30.3,10.7-45.4,15.9c1.1-3.4-1-8.1,4.3-11.2c3.4-1.9,7.6-2.1,12-3.5c4-1.3,5.5-3.2,9.2-4.5c15.9-5.7,24.5-1.1,36.7,3
				c-0.4-2.8-4-6.5-0.5-9.2c3.6-2.8-3.7-4-8.8-6.3c-4.5,4.4-15.4,9.4-30.8,9.1c-7.3-0.1-13-1.7-20.4-1.8c-7.6,0-15.4,0.9-21.7,2.2
				c2.6-4.3,11.4-5.7,16.9-9.5c2.9-2,1-5.9,3.9-7.4c2-1.1,6.9-0.9,8.2-2c2.7-2.3-3.9-2.1-7.4-2.6c-6.3-0.9-4.5,1.5-6.9-1.2
				c-3.2-3.6,6.3-12.4,14.6-14.7c-18.4-3.6,2.4-3.6,1.4-7.6c-0.6-2.4-7.4-3.5-12.3-4.6c7.7-2.9,14.1-3.8,21.1,0.2
				c7.2,4-0.5,5.9-2,9.8c10.6-3.1,19-1.5,13.9-7c-2.1-2.3-3.8-6.1-7.2-8.2c-3.3-2-0.7-0.6-5-1.5c-1.4-0.3-4,0.4-5.8-0.1
				c-3-0.8-1.1-2.2-1.3-3.3c-0.4-2.7-0.3-4.4-4.3-6.8c-5.4-3.3-9.5-5.5,5.1-5.5c-0.8-2.5-1.6-5.1-2.4-7.6c-0.2-0.6,0.1-2.5-1-3.1
				c-2.8-1.4-17.1-1.6-11.2-4.4c3.9-1.9,15.6,0.8,22,0c10.1-1.4,5.8-6.5,3.6-9.4c-0.5,3.4-8.1,7.6-18.6,4.1
				c-8.8-3-2.9-10.9-2.3-14.6c3.9,3.1,7.5,5.7,13.6,8.4c1.7-6.8,14.6,1,18.4-2.9c2.1-2.1-9.2-4.4-11.9-6.2c-3.9-2.4-5.8-5.2-9.8-7.7
				c-3.3-2.1-7.1-4.4-12-6c-6.3-2.1-11.2-2.3-1.6-4.9c3.5-0.9,7.9-1.2,9.7-2.5c1.5-1.1-0.7-2.4,0-3.5c1.4-2.2,3-3.2,10.5-2.9
				c-4.5-2.3-7.4-3.9-5.1-6.4c2.8-3.2,8.5-5.3,9.5-8.8c0.8-3,0-6-0.3-9.1c-0.2-2.9,0.3-2.5-4.2-4.5c-3.2-1.4-8.1-2.7-11.5-4.1
				c4.2-0.1,10.3,0,13.9-0.9c5.7-1.3,3.4-0.3,3.1-2.6c-0.2-1.7-4.8-3.8-4.3-5.5c0.5-1.8,0.9-2.7,9.7-2.4c4.7,0.2,8.4,1.3,11.2,2.5
				c1.6-3.6-9.5-7-10.2-10.9c-0.5-2.3,0.7-4.6,1.4-6.8c1.5-4.6,3.1-9.1,4.6-13.7c-5.9,1.1-11,3.7-18,3.7c-5.6,0-13.9-2.3-17-3.8
				c-8.6-4-7.5-9.7-1.6-13.8c4.5,2.2,7.2,3,8,5.8c0.4,1.3-3.5,5.7,3.8,6.1c11.9,0.5,2.3-8.8,1.9-10.7c-0.6-2.9-4.2-10.9,1.1-13.7
				c6.4-3.4,7.2,1.6,13.3,3.1c2-2.7,3-5.7,1.5-8.5c-0.6-1.4-1.9-2.7-3.9-4c1.4-1,2.5-2,3.3-3.1c-1.9-2.5-4.7,0-10.3-0.3
				c1.2-2.1,2.6-5,4.2-6.6c-7.6-1.1-0.7-2.8-1.8-4c-0.5-0.6-4.6-0.9-5.5-1.5c-2.2-1.4,0.1-1.9-1.2-3.3c-2.2-2.3-7-4.6-15.2-3.4
				c-5.9,0.9-3.6,1.6-2.7,4c-3-0.4-6-0.8-9-1.1c4.8-2.5,6.2-6.7,13-8.4c3.1-0.8,13-0.6,14.8-1.3c2.8-1.1-1.8-8.8-2-10.2
				c-2-11.7,2.5-23.2,2.3-34.8c-5.3,1.2-9.7,2.2-13.9,3.8c-1-2.3-1.8-4.6-3.3-6.8c-1.8-2.6-4-2.6,2.3-4c6.9-1.5,10,0,14.2-3.3
				c4.7-3.7,3.5-8.5,3.6-12.5c0.1-2.4,0.3-4.8-0.2-7.2c0.1,0.4-1.1-2-2.3-3.7c-1-0.1-2.1-0.3-3.2-0.4c-3,2.5-6.3,5-9.3,7.5
				c-1.3-2.3-1.7-5.5-5-7.6c-1.3-0.9-2.4-1.4-3.4-1.8c-3.3-0.2-6.5-0.3-9.6-0.1c-9.1,0.5-19,5.6-28.2,1.2c-4-1.9-1.8-10.7-6.3-12.1
				c-5.6-1.7-6.8,2.6-12.6,2.5c-13.1-0.3-23.6-9.4-34.6-0.7c-3.5-2.1-4-4.8-1.4-8c0.1-1.4,0.3-2.8,0.4-4.2c5.1,1.1,7.2-0.4,11.9-0.7
				c7.9-0.5,15.4,3,23.1,4c19,2.5,40.4,5.3,60.4,7.1c-4.4-2.9-5.3-9.3-5.9-10.5c-2.9-5.8-1.7-12.1-9.7-17.5c-2.9-2-6.8-3.7-11.1-5.3
				c-2.1-0.8-4.8-1.9-7.5-2.4c-1.3-0.3-5.6-0.6-5.8-0.6c-9.6-2.6-14.4-10-4.4-13.4c-8.5-1.2-19.2-1.8-27.2-3.3
				c-7.5-1.4-12.9-4.8-19-7c-11.9-4.4-27.3-7.4-39.1-11.7c9.2,0.8,51.5,11.1,57.6,9.1c11.7-3.7-31-10.1-37.3-10.9
				c-11.5-1.4-34.4-1.7-43.2-4.8c-5.6-2-5-4.1-12.6-5.9c-9.6-2.3-19.9-3.6-31.7-3.1c0.9,0.2-2-0.2-4.2-0.5c1.4,0.1,3,0.3,4.2,0.4
				c0.2-2.3,3-6.5-3.2-7.9c-5-1.2-11.9-0.1-17.3,0.3c7,1.5,7.2,2.4,8.7,5.2c-0.5-0.2-0.5-0.2,0,0c-25.1-2.2-51.3-5.8-75.2-1.8
				c-19.3,3.2-38-0.2-58.2-1.9c9.9-0.9,35.4,0.9,35.3-4c-0.1-4.1-12.8-4.9-21.8-4.9c-5.7,0-13.1-0.4-18.7,0.1
				c-6.3,0.5-11.2,2.7-16.9,0c0.5,0,1-0.1,1.4-0.1c-2.7,0.1-17.7-0.5-18.2-2c-0.6-1.7,19.5-2.3,10.7-5.1c-4.2-1.4-45.3-0.4-42.7,2.1
				c-4.2-0.4-21.1-1.1-20.9-3.2c0.1-1.5,12.3-3.4,15.7-4.1c-11.6,0.3-28.1,1.8-36.9-1c2.6-0.2,4.8-0.6,6.7-1.2
				c-0.8,0.5-32.8-0.6-36.7-0.9c-11.9-0.9-22.1-4.5-32.2-2.2c-5.5,1.2-2.7,2.3-9.4,1.1c-4.1-0.7-6-3.3-11.2-4.2
				c-14.9-2.7-36.4-2.5-52.8-3.3c1.3,3.1-10.4,2.3-15.8,2.6c-8.1,0.4-10.3,1.8-13.5-0.5c-1-0.7,1.9-2.1,0.1-3.2
				c-3.1-1.8-7-1.2-12.6-1c-12.3,0.6-10.9,2.2-19.8,4.3c-5.5,1.3-12.3,1.7-17.9,3c-10,2.5-13.5,4.3-27.2,4.3c-8.9,0-25-1.8-33.3-0.6
				c-9.5,1.4-2.3,3.4-0.7,6.5c0.8,1.6,1.1,2.6-0.4,4.1c-1.4,1.4-6.5,2-4.2,3.6c1.2,0.9,14.9,3,17.8,2.6c6-0.9,2.1-3.2,11.1-4.1
				c6.4-0.6,24.2-0.4,26.8,2.3c3.7,3.8-7.7,1.6-12,2.1c-5.6,0.7-7.8,3.1-16.9,3.9c-10.5,1-40,4.4-33.2-2.4c-6,0.5-14.5,1.8-20.6,1.7
				c-7-0.1-7.4-1.9-12-2.3c-7.1-0.6-21.5,1.2-18,4.3c2.7-1,5.9-1.4,8.2-0.3c-11.1,0.4-20.7,8.5-27.2,11.4c5,0.3,9.7,0.8,14.5,1.3
				c-6.9,1.5-35.3,4.2-40.8,0.8c-2.2-1.4,6.2-2,0.2-3.9c-3.1-1-12.2-0.7-16-0.8c1.6-1.3,2.4-3.1,5.9-3.4c-0.5-0.1-1.6-0.1-2.1-0.1
				c0.3-1.2,6.8-1.4,5.7-2.7c-1.9-2.4-12.3,0.9-15.9,1.3c-8.6,1-14.7-1.1-22.3-0.6c-3.5,0.2-8.6,2.4-10.3,2.3
				c-4.3-0.1-9.1-4.4-12.7-5.2c-2.6-0.6-7.2-0.8-10-1.1c-11.9-1.4-17.6,0.6-25.6-3.6c6.3,0.8,11.2,2.1,15.7,1c2.2-0.6,4.8-2.7,4-3.6
				c-0.6-0.7-2.5-1.3-4.3-1.6c-5.9-1.2-5,0.1-10.3,0.8c-14.2,1.7-24.6-0.6-38.3-2.2c-7.9-0.9-15.9-1.7-24.1-2.3
				c-10.8-0.7-10.6-1.6-17.6-4.6c-4.5,1.4-9.7,4.6-15.2,5.5c-5.7,0.9-13.8-0.1-18.5-0.1c-4.8,0-9.8,0.4-14.5,0.6
				c-1.7,0.1-7.1,0.5-8.8,0.4c-7.8-0.8,8.8,0.6-3.5-1.1c-17.2-2.3-39.7-1-60.2-1.3c-11-0.1-45-2.6-31.7,3.6c-2.5,0.4-5,0.8-7.5,1.2
				c-2.4,0.3-4.6,0.1-6.5-0.7c-3.9,0.2-4.2-1.1-6.5,0.3c-0.6,0.4,0.3,1.8,0.5,2.3c0.9,0.7,2.1,1.4,3.5,2c0.3,1.4,0.2,2.9-0.1,4.3
				c-20.8-1.2-7.3,3.8-18.8,5c-7,0.8-16-2.5-18.7-4.4c-4-2.8-0.5-5.2,1.3-8.1c-17.5,3.5-35.3,11.2-57.1,6.5c-3-0.7-5.8-1.5-8.3-2.4
				c-2,0.6-4,1.1-6.1,1.7c-4.9,0.4-9.4,0.9-14.6,1.1c-8.2,0.4-20.4,1.9-28.4,1.1c-3.6-0.4-5-1.1-8-1.7c-7-1.4-1.2-2-11.5-1.6
				c-3.5,0.1-8,0.9-12.5,1.7c0.8,2.3,1.7,7.1-2.9,5.1c-2.1-1.6-2.3-3.1-0.6-4.6c-4.1,0.7-8.2,1.1-11.5,1c1.9,2.6-0.2,5.4-4.3,7.2
				c0.4-2.5,0.9-5,1.5-7.5c-5.7-1.1-3.1-3.8-6.8-5c-3.4-1.1-12.6-1.7-17-2.3c-1.1,5.2-10.7,9.5-21.9,12.8
				c-12.2,3.6-25.7,3.6-40.7,4.8c5-1.5,13.2-3.5,20.4-5.7c0.4,0.2,1.4,0.6,2.3,0.8c-0.8-0.3-1.5-0.5-2.3-0.8
				c7.9-2.4,14.7-5.1,14.6-7.6c-9.7,1.5-16.4,4.4-26.1,5.8c-4,0.6-11.7,0.3-15,0.9c-2.2,0.4-5.8,2.7-9.2,3.4
				c-18.6,3.9-27.9,11.3-51,6.6c3.1-0.8,12.6-2,14.6-2.8c3.9-1.5,2-0.5-0.2-2.2c-4.3-3.2-11.7-5.1,4.9-6.6
				c-1.2-2.2-8.8-0.8-12.7-0.9c-4.9-0.2-10.1-1.2-15.1-1.7c3,2.7,3.3,3-3.3,4.9c7.8,0.6,14.3,1.9,5,4c-0.3,1.4-4.1,5.3-10.4,5.8
				c-8.4,0.5-17.3-4-27.8-3.3c2.8,1.2,11.4,1.3,12.9,2.7c1.5,1.4-9.5,2.4-10.2,2.7c-2.4,1.2,3.6,2.9-4.1,2.3
				c-5.8-0.5-6.4-3.8-10.7-4.9c-6.4-1.8-24.5-1.4-31.5-0.4c-3.3,0.5-5.6,2.5-9,2.7c-4.4,0.3-12.5-2.9-16.2-4.2
				c-4.7,3.6,5,5.4,11.9,8.2c-10.8-1-18.4-2.4-28-4.5c-10.8-0.7-24.2-0.9-36.2-0.1c-9.4,0.7-21,3.6-29.4,3.1
				c-7.6-0.4-21-2.9-26.9-4.3c-4,1.8-7.1,3.2-10.5,4.3c0.6-2.2,1.9-3.7,10-4.2c-19.1-4.7-22.3,1.3-36.5,3
				c-10.1,1.2-32.4,4.4-42.4,1.8c-11.8-3,9.4-0.6,11.1-3.5c-8.6,0-13.7,0.8-11.5-1.8c0.9-1.1,12-4.6-3.3-4.3
				c-5.2,0.1-15.2,3.6-21.4,4.3c-6.8,0.8-12,0.8-18.9,0.1c-20.6-2.2-37.2-6.8-59.3-7.6c-11.2-0.4-21.1,0.2-32,1
				c-11.8,0.8-14.8,0.4-24.7-1.4c-9.7-1.8-14.6-1.1-21.7,1.5c-1,0.7-1.4,1.4-1.2,2.2c-2.3,0.1-4.5,0.1-6.8,0.2
				c-5.3,0.6-14.1,0.7-19.7,0.9c-10.1,0.3-14.7,0.2-22.9,2.1c-9.6,2.1-13.8,3.9-26.1,4c-10.1,0.1-21.2-1.1-30,1.3
				c-10.6,2.9,2.4,1,7.1,1.4c21.7,1.6-13.1,8-18,9.3c5.9,0.5,14.1,1.1,18.2,2.8c-10.3,0.8-30,5.5-35.1-0.1c-8.8,6-2.9,14.4-14,19.7
				c-5.7-2.6-24.2-0.5-30.1,1.2c-2.8,0.8-7.6,1.5-1.8,3.1c4.4,1.2,9.9,0.4,14.3-0.4c2.9,4.3-0.6,3.8-6.9,7.5c-5.1,3-2.1,5.6-8.1,8.5
				c-1.8,0.3-3.6,0.7-5.5,1c0,1.4,0.3,2.7,0.7,4.1c0.4,1.3,0.9,2.7,1.3,4c-1.9,0.4-3.8,0.8-5.5,1.3c-5.4,3.7,2.5,6.8,7,10.7
				c-5.1-0.9-9.3-1.8-13.3-2.9c-2.5,1.4-5.9,2.4-9.8,3.2c3,6.1,5.1,13.7-5.6,13.6l0,0c-0.6-0.1-3.5-0.4-3.9-0.5
				c-3.1-1.1-9-2.4-9-3.8c-0.3,0.1-0.5,0.3-0.7,0.4c-6.7-1.7-1.5,3.3-0.3,4.1c2,1.3,5.3,1.9,7.7,3c3.8,1.8,10.9,4.5,4.9,6.9
				c-7.5,3-8.2-3.3-12.7,0.3c-2.1,1.7,1.4,4.9,1.1,6.8c-0.5,2.6-2.9,4.3-6.9,6.5c-1.8-3.7-4-7.3-6.3-10.9c-4.2,3.3-6.9,5.6-5.6,9.2
				c0.8,2.4,4.9,6,2.5,8.4c-1.7,1.7-3.3,1.8-7.2,2.9c-1.8,0.5-6.6,0.9-7.6,1.8c-1.3,1,6.4,5.6,7.6,6.5c0,0,6.4-6.2,8.7-6
				c8.2,0.4,6.7,8.6,5.9,10c-1.9,3.1-7.5,6.2-6.9,9.5c0.3,1.8,5.2,1.6,3.5,3.8c-1.2,1.5-4.4,2.2-8.7,2.1c6.1,4.1,12.7,8.3,16.4,12.7
				c4.1,4.9,3.4,10.1,4.1,15.2c8.7-2,15.2-4.5,21.2-0.5c-4.7,0.2-6.6,0.4-10.2-0.6c-1.4,1.6-2.1,4.1-3.3,6.1c-0.3-0.2-0.6-0.4-1-0.6
				c-2.5-1.2-7.8-0.8-13.8-0.8c2.3-1.1,5.2-2.5,6.7-3.6c-4.6,2.2-8.4,4.2-13.5,6.3c3.3,0.6,15.1,1.4,20.1,0.6
				c-0.3,0.3-0.7,0.6-1.1,0.9c-3.6,2.2-25.7,8.4-5.6,8.4c9.9,0,12.2-3.1,16.2-5.5c2.5,3.7,3.3,5.3-0.2,8.7
				c-3.7,3.6-0.4,7.1-4.9,10.4c-1-0.4-2-0.8-3.1-1.3c4.5,2.2,13.2,5.1,10.4,8.1c-0.8,0.8-4.3,1.4-5.6,2.3c-1.8,1.3-1.5,3-1.8,4.3
				c-0.5,2.2,0.7,6.2-6.2,7.5c-0.4,0-0.5,0-0.5,0c-0.5,0-3.3,0.1-3.8,0.1c-2.4-0.6-4.8-1.2-7.2-1.8c-0.9,0.8-3.2,1.4-4.1,2.2
				c-1.1-1.8-5.1-3.1-9.9-3.8c4.2,3.5-0.2,6.1-1,9.3c-0.7,2.9,4.5,5.6,7.9,8.3c-5.8-1.7-13.1-3.5-17.3-5.5
				c-5.3,1.6-16.3,3.7-13.3,6.2c0.8,0.6,12.3,2.2,8.5,4.1c-3.7,1.8-9.3-0.1-14.3,0.3c-12.3,0.9-8,6.6-3.7,8.7c2.2,1,4.7,0.9,6.6,2.5
				c1.5,1.2,0.6,3.5,1.6,4.9c1.3,1.8,3.6,3.5,5.1,5.3c4.7-1.5,25.8-11.7,30.4-5.4c1.2,1.6-4.9,2.8-6.7,4.2c-2.6,1.9-2.8,4.5-3.3,6.6
				c0.7-1.6-17.5-3.5-14.3,3.4c-12.2-0.2-16.7-5.9-22.2-9.3c-1.1,2.6-7.4,8.7-3.1,11.1c5.2,2.9,9.3-0.5,15.1,1.5
				c5.2,1.8-2,4.3-5.3,5.4c-10,3.4-11.7,3.2-24.2,1.8c-4.2,4.6-7.1,8.2,4,11.8c4.6,1.5,13.2,2.1,16.5,3.9c2.7,1.5,1.9,7.3,0.1,8.7
				c-2.1,1.7-3.9,1-5.7,3c-0.8,0.9-1,3.1,0.2,3.8c4.8,2.8,8.6,0.6,12.4-1c6.1-2.6,11.2-5.6,20.4-7c2.8,5.5-8.3,11.4-13.4,16.7
				c9.9,0.5,11.2,0.8,17.4,2.8c0.4,0.1,9,3.2,8.8,3.1c1.5,1.6-1.1,1.8-1.2,3.3c-0.1,1.5-0.8,0.5-0.3,2.1c0.3,1.1,3.1,2.2,3.6,3.4
				c1.3,2.6,0.1,3.5-6.5,5.1c-12.9,3-16.3-0.2-28.4-0.6c-6.5-0.2-11.7,0.9-7.2,2.6c-0.9-0.3,12.9,1,14.2,1.3
				c9.7,2.2,13.1,3.3,25.4,1.5c-0.1,2.3,1,4.1-3,5.6c-3.3,1.3-11.8,1.4-13.2,3.4c-1.8,2.6,5.3,3.9,9.7,5.1c5.8,1.6,14.1,3.6,2.8,5.5
				c-8.5,1.4-16-2.6-14.6,1.9c1.2,1,2.4,1.9,3.6,2.9c-0.8,0.2-1.6,0.4-2.3,0.6c-1.2,0.3-2.5,0.7-3.7,1c-2,0.3-1.8,0.8,0.5,1.5
				c-0.2,0.4-0.3,0.9-0.4,1.3c5,0.2,9.3,0.5,11.8,0.3c-1,1.6-1.9,3.2-2.8,4.8c-2.2,0.3-4.1,0.5-6.1,0.7c1.3,1.1,2.9,2.2,4.8,2.9
				c8.8,3.4,7.3,1.2,9.2-1.6c3.8-5.7,13.4-3.5,24.6-1.2c-4.7,1.8-9.4,3.5-14.1,5.3c-6.9,2.4-1,3.7,6.5,4c4.7,0.2,6.7-1,10.2,1
				c1.4,0.8-1.9,5-2.9,5.7c-11,7.3-14.8-3.6-28.8-1.6c-10.3,1.5-2.1,5-0.1,6.9c3.7,3.5,0.8,8.1,0.8,11.9c0,6.2,10.1,15.1-6.5,20
				c-0.8,0.1-4.1,0.3-3.6,0.3c-6.2-2.6-8.6-7.4-17.6-3.8c-3.3,1.4-9.8,6.8-10.5,8.6c-1.5,4.2,4.3,10.8,6.8,15c2,3.3,3.1,5.3,2,7.9
				c-1.6,0.1-3,0.4-4.2,0.7c1.4-0.2,2.8-0.4,4.2-0.6c-0.3,0.6-0.7,1.3-1.2,2c-2.6,3.4-10.9,11.6-6.2,14.9c7,4.9,5.8-1.2,14.4-1.3
				c8.4,0,6.6,6.5,8.3,8.7c5.9-1.7,6.8-3.7,6.9-6.4c0.1-1.9-3.8-5.5-1.5-7.2c3.4-2.4,5.6-0.7,11.3-1.7c-0.4,0.2-0.1,0.2,0.2,0.3
				c-0.4-0.7,2.4-1.8,3.5-2.5c1,4.5,7.1,8.3,10.3,12.7c-2-0.1-10.7-0.3-10.9-0.8c-4.6,2.6,3.5,9,10.1,10.5c-0.8-1.4-2.4-3.5,1.3-4.6
				c1.4-0.4,5.5,0.1,6.2-0.2c5.4-2.1,2.8-5.5,1.6-8.9c12.1,5.4,32,13.4,28.7,20.8c-0.4,0.8-2.8,2.2-3.5,3.2
				c-2.4,3.8,1.5,8.3,3.7,12.1c-0.6-0.2-1.1-0.3-1.7-0.5c0.3,0.1,1.7,0.6,1.8,0.7c8.1,0.7,17.7,3.2,24.6,5.3
				c3.4,1.1,17.2,7,24.6,5.4c6.7-1.5-7.4-5.4-12.1-6.4c-7.9-1.5-14.7-1.2-10.2-4.7c2.9-2.3,14.1-5.4,19.6-2.6
				c3.8,1.9-1.6,4.2,3.8,6.3c7.2,2.8,31.9,2.1,28-3c3.1,0.8,17.7,2.9,16.8,4.9c-1.1,2.5-14.4,1.5-15.8,3.6c-1.8,2.7,15.3,1.6,18.7,3
				c3.3,1.4-0.4,1.2,0.4,2.7c0.9,1.6,2.9,2.8,4.9,4.4c5.3-1.3,7.4-1.9,10.4-3.6c2.6-1.6-0.9-2,5-3.2c9-1.7,25.8,0.5,28.6,3.5
				c-16.4-1.9-14.4-0.4-21.3,3.1c13.9,0.8,28.4,0.8,42.4,1.1c-13.2,4.9-23.4,5.7-2.5,9.9c-1-7,21.9-7,36.6-6.5
				c11.1,0.4,24.5,0.6,35.2,1.7c8.2,0.8,7.4,1,10.2,3.9c0,0,0,0,0,0c1.8,0.3,4.4,0.9,5.8,1.4c-2.4,0-4.9,0-7.2-0.1
				c0.5-0.4,0.9-0.8,1.4-1.2c-0.2,0.1-1.3,1.1-1.6,1.3c16.9,1,34.8-2,52-1.4c13.5,0.4,26.9,0.8,40.3,0.7c18.7-0.2,31.1,1.3,47.2,4.1
				c-3.3-4-8.8-6.6-15.6-10c7.4,0.2,13.8,1.7,21,2c10.1,0.5,11.6-2.3,20-2.5c5.7-0.2,6.8,1.4,9.6,2.8c0.2,0,0.4,0,0.7,0
				c6.6,1.8,16,4.2,24.8,3.2c6.9-0.8,16-6.3,21.2-4.4c-1.7,0-4.1,0-5.2,0c1.7,0,3.5,0,5.2,0c0.1,0,0.1,0,0.2,0
				c6-0.4,16.4,0.3,19.7-2c-1.9,2-6.8,3.6-4.9,5.2c1.6,1.4,11.6,4,14.7,5.2c0.4-1.2,0.9-2.4,1.3-3.5c5.4,0.3,17.1-0.9,21.1,0.7
				c5.9,2.4-3.3,3.5,9.5,4.8c11.1,1.1,30.6-4.8,35.8,0.6c1.6-0.2,0.8-0.1,0.8-0.2c16.5-0.2,31.6-2.1,48.3-1.3
				c8.8,0.4,17.9,1.7,26.7,1.8c3.9,0,23.2,0.1,25.4-0.9c-0.1,0.1-8.6-3.3-9.5-4c11.8,0,23.4,0.8,34.9,1.2c11.3,0.3,28-0.5,38,1.3
				c1.3,0.2,1.9,0.5,2,1c-1.8,1.2-0.3,1.7,4.3,1.5c3.6,0.8,10,1.2,14,1.7c16.1,2,23.1-0.3,37.1-3.4c5.9,0.1,12.7,0.4,19.1,1.9
				c-2.2-3.5-15.1-4.9-23.9-6.6c0,1.4-1,2.9,1.2,3.9c-0.9-0.2-1.6-0.4-1.2-0.3c-4.9-0.9-9.7-1.7-14.6-2.6c6.7-0.5,15.7-2.1,21.8-2.3
				c9.6-0.3,29.3,5.1,31.7-0.1c0.3,3.8,13.6,0.7,12.1,3.6c-10.4,0.1-13,1.5-8.9,4.8c6.9,5.5,25.4,1.4,37.6,4c4.8,1,3.1,1.4,8.8,2.2
				c4.9,0.6,11.3,0.7,16.5,1c15.5,0.9,15.4,0.8,23.1-3.6c2-1.2,5.4-2,7.1-3.3c1.1-0.8,1-2.8,2.4-3.3c3.5-1.4,9-1.5,14.3-0.8
				c2.6,0.3,0.9,1.3,3.1,1.7c4.6,0.7,9.7,0.8,14.6,0.9c8.7,0.3,16.3,1,24.6,1.5c8.3,0.5,3.3,0.7,11.7-1.2c4.1-0.9,6.9-1.1,11.6-1.6
				c9.9-1,14.7-2,23-3.9c7.5-1.7,16.5-1.5,26-1.7c-4.5,1.3-25.4,4.4-24.1,6.7c4.9,0,13.4-0.6,16.1,0.3c2.3-2.1,26.2-4.5,34.2-3.7
				c8.2,0.9,5.9,2.3,9.1,4.4c4.1,2.7,7.3,2.4,14.3,3.8c3.1,0.6,8.5,2.3,10.9,2.4c3.6,0.1,6.2-1.6,10.2-2.1c2-0.3,16.5-1.5,18.2-1.4
				c3,0.2,7.1,1.7,9.7,2.4c-2.4-3.7,8.7-4.5,16.7-5.2c10.7-0.9,12.8-0.9,19.7,2.2c11.4-4.4,10.2-9.5,10.5-15
				c4.1,0.2,1.3,1.3,1.4,2.5c0.2,3.6-2.9,2,4.1,4.3c2.6,0.9,8.4,1.2,8.8,2.8c0.2,0.7-7,0.6-5,1.8c2.3,1.5,13.4,1.6,17.8,1.8
				c15.7,0.7,34.4,1,50.1,0c8.6-0.6,7.2-1.5,11.9-2.9c-1.1-0.9-0.1-1.3,3-1.2c3.1-0.3,6.3-0.6,9.5-0.9c4.9-0.4,8.4-0.6,13.5-0.5
				c-1.5,1-8.3,2.5-7.9,3.5c0.4,0.8,5.6,0.8,6.7,1.3c2.9,1.2,3.4,1.7,5.4,3.2c7.7-1.3,30.5-6.7,38.6-4.7c10.4,2.5-5.8,4.9-11,6
				c10.6,0.7,22.3-0.2,32.5,1.4c9.7,1.5,11.9,5.6,23.4,5c-1.5-1-1.9-1.7-1.2-2.7c6.2,1.1,18.8,4.2,26.2,3.4c11.9-1.2-3.9-2.4-2-4.8
				C1688.9,685.4,1710.5,690.6,1718.4,690.3z M2459.6,280.8c-2.8-0.1-5.6-0.4-8.4-0.6C2454.1,278.7,2456.9,278.1,2459.6,280.8z
				 M2415.2,365.8c15.6,0,31.3,3.8,46.9,5.2c-3.3,4.8-68.8-2-76.1-2.5C2391.2,365.2,2408.3,365.8,2415.2,365.8z M2358.1,191.9
				c7.6-3.7,8.4,4.1,9.6,8.6C2357.4,201.7,2342.2,199.6,2358.1,191.9z M2327.6,189.9c2.2-8.6,2.1-14,11-6.4
				c15.5,13.2-1.7,13.7-13.9,19.3C2325.5,198.5,2326.5,194.2,2327.6,189.9z M2306.6,195.6c1.2-8.1,10-15.9,13.6-1.9
				c2.9,11-5.9,14.4-11.7,23.8C2307.3,210.6,2305.5,202.5,2306.6,195.6z M2301.7,197.9c0.8-1.8,1.7-3.7,2.5-5.5
				c-1.3,3.4-2.7,6.8-4.1,10.2C2300.7,201,2301.2,199.5,2301.7,197.9z M2285.1,180.7c7.3,5.2,7.9,8.7,7.9,15.6
				C2285.4,193,2281.7,188.4,2285.1,180.7z M2284.5,209.5c2.7,1.4,3.3,5.2,3.8,6.9c-1.5-0.1-3.1-0.2-4.7-0.4
				C2284.1,213.8,2284.4,211.7,2284.5,209.5z M2245.8,294.7c0.4,1.9,0.8,3.7,1.3,5.6C2245.2,298.4,2244.7,296.6,2245.8,294.7z
				 M2209.4,194.1c2.6-0.4,6,8.9,13.4,8.3c13.8-1.1,16.6-14.5,13.3-20.9c-4.4-8.6-14.1-7.4-16.3-14.5c6.7,1.7,10.2,7.5,16.3,8.9
				c11.3,2.5,15.7-9.1,19.9-8.1c4.6,1.1,1.7,27.8,0.3,31c-8.1,18.2-27.4,6.6-48.2,3.2C2205.9,199,2206.3,196.4,2209.4,194.1z
				 M2149.8,424.5c-0.3-1.3,9.1-12.5,10.7-7.5c1.2,3.8,3.1,8.1,6.6,11.4C2158.3,431.3,2150.9,429.2,2149.8,424.5z M2162,180.1
				c2-1.7,6.6,5.1,6.6,5.6c0.1,1-5.6,2.1-6.3,3.3c-0.8,1.5-10,13.2-10.3,13.1C2140.1,195.3,2157.1,184.2,2162,180.1z M2127.6,417.6
				c3.6-1.2,7.8,2.8,8.5,4.6c1,2.5-5.1,3.8-8,6.3C2125.1,424.8,2124.9,421.2,2127.6,417.6z M2126.6,451.5c-1.7-0.7-3.3-1.4-5-2
				C2122.1,448.6,2125.9,450.9,2126.6,451.5z M2103,425.1c-0.1,2.3-0.1,4.5-0.1,6.8c-8.2-2.9-6.2-4.3-7.8-10.2
				C2097.7,422.9,2100.4,424,2103,425.1z M2035.4,179.9c3.1-0.2-4,7.7-5.5,8.4C2030.1,187.3,2031,180.2,2035.4,179.9z M1932.2,182.3
				c1,1.8,0.6,3.4-1.2,4.8C1927.3,184.1,1927.7,182.5,1932.2,182.3z M1842.1,410.2c1.2-5.1,22.4-12.2,29.3-6.5
				c-4.4,3-7.5,6.9-9.8,10.6C1856.6,422.1,1839.9,419.5,1842.1,410.2z M248.5,510.1c-1.2,6.6-19.5-0.2-22.6-2.7
				c7.7-0.6,15.5-0.9,23.4-1C249,507.7,248.8,508.9,248.5,510.1z M257.2,511.3c-0.7-1.6-1.4-3.1-2.2-4.7c7.5,0.1,11.3,0.3,17.2,3.8
				C267.3,510.7,262.3,511,257.2,511.3z M332.2,352c1.1-1,2.1-2,3.2-3C339,352.6,337.9,353.6,332.2,352z M373.8,397.5
				c-5.7,5.3,3.1,5.1-12.4,3.2c-2.6-0.3-9.5-3.8-9.3-2.8c-30.5-9.9-6.1-29.3,16.8-20.7C377.6,380.5,379.3,392.5,373.8,397.5z
				 M483.3,289.9c-2.6,0-5.5,0.8-8,1.1C477.5,288,479.1,288.9,483.3,289.9z M432,284.9c5.3,9.7-17.9,14.1-26.7,16.1
				c-1.3-7.9-6.1-15-11.6-22.2C402.1,277.8,427.6,277,432,284.9z M429.7,331.5c-8.8-0.2-17.5,0.4-26.3,0.3c1.5-5.4-1.2-14.4,11-13.7
				C423.5,318.5,427.6,327.1,429.7,331.5z M398.4,396.8c-0.8,0-3.8-21.9,15.2-9.9C426.8,395.2,406.7,397,398.4,396.8z M459.5,354.9
				c-20.7,0-35.3,1.8-53.1-5.8c9.1,0.6,18.8,0.5,27.5-1c4.6-0.8,17.3-6.9,21.9-6.9c9.3,0.1,15.4,9.8,28.9,11.3
				C476.6,353.9,468.1,354.9,459.5,354.9z M587.6,341.5c-9.3-5.5-23.9-1.1-34.3-0.9c-10.2,0.2-21.1-1-31.4-1.6
				c-25.9-1.6-51.8-3.5-77.5-6.3c10.8-8.5,11.1-4.8,24.3-2.8c14.4,2.2,27,2.4,40.9-1.1c7.2-1.8,16.7-8.6,24.5-8.8
				c4.3-0.1,5,2.6,8.4,2.8c4.6,0.2,8.8,0.7,14.6,0.7c3.8,0,6.5-2.3,10.9-1.7c4,0.6,6.8,5.2,10.2,5.6c13.4,1.7,10.3-4,19.9-7.5
				c26.2-9.7,24.3,11.8,30.6,22.4C615,341.9,601.3,341.7,587.6,341.5z M654.3,343.4c-2.5-0.2-5.1-0.3-7.6-0.4
				C649.3,342.5,655.9,340.2,654.3,343.4z M674.1,580.6c-0.7,2.1-3.1,2.6-7,1.4C673.5,579.4,675.9,578.9,674.1,580.6z M662.4,344
				c-1.4-4.7,9.6-0.3,12.7,1.3C670.9,344.8,666.6,344.4,662.4,344z M756.9,575.6c-1.3,5-12.7,10.8-20.6,10.9
				c-10.5-3.5-13.7-2.4-23.7-2.6c-13.9-0.2-18.2-2-29.5-5.9c4.9-1.3,9.8-2.6,14.6-3.8c0.2,0.9,0.4,1.9,0.6,2.9
				c10.1-2.4,10.9,3.2,17.5,1.7c4.1-0.9,2.5-6.2,5.3-7.3c5.9-2.2,12.5-1.2,19.2-1.4C751.9,569.8,759,567.8,756.9,575.6z
				 M779.8,570.1c1.2,0.7,2.4,1.4,3.5,2.1c4.8,5.1,9.4,10.5,15,15.3C787.1,582.3,781.4,579.1,779.8,570.1z M810.7,132.3
				c0.5-0.8,0.9-1.6,1.4-2.4C812.5,131.5,813.5,132.3,810.7,132.3z M844,342.2c0.9-0.9,1.9-1.7,2.9-2.6
				C852.5,342,851.6,342.9,844,342.2z M849.1,132.9c1-2.7,2.9-2.4,4.9,0.1C852.4,133,850.8,133,849.1,132.9z M874.5,130.7
				c6.8-0.8,10.6,0.2,11.4,2.9C876.8,135.9,873,134.9,874.5,130.7z M925.9,350.2c-8.8-0.9-17.7-1.8-26.5-2.6
				C908,344.2,926.7,336.7,925.9,350.2z M1113.7,151c0.4,2.1,1,4.2,1.8,6.3c-1.7,0.3-4.4,0.1-7.4-0.6
				C1110.8,155.4,1113.7,151.1,1113.7,151z M1084.4,142.9c23.5-3.1,9.3,5.4,19,12.6C1092.5,152.1,1080.1,145.6,1084.4,142.9z
				 M1027.2,591.3c-7.7-0.7-12.7-16.4-5.3-17.4c1.7-0.2,3.5-0.4,5.2-0.6C1027.5,579.3,1027.5,585.3,1027.2,591.3z M1056.6,591.3
				c-5,2.7-14.1,1.1-22.8,0.5c-1.3-3.9-4.7-11.8-2.2-15.6c4.1-6.2,16.1-5.6,28.2-6.5C1059.6,573.4,1061.1,588.8,1056.6,591.3z
				 M1068.4,590.2c-1-4.4-4.9-18.6-1.1-21.1c5.9-3.9,21.1-1.5,25.2,2.7c3,3.2,6.8,6,11.3,8.4
				C1090.6,581.2,1079.3,586.1,1068.4,590.2z M1124.8,400.4c-6.8,2.2-13.9,1.7-19.3-2.4C1107.7,398.2,1128.6,399.1,1124.8,400.4z
				 M1264,382.2c1.4,0.3,2.7,0.5,4.1,0.7c-3.8,1-7,0.3-9.6-1.9C1260.3,381.4,1262.2,381.8,1264,382.2z M1225.2,391.4
				c-22.2,6.5-28.6-13.8-31.5-22.9c6.4,1.3,12.3,2,18.1-0.5c7.6-3.2,24.7-3.3,28.7,3.8C1242.3,375.2,1231.5,389.6,1225.2,391.4z
				 M1292.5,588.8c-15.7,1.3-41.6-3.9-57.2-8.3c6.1,0.8,25.2,1.2,27.4,1c16.2-1.3,31.8-5.8,47.9-7.8c9.4-1.1,22.5-2.5,28.7-2.4
				c16.8,0.3,23.3,0.6,27.8,11C1342.2,584.5,1317.3,586.6,1292.5,588.8z M1394,580c-3.9,1-9.3,0.8-13.5,1.2c1.6-3.7,1.9-8,8.2-9.5
				C1400.5,568.9,1407.6,578.8,1394,580z"/>
		</g>
	</g>
</g>
</svg>
