<?xml version="1.0" encoding="utf-8"?>
<!-- Generator: Adobe Illustrator 26.3.1, SVG Export Plug-In . SVG Version: 6.00 Build 0)  -->
<svg version="1.1" id="Laag_1" xmlns="http://www.w3.org/2000/svg" xmlns:xlink="http://www.w3.org/1999/xlink" x="0px" y="0px"
	 viewBox="0 0 1080 1080" style="enable-background:new 0 0 1080 1080;" xml:space="preserve">
<style type="text/css">
	.st0{fill:#F3F3F3;}
</style>
<g>
	
		<image style="overflow:visible;opacity:0.4;" width="1063" height="1062" xlink:href="E55A9650BADB6956.png"  transform="matrix(1 0 0 1 1 3)">
	</image>
	<g>
		<g>
			<path class="st0" d="M862.2,73.9L862.2,73.9L862.2,73.9C862.7,73.7,862.6,73.7,862.2,73.9z"/>
			<path class="st0" d="M690.3,78.1c-0.3-1,0.6-4.1,0.8-4.8c-2.1,0.8-5.1,1.1-5.5-2.7C680.5,76.1,687.6,75.2,690.3,78.1z"/>
			<path class="st0" d="M1027.4,813.7c1.5-4.4-1.5-6.4-3.5-10c-1.8,7-6.2,15-12.4,14.5c-2.9-0.2-5.2-2.8-8.2-2.8
				c-3.1,0-6.2,1.5-8.7,3.5c1.1-6.9,4.6-9,6.8-15.1c1.2-3.2,0.4-9.4,1.6-11.9c0.8-1.7,2.8-1.5,3.3-3.2c1.1-3.7-1.6-3.4-3-4.2
				c-2.5-1.4-1.8,2.4-2.8-1.9c-1.3-5.8,2.6-19.7,5.9-23.5c-7.4-5.7,1-5.8,0.6-12.1c-0.2-3.9-3-5.6-5-7.4c3.1-4.6,5.7-6,8.5,0.3
				c2.9,6.4-0.2,9.3-0.8,15.6c4.3-4.9,7.6-2.4,5.6-11.2c-0.8-3.6-1.5-9.8-2.9-13.1c-1.3-3.2-0.3-1-2-2.4c-0.6-0.5-1.6,0.6-2.3-0.1
				c-1.2-1.3-0.5-3.5-0.5-5.2c-0.2-4.4-0.1-6.9-1.7-10.8c-2.2-5.2-3.8-8.7,2.1-8.8c-0.3-4-0.6-8.1-1-12.1c-0.1-1,0.1-4-0.4-5
				c-1.1-2.3-6.9-2.5-4.5-7.1c1.6-3,6.3,1.3,8.9-0.1c4.1-2.2,2.3-10.4,1.4-14.9c-0.2,5.4-3.2,12.2-7.5,6.5
				c-3.5-4.7-1.2-17.3-0.9-23.2c1.6,4.9,3,9.1,5.5,13.4c0.7-10.9,5.9,1.5,7.4-4.7c0.8-3.4-3.7-7.1-4.8-9.9
				c-1.6-3.9-2.3-8.3-3.9-12.2c-1.3-3.3-2.9-6.9-4.8-9.6c-2.5-3.4-4.5-3.6-0.7-7.7c1.4-1.5,3.2-1.9,3.9-4c0.6-1.7-0.3-3.9,0-5.6
				c0.5-3.6,1.2-5.2,4.2-4.6c-1.8-3.7-3-6.2-2.1-10.1c1.1-5,3.4-8.4,3.8-14.1c0.3-4.8,0-9.6-0.1-14.4c-0.1-4.7,0.1-3.9-1.7-7.2
				c-1.3-2.3-3.2-4.3-4.6-6.6c1.7-0.2,4.1-0.1,5.6-1.4c2.3-2.1,1.4-0.5,1.2-4.1c-0.1-2.8-1.9-6-1.7-8.8c0.2-2.9,0.4-4.3,3.9-3.8
				c1.9,0.3,3.4,2.1,4.5,3.9c0,0,0,0,0,0c0.7-5.7-3.8-11.1-4.1-17.4c-0.2-3.6,0.3-7.3,0.6-10.9c0.6-7.3,1.2-14.6,1.9-21.8
				c-2.4,1.7-4.4,5.9-7.2,5.9c-2.3,0-5.6-3.7-6.9-6c-3.4-6.4-3-15.5-0.7-22c1.8,3.5,2.9,4.8,3.2,9.2c0.1,2-1.4,9.1,1.5,9.7
				c4.8,0.8,0.9-14,0.8-17c-0.3-4.6-1.7-17.4,0.4-21.8c2.6-5.4,2.9,2.6,5.3,4.9c0.8-4.3,1.2-9.1,0.6-13.5c-0.2-2.2-0.7-4.3-1.6-6.3
				c0.6-1.6,1-3.2,1.3-4.9c-0.8-4-1.9,0-4.1-0.6c0.5-3.3,1-7.9,1.7-10.5c-3.1-1.8-0.3-4.4-0.7-6.4c-0.2-0.9-1.8-1.5-2.2-2.4
				c-0.9-2.2,0.1-3.1-0.5-5.3c-0.9-3.6-2.8-7.3-6.1-5.4c-2.4,1.4-1.5,2.6-1.1,6.4c-1.2-0.6-2.4-1.2-3.6-1.8
				c1.9-4.1,2.5-10.6,5.2-13.4c1.3-1.3,5.2-0.9,6-2.1c1.1-1.8-0.7-14.1-0.8-16.3c-0.8-18.6,1-37,0.9-55.4c-2.1,1.9-3.9,3.6-5.6,6.1
				c-0.4-3.6-0.7-7.3-1.3-10.9c-0.7-4.2-1.6-4.1,0.9-6.3c2.8-2.4,4,0,5.7-5.2c1.9-5.9,1.4-13.6,1.4-19.8c0-3.8,0.1-7.7-0.1-11.4
				c0.1,0.9-1.2-9.4-1.7-8.1c-1.3,4.6-2.8,9.1-4.2,13.6c-0.5-3.7-0.7-8.8-2-12.2c-1.4-3.5-2.2-3.4-2.6-6.9c-0.8-9,7.1-3.2,6-11.8
				c-4.9,4.9-5.5-15.6-5.9-18.3c-1.2-9.3-0.7-19.3-3.9-27.9c-1.2-3.1-2.7-5.9-4.5-8.5c-0.9-1.2-1.9-3-3-3.9c-0.5-0.4-2.2-0.9-2.3-1
				c-3.9-4.1-5.8-15.9-1.8-21.4c-3.4-2-7.7-2.9-11-5.3c-3-2.3-5.2-7.6-7.6-11.1c-4.8-7-11-11.8-15.7-18.7
				c3.7,1.2,20.7,17.7,23.2,14.5c4.7-5.9-12.5-16.1-15-17.4c-4.6-2.3-13.9-2.8-17.4-7.7c-2.2-3.1-2-6.5-5.1-9.3
				c-3.8-3.6-8-5.7-12.7-4.9c0.5,0.4-2.3-1.1-2.7-1.4c0.7,0.6,1.9,0.8,2.7,1.2c0.1-3.7,1.2-10.4-1.3-12.6c-2-1.8-4.8-0.2-7,0.5
				c2.8,2.4,2.9,3.8,3.5,8.3c-0.2-0.3-0.2-0.3,0,0c-10.1-3.6-20.6-9.2-30.3-2.9c-7.7,5.1-15.3-0.4-23.4-3c4-1.4,14.2,1.4,14.2-6.4
				c0-6.5-5.2-7.7-8.8-7.7c-2.3,0-5.3-0.6-7.5,0.1c-2.6,0.8-4.5,4.4-6.8,0c0.2-0.1,0.4-0.1,0.6-0.2c-1.1,0.1-7.1-0.8-7.3-3.1
				c-0.2-2.8,7.9-3.7,4.3-8.2c-1.7-2.2-18.2-0.6-17.2,3.3c-1.7-0.6-8.5-1.8-8.4-5.1c0.1-2.3,5-5.4,6.3-6.5
				c-4.7,0.5-11.3,2.8-14.8-1.6c1-0.4,2-1,2.7-2c-0.3,0.8-13.2-1-14.8-1.5c-4.8-1.4-8.9-7.2-13-3.6c-2.2,1.9-1.1,3.7-3.8,1.8
				c-1.6-1.2-2.4-5.2-4.5-6.7c-6-4.2-14.7-4-21.2-5.2c0.5,5-4.2,3.7-6.4,4.2c-3.3,0.7-4.2,2.9-5.4-0.9c-0.4-1.1,0.8-3.3,0-5
				c-1.3-2.9-2.8-2-5.1-1.5c-4.9,1-4.4,3.5-8,6.8c-2.2,2-5,2.7-7.2,4.9c-4,3.9-5.4,6.8-10.9,6.8c-3.6,0-10.1-2.9-13.4-0.9
				c-3.8,2.2-0.9,5.4-0.3,10.3c0.3,2.5,0.4,4.1-0.2,6.5c-0.5,2.2-2.6,3.1-1.7,5.7c0.5,1.4,6,4.8,7.2,4.1c2.4-1.4,0.9-5.1,4.5-6.5
				c2.6-0.9,9.7-0.7,10.8,3.6c1.5,6.1-3.1,2.5-4.8,3.4c-2.3,1.1-3.2,4.9-6.8,6.2c-4.2,1.5-16.1,7-13.4-3.9c-2.4,0.8-5.8,2.8-8.3,2.7
				c-2.8-0.1-3-3-4.8-3.7c-2.9-1-8.6,1.9-7.2,6.8c1.1-1.6,2.4-2.2,3.3-0.5c-4.4,0.6-8.3,13.5-11,18.2c2,0.5,3.9,1.3,5.8,2.1
				c-2.8,2.4-14.2,6.8-16.4,1.2c-0.9-2.2,2.5-3.2,0.1-6.2c-1.2-1.5-4.9-1.1-6.5-1.3c0.6-2,1-4.9,2.4-5.4c-0.2-0.1-0.6-0.2-0.9-0.1
				c0.1-1.9,2.7-2.2,2.3-4.3c-0.8-3.7-4.9,1.4-6.4,2.1c-3.5,1.5-5.9-1.7-9-1c-1.4,0.3-3.5,3.8-4.1,3.7c-1.7-0.1-3.7-6.9-5.1-8.2
				c-1-0.9-2.9-1.3-4-1.8c-4.8-2.2-7.1,0.9-10.3-5.7c2.5,1.3,4.5,3.4,6.3,1.5c0.9-0.9,1.9-4.3,1.6-5.8c-0.3-1.1-1-2-1.7-2.6
				c-2.4-1.9-2,0.2-4.2,1.2c-5.7,2.8-9.9-0.9-15.4-3.5c-3.2-1.5-6.4-2.8-9.7-3.7c-4.4-1.2-4.3-2.6-7.1-7.3c-1.8,2.2-3.9,7.3-6.1,8.7
				c-2.3,1.5-5.5-0.2-7.5-0.2c-1.9,0-3.9,0.6-5.9,0.9c-0.7,0.1-2.9,0.9-3.5,0.6c-3.1-1.3,3.5,0.9-1.4-1.7c-6.9-3.7-16-1.6-24.2-2
				c-4.4-0.2-18.1-4.2-12.8,5.7c-1,0.6-2,1.2-3,1.8c-1,0.6-1.9,0.2-2.6-1.2c-1.6,0.4-1.7-1.8-2.6,0.5c-0.3,0.6,0.1,2.9,0.2,3.7
				c0.4,1.1,0.8,2.2,1.4,3.1c0.1,2.3,0.1,4.6,0,6.9c-8.4-2-3,6-7.6,8c-2.8,1.2-6.4-3.9-7.5-7c-1.6-4.5-0.2-8.3,0.5-12.8
				c-7,5.6-14.2,17.9-23,10.4c-1.2-1.1-2.3-2.4-3.3-3.8c-0.8,0.9-1.6,1.8-2.5,2.7c-2,0.7-3.8,1.4-5.9,1.8c-3.3,0.6-8.2,3-11.4,1.8
				c-1.5-0.6-2-1.8-3.2-2.7c-2.8-2.2-0.5-3.1-4.6-2.5c-3.3,0.5-8.8,6.8-11.9,4.9c-2.7-1.7-1.5-6.1-3-8.1c-1.4-1.7-5.1-2.7-6.8-3.6
				c-0.5,8.3-4.3,15.2-8.8,20.4c-4.9,5.7-10.3,5.7-16.4,7.7c4.2-4.9,14.1-13.5,14.1-21.2c-3.9,2.3-6.6,7-10.5,9.3
				c-1.6,0.9-4.7,0.5-6,1.5c-0.9,0.6-2.3,4.2-3.7,5.4c-7.5,6.3-11.2,18-20.5,10.5c1.3-1.2,5.1-3.2,5.9-4.4c1.6-2.3,0.8-0.8-0.1-3.4
				c-1.7-5.2-4.7-8.1,2-10.6c-0.5-3.5-3.5-1.2-5.1-1.5c-2-0.4-4.1-2-6.1-2.7c1.2,4.4,1.3,4.7-1.3,7.8c3.1,1,5.7,3,2,6.3
				c-0.1,2.3-1.6,8.5-4.2,9.2c-3.4,0.9-7-6.4-11.2-5.2c1.1,1.9,4.6,2.1,5.2,4.4c0.6,2.3-3.8,3.7-4.1,4.3c-1,1.9,1.5,4.6-1.7,3.6
				c-2.3-0.7-2.6-6-4.3-7.9c-2.6-2.8-9.9-2.3-12.7-0.7c-1.3,0.7-2.3,4-3.6,4.4c-1.8,0.5-5-4.6-6.5-6.6c-1.9,5.8,2,8.6,4.8,13
				c-4.4-1.7-7.4-3.8-11.3-7.1c-4.3-1.1-9.7-1.5-14.6-0.1c-3.8,1.1-8.4,5.7-11.8,5c-3.1-0.6-8.4-4.6-10.8-6.8
				c-4.3,7.7-5.9,10.9-14.4,9.8c4.6-4.8,4.2-3.9,10.1-2.1c0.2-4.1,0.6-6.7,4.1-7.6c-7.7-7.5-9,2.1-14.7,4.8c-4.1,1.9-13,7-17.1,2.9
				c-4.8-4.8,3.8-1,4.5-5.6c-3.5,0-5.5,1.2-4.6-2.9c0.4-1.7,4.8-7.4-1.3-6.9c-2.1,0.2-6.1,5.7-8.6,6.8c-2.8,1.3-4.8,1.3-7.6,0.1
				c-8.3-3.5-15-10.8-23.9-12.1c-4.5-0.6-8.5,0.4-12.9,1.6c-4.7,1.3-6,0.7-9.9-2.2c-3.9-2.8-5.9-1.8-8.7,2.4
				c-0.4,1.1-0.6,2.2-0.5,3.4c-0.9,0.1-1.8,0.2-2.7,0.3c-2.1,1-5.7,1.2-7.9,1.4c-4,0.4-5.9,0.4-9.2,3.3c-3.9,3.4-5.5,6.2-10.5,6.3
				c-4,0.1-8.5-1.7-12.1,2.1c-4.3,4.6,0.9,1.7,2.9,2.2c8.7,2.6-5.3,12.7-7.3,14.8c2.4,0.8,5.7,1.8,7.3,4.4
				c-4.2,1.3-12.1,8.8-14.1-0.1c-3.6,9.6-1.2,23-5.6,31.4c-2.3-4.2-9.7-0.9-12.1,2c-1.1,1.3-3.1,2.4-0.7,5c1.8,1.9,4,0.7,5.7-0.6
				c1.2,6.8-0.2,6-2.8,12c-2.1,4.8-0.8,9-3.3,13.5c-0.7,0.6-1.4,1.1-2.2,1.5c0,2.2,0.1,4.3,0.3,6.5c0.2,2.1,0.3,4.3,0.5,6.4
				c-0.8,0.6-1.5,1.3-2.2,2.1c-2.2,5.9,1,10.8,2.8,17c-4.2-3-7-6.2-10.9-10.9c0.4,4.1,6,33.4-0.7,33l0,0l0,0
				c-0.2-0.1-1.4-0.6-1.6-0.8c-1.8-2.5-5.7-5.6-2.2-8.7c-0.5,0.9-1.3,2.6-1.7,3.2c-2.7-2.7-0.6,5.3-0.1,6.5c0.8,2,2.1,3,3.1,4.7
				c1.5,2.8,4.4,7.2,2,11c-3,4.8-3.3-5.2-5.1,0.4c-0.9,2.7,0.6,7.9,0.4,10.8c-0.2,4.2-1.2,6.9-2.8,10.3c-0.7-5.8-1.6-11.6-2.5-17.4
				c-1.7,5.3-2.8,8.9-2.3,14.7c0.3,3.8,2,9.6,1,13.4c-0.7,2.6-1.3,2.9-2.9,4.6c-0.7,0.8-2.6,1.5-3,2.8c-0.5,1.7,2.6,8.9,3.1,10.3
				c0,0,2.6-9.8,3.5-9.6c3.3,0.6,2.7,13.7,2.4,15.9c-0.7,4.9-3,9.9-2.8,15.1c0.1,2.8,2.1,2.6,1.4,6c-0.5,2.3-1.8,3.5-3.5,3.3
				c2.5,6.6,5.1,13.2,6.6,20.3c1.6,7.9,1.4,16.1,1.7,24.2c3.5-3.2,6.1-7.1,8.5-0.9c-1.9,0.3-2.7,0.7-4.1-0.9c-0.9,4-1,10.9-2.4,14.2
				c-1.4,3.5-10.3,13.4-2.2,13.3c4,0,4.9-4.9,6.5-8.8c1,5.8,1.3,8.4-0.1,13.9c-1.5,5.7-0.2,11.3-2,16.6c-0.4-0.7-0.8-1.4-1.2-2
				c1.8,3.6,5.3,8.1,4.2,12.9c-0.3,1.3-1.7,2.2-2.3,3.7c-0.7,2-0.6,4.8-0.7,6.9c-0.2,3.7,0.3,10.3-2.8,12.2c14.8-0.7,0-0.2,0.1-0.2
				c-0.2,0.1-1.9,0.2-1.5,0.2c-1-0.9-1.9-1.9-2.9-2.8c-0.4,1.3-1.3,2.3-1.6,3.6c-0.4-2.9-2-4.9-4-6c1.7,5.6-0.1,9.7-0.4,14.8
				c-0.3,4.6,1.8,9,3.2,13.2c-2.3-2.8-5.3-5.6-7-8.8c-2.1,2.5-6.6,5.9-5.3,9.9c0.3,1,5,3.5,3.4,6.5c-1.5,2.9-3.8-0.1-5.8,0.5
				c-5,1.5-3.2,10.5-1.5,13.8c0.9,1.7,1.9,1.5,2.7,4c0.6,2,0.3,5.5,0.7,7.7c0.5,2.9,1.5,5.6,2.1,8.4c1.9-2.5,10.4-18.6,12.2-8.7
				c0.5,2.6-2,4.5-2.7,6.7c-1,3-1.1,7.1-1.3,10.5c0.3-2.6-7-5.6-5.8,5.5c-4.9-0.3-6.7-9.4-8.9-14.8c-0.5,4.1-3,13.8-1.2,17.6
				c2.1,4.6,3.8-0.7,6.1,2.5c2.1,2.9-0.8,6.8-2.1,8.6c-4,5.4-4.7,5.1-9.7,2.8c-1.7,7.4-2.9,13,1.6,18.8c1.8,2.4,5.3,3.3,6.6,6.1
				c1.1,2.4,0.8,11.6,0.1,13.9c-0.9,2.7-1.6,1.7-2.3,4.7c-0.3,1.4-0.4,4.9,0.1,6.1c1.9,4.5,3.5,1,5-1.6c2.5-4.2,4.5-9,8.2-11.2
				c1.1,8.7-3.4,18.2-5.4,26.6c4,0.8,4.5,1.3,7,4.5c0.2,0.2,3.6,5.1,3.6,4.9c0.6,2.5-0.4,2.9-0.5,5.2c0,2.4-0.3,0.8-0.1,3.3
				c0.1,1.7,1.2,3.6,1.5,5.4c0.5,4.2,0,5.6-2.6,8.1c-5.2,4.8-6.5-0.3-11.4-0.9c-2.6-0.4-4.7,1.4-2.9,4.2c-0.3-0.5,5.2,1.6,5.7,2.1
				c3.9,3.6,5.3,5.3,10.2,2.4c0,3.7,0.4,6.5-1.2,9c-1.3,2-4.7,2.3-5.3,5.4c-0.7,4.1,2.1,6.1,3.9,8.1c2.3,2.5,5.7,5.8,1.1,8.8
				c-3.4,2.3-6.4-4.1-5.9,3c0.5,1.5,0.9,3.1,1.5,4.6c-0.3,0.3-0.6,0.7-0.9,1c-0.5,0.5-1,1.1-1.5,1.6c-0.8,0.5-0.7,1.3,0.2,2.4
				c-0.6,4.7,0.6,12.5,3,16.1c3.5,5.4,2.9,1.8,3.7-2.6c1.5-9,5.4-5.5,9.9-1.9c-1.9,2.8-3.8,5.6-5.7,8.4c-2.8,3.8-0.4,5.9,2.6,6.4
				c1.9,0.3,2.7-1.5,4.1,1.5c0.6,1.2-0.8,8-1.2,9c-4.4,11.6-6-5.8-11.6-2.5c-4.1,2.4-0.8,8,0,11c1.5,5.6,0.3,12.9,0.3,18.9
				c0,9.8,4.1,24.1-2.6,31.9c0.5-0.2-1.7,0.6-1.5,0.5c-2.5-4.2-3.5-11.8-7.1-6c-1.3,2.2-4,10.9-4.2,13.7c-0.6,6.7,1.7,17.2,2.8,23.9
				c1,6.5,1.5,9.9,0.3,15.7c-1.1,5.3-4.4,18.5-2.5,23.7c2.8,7.8,2.3-2,5.8-2c3.4-0.1,2.6,10.4,3.3,13.9c2.4-2.7,2.7-5.9,2.8-10.2
				c0-3-1.5-8.7-0.6-11.5c1.4-3.9,2.3-1,4.6-2.6c-0.2,0.2-0.1,0.2,0.1,0.5c-0.1-1.2,1-2.9,1.4-4c0.4,7.2,2.9,13.3,4.2,20.3
				c-0.8-0.2-4.3-0.4-4.4-1.3c-1.9,4.2,1.4,14.3,4.1,16.7c-0.3-2.2-1-5.6,0.5-7.3c0.6-0.7,2.2,0.1,2.5-0.3c2.2-3.3,1.1-8.8,0.6-14.1
				c4.9,8.5,12.9,21.4,11.5,33.1c-0.1,1.2-1.1,3.4-1.4,5c-1,6.1,0.6,13.2,1.5,19.3c-0.2-0.3-0.5-0.5-0.7-0.8c0.1,0.2,0.7,1,0.7,1.1
				c3.3,1.2,7.1,5.1,9.9,8.5c1.4,1.7,6.9,11.2,9.9,8.6c2.7-2.3-3-8.7-4.9-10.1c-3.2-2.5-5.9-1.9-4.1-7.5c1.2-3.6,5.7-8.5,7.9-4.1
				c1.5,3-0.6,6.7,1.5,10c2.9,4.5,12.9,3.3,11.3-4.8c1.3,1.2,7.1,4.6,6.8,7.8c-0.4,4-5.8,2.3-6.4,5.8c-0.7,4.3,6.2,2.5,7.5,4.8
				c1.3,2.3-0.2,1.9,0.2,4.2c0.4,2.6,1.2,4.5,2,7.1c2.1-2,3-3,4.2-5.8c1.1-2.5-0.4-3.3,2-5.1c3.6-2.8,10.4,0.8,11.5,5.6
				c-6.6-3.1-5.8-0.6-8.6,5c5.6,1.3,11.4,1.4,17.1,1.8c-5.3,7.8-9.4,9-1,15.8c-0.4-11.2,8.8-11.2,14.7-10.3
				c4.5,0.6,9.9,0.9,14.2,2.7c3.3,1.4,3,1.6,4.1,6.2c0,0.1-0.5,1.8-0.7,2c6.8,1.6,14-3.1,20.9-2.3c5.4,0.7,10.8,1.3,16.2,1.1
				c7.5-0.2,12.5,2,19,6.6c-1.3-6.4-3.5-10.5-6.3-15.9c3,0.3,5.5,2.7,8.5,3.2c4.1,0.7,4.7-3.7,8-4c2.3-0.2,2.7,2.3,3.9,4.4
				c0.7,0,1.6,0.2,2.2,0c-0.6-0.1-1.3,0-2,0c2.7,2.9,6.5,6.7,10,5.1c2.8-1.3,6.5-10.2,8.6-6.8c2.4-0.6,6.6,0.5,7.9-3.3
				c-0.8,3.1-2.7,5.8-2,8.3c0.7,2.2,4.7,6.3,5.9,8.2c0.2-1.9,0.4-3.7,0.5-5.6c2.2,0.5,6.9-1.4,8.5,1.2c2.4,3.8-1.3,5.5,3.8,7.6
				c4.5,1.8,12.3-7.6,14.4,1c0.6-0.3,0.3-0.1,0.3-0.4c6.6-0.3,12.7-3.3,19.4-2.1c3.5,0.6,7.2,2.7,10.7,2.8c1.6,0.1,9.3,0.1,10.2-1.5
				c-0.1,0.1-3.5-5.3-3.8-6.4c4.8,0,9.4,1.3,14.1,1.9c4.6,0.5,11.3-0.7,15.3,2.1c0.5,0.3,0.8,0.8,0.8,1.6c-0.7,1.9-0.1,2.7,1.7,2.5
				c1.5,1.2,4,1.8,5.6,2.6c6.5,3.2,9.3-0.5,14.9-5.4c-0.4-0.4-2.3-1.9-1.9-1.7c-2-1.4-3.9-2.8-5.9-4.1c2.7-0.8,6.3-3.3,8.8-3.6
				c3.9-0.4,11.8,8.2,12.7-0.1c0.1,6.1,5.5,1.2,4.9,5.8c-4.2,0.2-5.2,2.4-3.6,7.7c2.8,8.8,10.2,2.3,15.1,6.4
				c1.9,1.6,1.3,2.2,3.6,3.4c2,1,4.6,1.2,6.6,1.6c6.3,1.4,6.2,1.3,9.3-5.7c0.8-1.8,2.2-3.3,2.9-5.2c0.4-1.2,0.4-4.4,0.9-5.3
				c1.4-2.2,3.6-2.3,5.8-1.2c1,0.5,0.3,2.1,1.3,2.6c1.8,1.1,3.9,1.2,5.9,1.5c3.5,0.4,6.5,1.6,9.9,2.4c3.4,0.8,1.3,1.1,4.7-1.9
				c1.7-1.4,2.8-1.8,4.7-2.5c4-1.6,5.9-3.2,9.3-6.2c3-2.7,6.6-2.4,10.5-2.7c-1.8,2-10.2,7.1-9.7,10.7c2-0.1,5.4-1,6.5,0.5
				c0.9-3.3,10.6-7.2,13.8-5.9c3.3,1.4,2.4,3.7,3.7,6.9c1.6,4.2,2.9,3.9,5.8,6.1c1.3,1,3.4,3.7,4.4,3.8c1.4,0.1,2.5-2.5,4.1-3.4
				c0.8-0.4,6.6-2.4,7.3-2.2c1.2,0.2,2.9,2.8,3.9,3.8c-1-5.9,3.5-7.1,6.7-8.3c4.3-1.5,5.1-1.5,7.9,3.5c4.6-7.1,4.1-15.1,4.2-24
				c1.6,0.3,0.5,2.1,0.6,4c0.1,5.8-1.2,3.1,1.6,6.8c1,1.4,3.4,1.9,3.5,4.4c0.1,1.1-2.8,0.9-2,2.9c0.9,2.3,5.4,2.6,7.2,2.9
				c6.3,1.1,13.9,1.7,20.2,0c3.4-0.9,2.9-2.3,4.8-4.5c-0.4-1.4,0-2.1,1.2-2c1.3-0.5,2.5-1,3.8-1.5c2-0.6,3.4-0.9,5.4-0.8
				c-0.6,1.5-3.3,3.9-3.2,5.5c0.2,1.3,2.3,1.3,2.7,2c1.2,1.9,1.4,2.7,2.2,5c3.1-2,12.3-10.7,15.5-7.6c4.2,4-2.3,7.9-4.4,9.5
				c4.3,1.1,9-0.4,13.1,2.2c3.9,2.4,4.8,9,9.4,8c-0.6-1.5-0.8-2.7-0.5-4.2c2.5,1.7,7.6,6.6,10.5,5.4c4.8-2-1.6-3.8-0.8-7.7
				c1.3-6.7,10,1.5,13.2,1.1c3.9-0.5,5.5-2.8,9.9-1.5c4.5,1.3,8.8,2.7,13.4,3.2c6.7,0.7,12-1.7,18,1.2c-0.2,0.2-0.2,0.2,0.1,0
				c-1.3,1.9-2.7,3.8-4,5.7c2.6,0,5.3,0,7.9,0c0-3.2,1.3-8.4-2-7.5c0-2.1,2.2-7.5,4.8-6.8c-0.8,2.3-1.6,4.5-2.6,6.7
				c3.2,1.7,8.8-0.8,10.6,4.4c-2.6,0.8-5.5,1.2-7.9,2.4c-0.7,0.4-2.2,0.2-2.8,0.8c-1.1,1.3-3.4,11.2-2,12.3c1.9,1.5,4.8-8.8,7.6-9.6
				c2.9-0.8,10.3-0.2,11.1,4.6c2.7-1.8,3.3-5.7,6-7.4c3.1-2,6.8-0.3,10-2.5c-6.2-4-1.8-5.6,3-6c4.6-0.5,13.5,2.3,16.9-3.4
				c0.4-0.7,0.8-1.7,0.9-2.6c0.3-3.5,0.4-0.8-1.5-3.4c-1-1.4-5.4-2.5-1.9-5.9c2.1-2,4.4,3.2,6.7,2.6c3.9-1.1,2.2-8.3,1.9-11.6
				c1.8,0.1,8.8-1.2,9.3,2c0.3,1.6-3.5,4.6-3.4,8c0.3,4.6,5.4,11.3,8.2,13.1c0.3-6.4,0.3-14,5.9-16.9c-2.5-4.1-3.1-4-0.8-8.7
				c1.4-2.9,3.7-8.6,6-5.4c1.5,2.1,1,9.1,1.2,11.9c1.4-1,6.2-1.9,6.5-4.4c0.4-3.4-3.6-3.3-1.9-6.8c3-6.1,11.3,0.8,13.8,1.8
				c1.3,1.2,3.3,1.7,4.5,3.1c1.2,1.4,2.2,4.2,3,4.7c2.4,1.4,7-3.1,7.1,3.5c4-1.1,8.1-2.7,12.2-2.6c-1.8,6.2-1.8,8.3,3.7,8
				c7.2-0.4,7-0.8,7-9.1c0-5.4,0.9-12.5,0-17.8c-0.7-4.4-1-3.5-4.9-4.6c2.9-1.4,4-1.2,4.9-4.3c1.1-4.2,0-11.7,0-16.2
				c0-4.4,1-11.4,0-15.6c-0.8-3.1,0.9-1.1-1.2-2.9c-3.8-3.3-8.7,2-12-1.3c5.6,0,11.1-0.6,16.6-1c-5.7,2.8-3.4,18.5-3.4,24.7
				c0,9.3-1.7,22.2,0.1,31.2c1.1,5.6,3.9,5.4,8.2,5.3c3-0.1,5.4-0.4,8.3,0.8c0.6,0.2,0.8,1.7,1.3,1.9c1.4,0.6,4.4,0.3,5.9,0.1
				c3.7-0.4,7.3-2.2,11.1-2.5c2.6-0.1,5.3,1.6,7,0.8c4.7-2.4,11-22.5,17.4-16.9c-3.3,6.2-8.4,11.4-11.3,17.8c-3,6.6,1.5,3.4,4.2,0.7
				c9.4-9.2,19.3-14.7,29.4-22.1c-4-0.6,0.8-14.8,1.6-17.7c2.3-8.8,7.9-7.8,14.2-7.5c1.9-1.9,15.7-19.8,16.6-19.2
				c4.5,3.4-13.8,22.8-16.1,25.3c14-1.7-11.6,25.1-14.6,27.2c-6.4,4.4-13.8,6.2-19.7,12.2c-2.6,2.7-4.1,6.7-6.6,9.4
				c-3,3.3-8,5.3-11.4,7.5c9.4-1.4,17.5-7.5,25.6-13.7c3.7-2.8,6.4-5,10.6-5.1c3,0-0.2,1.9,3.7,0.5c1.9-0.7,4.3-4.1,5.7-5.7
				c7.1-7.5,14.5-14.5,21.7-22.1c3.8-4.1,7.6-8.2,11-12.9c4.2-5.7,4.7-11.7,5.5-19.5c0.2-0.1,1.5-0.8,2.1-0.8
				c-0.6,0.4-1.4,0.5-2,0.8c0.5-3.9,1-7.8,1.3-11.7c-1.1-1.9-1.2-14.8,0.8-17.3c3.5-4.5,7.3,4.2,7.9,8.3c0.1-9.1,0-18.2-0.5-27.3
				c0.6,0.7-1.5-1.4-1.4-1.3c-0.9,6.2-3.3,1.1-3.3-2.3c0-6.8,2.7-13,2.5-20c-0.1-3.7-2.5-11.4-1.3-14.8c0.7-2.1,2.8-1.5,3.7-3.5
				c0.5-1.3,0-5.2-0.1-6.6c-9.1,1.6-12.2,17.1-18.3,25.3c0.4-5.4-0.4-12.9,1.7-17.8c1.4-3.1,3-3.3,4.8-5.6c1.6-2.1,2.2-5.1,3.7-7.2
				c6.4-9.1,9.9-1.7,14.8,4.7C1027.4,824,1026,818,1027.4,813.7z M1004.3,717.7c0.5,3.4,0.4,3.9-1.1,6.6
				C1002.6,720.7,1002.4,720.4,1004.3,717.7z M1002.2,687.4c0-0.1,1.7,1.3,0.4,1.4C1001.9,688.7,1001.8,688.2,1002.2,687.4z
				 M1008.2,640.8c1-1.2-0.9,6.3,0,2.5C1007.2,642.5,1007.3,641.8,1008.2,640.8z M1007.7,584.2c-0.7-1.7-4-7.4-0.9-8.8
				C1011.2,573.5,1008.3,582.5,1007.7,584.2z M1006.5,561.6c4.5,2.3,2.8,4.6,1,8.7C1007.5,570.3,1003.8,560.2,1006.5,561.6z
				 M1012.9,515.3c0.4,0.7,0.4,1.3-0.1,1.9C1012.4,516.6,1012.5,515.9,1012.9,515.3z M1011.2,504.9c-0.2,3,0.4,11.7-2.1,13.3
				c-2.9,1.8-2-2.1-2.1-3.3C1006.9,512,1008.8,505.5,1011.2,504.9z M1004.5,499.6c3-1.9,4,3.9,4.7,6.3
				C1007,506.4,999.8,502.6,1004.5,499.6z M1002.2,600.5c0,0.6,0,1.2,0.1,1.7c-0.2-0.1-0.4-0.2-0.6-0.4
				C1001.4,601.1,1001.6,600.6,1002.2,600.5z M1002.1,355.2c-0.3,0.4,1.8-1,2.4-1.5c0.2,3.7,2.8,22-1.6,20.8c-1.8-0.5-2-8.3-2.2-10
				C1000.3,359.9,999.3,357.8,1002.1,355.2z M716.2,56.2c-0.5-0.1-1-0.3-1.5-0.4C715.4,53.9,716.3,56.3,716.2,56.2z M99.4,330.1
				c-1.3-4-2.6-8.4-0.3-12.2c0.6,2.3,1.4,6.4,1.1,9C100.3,326.6,100.1,332.2,99.4,330.1z M102,299c-0.8,1.5-1.5,2.9-2.3,4.4
				c-0.1-3.3-0.2-6.7-0.3-10c1.2,0.1,2.4,0.2,3.6,0.3C102.6,295.4,102.2,297.3,102,299z M104.7,384.3c-0.1-0.3-1.7-3.3-0.1-3
				C106.3,381.5,104.9,383.6,104.7,384.3z M104.3,368.7c-1.8,2.6,1.1-9.1,0.4-3.7C104.4,367.5,108.4,362.6,104.3,368.7z M85.5,524.9
				c-0.7-0.4-1.3-0.9-1.9-1.6c0.6-2,1.3-3.9,1.9-5.9C87.5,520,86.6,521.6,85.5,524.9z M72.3,584.1c-0.2-0.4-0.4-0.7-0.6-1.1
				c0.2-0.2,0.3-0.3,0.5-0.4C72.6,583,72.6,583.5,72.3,584.1z M79.1,572.4c0.1-1.1,0.6-0.7,0.9-0.2
				C79.9,572.5,78.9,574.6,79.1,572.4z M80,584.9c-0.1-0.7-1.3,0.6-0.3-1.2C80.3,582.7,80,585.2,80,584.9z M83.9,578.9
				c-2.4-3.6-1.6-4.1-0.3-8.3C85,574.5,85.2,575,83.9,578.9z M85.5,631.3c-0.2-0.5-0.4-1-0.6-1.5c0.1-0.2,0.3-0.5,0.4-0.7
				C86.1,629.9,86.1,630.6,85.5,631.3z M87.5,717.7c-0.5-1.3-1-2.7-1.3-4.1c2.5,1.2,2.4,2.1,2.9,5.5C88.5,718.8,88,718.3,87.5,717.7
				z M90.8,835.4c-0.6,4.7-1.3,15.6-6,16.6c-0.7-5.9-1.4-11.7-1.8-17.7c-0.3-5.1-1-8.7,4.6-8.4c2.7,0.2,1.6-1,2.9,1.5
				C91.3,828.9,91.1,833.7,90.8,835.4z M116.8,442.9c0.2,1.1-0.3,1.3-0.8,1C116,443.6,116.4,440.7,116.8,442.9z M115.8,233.3
				c-0.5,0.3-0.8,0.1-0.9-0.6C115.2,232.9,115.5,233.1,115.8,233.3z M110.1,491.1c-0.3-2-0.7-4-1-5.9c1.2,0.8,2.4,1.5,3.6,2.3
				C111.9,488.7,111,489.9,110.1,491.1z M104.8,724.4c-0.4-1.8-0.8-3.7-1.2-5.5c3,1.5,3.6,4.4,5.1,8.1
				C107.4,726.1,106.1,725.3,104.8,724.4z M108.9,484.8c-0.8,0-1.6-0.2-2.4-0.3c0.6-0.7,1.7-1.6,2.4-2.1
				C109,483.2,109,484,108.9,484.8z M107.3,508.7c-0.3-0.2-0.7,1.1-0.8-1C107.1,507.4,107.4,507.7,107.3,508.7z M112.5,475.5
				c-0.1-0.5-0.3-0.9-0.4-1.4C112.7,474.9,112.9,476.5,112.5,475.5z M109.7,269.6c0.1,0.7,0.7,1.1-0.1,1.2
				C109.6,270.4,109.7,270,109.7,269.6z M109.6,410.6c-0.1,0.6-0.1,1.3-0.2,1.9c-0.8,0.2-1.1-0.4-0.9-1.8
				C108.9,410.7,109.2,410.6,109.6,410.6z M110.4,423c3.7,0.8,2.4,11-1.1,10.3C106,432.6,107.6,422.4,110.4,423z M107.5,461.1
				c0.6-2.8,1.2-5.7,1.9-8.5c0.9,6.9,1.6,13.8,2.3,20.7C107.3,473,106.5,465.8,107.5,461.1z M104.6,487.9c0.1,3.1-0.8,4.4-1.9,7
				C102.7,492.1,102.1,488,104.6,487.9z M97.1,662.1c-0.3-0.6-0.3-1.2,0.2-1.6C98,661.9,97.2,661.7,97.1,662.1z M101.5,667.3
				c1.5,4.1-1,8.2-3.7,9.7C99,673.7,100.3,670.5,101.5,667.3z M98.2,645.4c0.1-0.4-0.3-1.4,0.2-0.8C99,645.1,98.4,644.8,98.2,645.4z
				 M101,606.9c0.2-0.7,0.4-1.4,0.7-2C102.7,606.2,103,608.4,101,606.9z M103,638.7c1-0.6-0.7,4.7-0.1,2.7
				C102,640.4,101.8,639.5,103,638.7z M102.3,540.7c-2.3-3.4-1.7-4.1-0.9-8.3C103.3,536.3,103.8,536.5,102.3,540.7z M102.3,484.7
				c0.4,0.8,0.7,1.7,1,2.6C101.4,486.6,102.3,486,102.3,484.7z M99.1,503.3c2.8-0.3,5.8,8,3.5,10.5c-1.3,1.4-5.5-6-7-7.2
				C96.8,505.5,98,504.4,99.1,503.3z M93.6,535.3c0.8,0.2,1.8,1.1,2.6,1.6c-0.3,0.7-0.5,1.3-0.8,2C94.8,537.8,94,536.6,93.6,535.3z
				 M94.5,611.7c-0.3,0.2-0.5,0.4-0.8,0.6C93.8,610.9,94,611.8,94.5,611.7z M97,496c-0.7-1.8-0.9-3.6-0.7-5.6
				C97.3,492.2,97.9,494.3,97,496z M89,485.1c3-0.9,8.8-4.9,7.9,2C95.9,494.3,90.4,489.3,89,485.1z M92.2,513.4
				c-1.2-2.1-2.1-4.5-3.1-6.7c3.4-1.3,4.1,2.5,6,6.2C95.2,512.8,92.4,513.8,92.2,513.4z M89.1,552.2c-0.2,0.6-0.4,1.1-0.7,1.7
				c-0.1-0.5-0.3-0.9-0.5-1.4C88.4,552.4,88.8,552.3,89.1,552.2z M90.6,635.3c-0.3-3.3,0.3-6.5,0.7-9.7c1.8,3.7,2.1,5.7,2.3,10.2
				C92.7,635.6,91.5,635.7,90.6,635.3z M91.9,682.7c1.9-2.9,2.8-4.5,5.6-5.3C96.7,683.8,96.2,689,91.9,682.7z M99.2,704.4
				c0.2-0.5,0.5-1.1,0.7-1.6c-0.8-2.6,1.2,3.4,0.2,2.6C99.8,705,99.5,704.7,99.2,704.4z M100.6,730.3c0.5,0.2,1.1,0.4,1.6,0.6
				c-0.2,0.5-0.3,1-0.5,1.6C101.4,731.7,101,730.9,100.6,730.3z M99.6,879.2c-0.9-1.4-2.1-4.6-2.3-6.2c0,0.2-1-5.8,0.1-4.6
				C99.7,871.1,100.1,875.2,99.6,879.2z M99,818.7c0.1,1.1,0.1,2.1,0.2,3.2c-0.3-0.1-0.6-0.3-0.9-0.4
				C98.6,820.6,98.8,819.6,99,818.7z M103.4,867.3c-0.7-0.3-0.2-2,0.1-2.4C103.5,865,104.5,867.7,103.4,867.3z M102.5,813
				c-0.6,0.4-1.2,0.5-1.9,0.5c1-5.1,0.5-6.7,4.2-3.7C104.1,810.9,103.4,812,102.5,813z M102.1,794.2c0.6-1.4,1-1.4,1.2-0.1
				C102.9,794.1,102.5,794.1,102.1,794.2z M107.7,783.1c-0.4,5.1-3.7-0.6-5.4-0.6c-2.5,0-4.7,4.5-7.2,1.9c1.9,8.6,4.9,12.8-1.6,19.6
				c-0.4-7.6-3.8-26.4,1.7-32.1C99.4,767.6,108.2,776.4,107.7,783.1z M112.3,507.1c0.5-0.9,1.1-1.8,1.6-2.6c0.1,0.4,0.2,0.7,0.4,1.1
				C113.6,506.1,113,506.6,112.3,507.1z M115.2,512.2c-0.1,0-0.6-1.4,0.9-1.1c0,0.3,0.1,0.7,0.1,1.1
				C115.8,512.1,115.5,512.1,115.2,512.2z M116.5,486.9c0.3-0.4,0-1.1,0.5-0.7C117.4,486.6,116.7,486.5,116.5,486.9z M117.3,456
				c-0.5-0.1-0.6-0.5-0.4-1.1C117.6,455.1,117.2,455.4,117.3,456z M117.4,474.5c0.1,0.5,0.8,0.2,0.2,0.7
				C117.1,475.7,117.5,474.9,117.4,474.5z M123.2,927.7c-0.2-0.5-0.4-0.9-0.5-1.4C124.1,926.5,123.9,928.5,123.2,927.7z
				 M128.2,186.9c-0.8-2.1-1.5-4.3-2.1-6.5c0.6-0.9,1.3-1.7,2.1-2.4c0.8,2.2,1.5,4.4,2.2,6.6C129.6,185.4,128.9,186.2,128.2,186.9z
				 M134.7,927.8c0.2,1.4,0.3,2.9,0.4,4.3c-0.7-1.6-1.3-3.1-2-4.7C133.7,927.5,134.2,927.6,134.7,927.8z M133.4,935.9
				c-1.1-2,0.1-3.1,1.8-3.3C135.1,934.2,134.5,935.3,133.4,935.9z M135.3,921.3c-0.1-0.6-0.3-1.1-0.4-1.7
				C135.4,920.1,135.5,920.7,135.3,921.3z M136.9,945.5c-0.1-0.4-0.3-0.8-0.4-1.2c1.7,0.5,1.4,0.1,1.9,1.6
				C137.9,945.8,137.4,945.6,136.9,945.5z M947.4,479.8c-0.7,0.8-1,0.6-1-0.6C946.8,479.4,947.1,479.6,947.4,479.8z M825.7,946.8
				c0.3,0.4,0.6,0.8,0.8,1.2c-0.3,0.2-0.6,0.3-0.8,0.5C825.7,948,825.7,947.4,825.7,946.8z M493.2,982.4c-0.4,0-1.4,1.4-1.2-0.5
				C492.4,982.1,492.8,982.2,493.2,982.4z M288.4,977.2c0-0.6,0-1.1,0.1-1.7c1.4,0.6,2.7,1.1,4.1,1.7
				C291.2,977.2,289.8,977.2,288.4,977.2z M289.4,126.2c0.5-0.8,1.1-1.5,1.6-2.2C290.8,126.4,290.1,125.7,289.4,126.2z M438.4,120.1
				c-0.5-1.1,1-0.3,1-0.3C439.3,120.3,438.8,121,438.4,120.1z M685.8,128c0.1-1.5,1-0.3,1.1,0.1C686.8,128.4,685.7,129.5,685.8,128z
				 M822.5,171.4c-0.4-0.5,1.2-0.4,1.6,0.2c-0.1,0.3-0.3,0.5-0.4,0.8C823.3,172.1,822.9,171.7,822.5,171.4z M825.9,85.5
				c1.1,0.2,2.1,0.7,3.1,1C827.7,87.7,826.7,87.3,825.9,85.5z M853.7,93.1c1.1-0.2,2.3-0.2,3.4-0.3
				C856.2,94.4,855.1,94.3,853.7,93.1z M905.2,104.8c0.4-0.2,0.3-1,1.1-0.1C905.9,104.7,905.5,104.8,905.2,104.8z M912.6,100
				c-2.2-0.7-4.7-0.7-6.2-3C909.3,97.2,911.1,96.8,912.6,100z M906.5,90.4c-1.1,0.4-1.3,1.6-2.2-0.2
				C905.1,90.3,905.8,90.4,906.5,90.4z M898.2,94.2c-2,2.8-8.3-0.5-11-1.2C890.9,93.3,894.6,93.4,898.2,94.2z M882.6,110
				c0.5,0.2-0.1,1.6-1.3,0C881.8,110,882.2,110,882.6,110z M878.3,93.3c1.6,0.9,2,1.4,2.4,3.7C879,97.2,877.3,95.9,878.3,93.3z
				 M844.8,87.2c0.7-7.7,12.5-4.8,16.2-5.6c-1.4,1.9-6,10.9-7.8,11.3c-0.7,0.1-1.7-1.5-2.5-1.7C849.1,90.8,845.8,87.9,844.8,87.2z
				 M844.3,80.1c-3.7,1.1-5.1,1.4-8.6-0.5C839,78.8,841,79,844.3,80.1z M839.7,69.4c-0.9-0.9-1.8-1.9-2.6-2.9c1.3,0.8,2.7,1.6,4,2.3
				C840.6,69.1,840.1,69.3,839.7,69.4z M828.9,75.9c0.8-0.1,2.4,1.1,3.2,1.7c-1.2,1.3-5,7.4-6.4,7.4c-1.3-0.1-4.3-4.9-3.5-6.9
				C822.9,76,827.7,76.1,828.9,75.9z M819.2,68.3c0.5,0.6,0.3,1-0.4,1.1C817.9,68,818.8,68.8,819.2,68.3z M815.2,55.5
				c1.2,1.2,2.4,2.4,3.6,3.7C815.8,61.6,812.2,60.1,815.2,55.5z M781.2,49.9c0.5,0.2,0.9,0.4,1.4,0.6c-0.3,0.4-1.5,2.9-2,0.8
				C780.7,50.8,780.9,50.3,781.2,49.9z M779.3,43.2c-0.1,4.9-2.7,10.5-6.7,5.7C774.8,46.9,777.1,45.1,779.3,43.2z M772,46.6
				c0.1,0.7,0.3,1.4,0.4,2.1c-0.5-0.4-1.1-0.9-1.6-1.3C771.2,47.1,771.6,46.9,772,46.6z M762.3,43.7c0.6,0.1,1.1,0.3,1.6,0.7
				c-1.1,1.2-2.3,2-3.6,2.6C760.3,45.4,761,44.3,762.3,43.7z M755,49.1c1.8-2.4,6.6-2.8,6.1,2c-0.3,3-7.2,4.3-9.2,5.2
				C752.9,53.9,753.5,51.1,755,49.1z M748.4,37.9c1.3,1.3-0.2,1.2-0.9,0.9C747.8,38.5,748.1,38.2,748.4,37.9z M741.5,43.2
				c0.7,1.1,1.2,2.5,1.7,3.7c-1.4-0.1-2.8-0.1-4.3-0.2C739.8,45.6,740.6,44.4,741.5,43.2z M740.5,54.8c0.6,0.7,1.1,1.4,1.7,2.1
				c2.9-1.3-5.3,2-3.6-0.4C739.2,56,739.8,55.4,740.5,54.8z M734.7,48.9c1,0.6,2.1,1.2,3.1,2c-1.8,2.4-2.2,1.6-4.2-0.7
				C733.9,49.6,734.2,49.2,734.7,48.9z M727.5,61.2c-0.6-1.1-0.4-1.7,0.4-2c0.3,0.4,0.7,0.8,1,1.1C728.4,60.6,728,60.9,727.5,61.2z
				 M689,91.9c1.1,1.2,4.9,3.8,1.5,5.2C687.6,98.4,688.4,94.3,689,91.9z M682.8,114c1.3-5,5.3-2.8,7,0c-4.7,1.8-4.6,9.5-10.3,9.5
				C680.6,120.4,681.9,117.3,682.8,114z M679.2,123.9l-2,9.8C677.1,130.3,675.3,126.6,679.2,123.9z M667.2,113.9
				c1-0.4,3.9,2,4.6,2.4c-1.9,1.6-3.8,4.6-6.2,3.2C662.6,117.8,664.6,115,667.2,113.9z M658.3,99.1c0.3,1,0.3,2.4,0.5,3.4
				c-0.6-0.1-1.2-0.2-1.9-0.3C657.4,101.2,657.8,99.9,658.3,99.1z M631.9,92.4c0.5,0.2,1,0.4,1.5,0.7
				C631.6,94.8,631.7,92.4,631.9,92.4z M568.8,68.4c-0.6,0.5-1.3,1-1.9,1.5c-0.2-0.2-0.3-0.4-0.5-0.7C567.2,69,568,68.7,568.8,68.4z
				 M557.2,79.1c-0.1-0.8-0.2-1.8-0.3-2.6C558.5,78.6,557.5,78.3,557.2,79.1z M555.8,72.6c0.3,0.9,0.5,1.8,0.7,2.7
				c-0.6-0.6-1.2-1.7-1.6-2.5C555.2,72.8,555.5,72.7,555.8,72.6z M530.2,79.8c1.1-1.8,2.4-0.9,3.3,0.2
				C534.6,81.5,528.3,82.9,530.2,79.8z M530.5,89.1c0.7,0.2,1.3,0.4,1.9,0.8C532,93.5,529.9,92.4,530.5,89.1z M468.8,170.3
				c0.3,0.8,0.4,1.7,0.6,2.5C468.4,172,467.7,171,468.8,170.3z M439.6,94c-0.5,0.5-0.8,0.4-0.9-0.4C439.3,93.1,439.6,93.3,439.6,94z
				 M435,88.5c1.2-1.6,3.1-4.5,4.2-1.4c0.4,1.3-2.6,3.7-3.2,4.5C435.4,90.7,435.1,89.6,435,88.5z M431.3,98.7c0,0.5,0.8,0.7,0,0.7
				C430.5,99.4,431.3,99.2,431.3,98.7z M401.6,110.4c0.9,1,1.8,2.1,2.7,3.1c-3.2,2.3-3.6,3.2-6.6,0.5
				C399,112.8,400.3,111.6,401.6,110.4z M358.1,114c0.5-0.5,1,0.1,1.1,0.7C359.1,114.7,357,115,358.1,114z M357.1,108.2
				c-0.4,0.2-0.3,1.1-0.6,0.3C356.1,107.7,356.7,108.4,357.1,108.2z M353.9,120.6c0.4,0-1,1.8-1.6,0
				C352.9,120.6,353.4,120.6,353.9,120.6z M333.2,126c0.3,0.4,1-0.1,0.4,0.8C333,126.8,332.8,126.5,333.2,126z M330.3,118.9
				c0,0.5,0.1,1,0.1,1.5c-0.3,0.1-0.5,0.1-0.8,0.1C329.1,118.6,330.1,119.5,330.3,118.9z M321.1,135.8c1.1-0.6,0.8,0.4,0.5,0.9
				C321.5,136.7,320,136.4,321.1,135.8z M311.8,131.2c-2.1,0.2-3.4-0.2-5.4-1.2C308.9,129.5,309.7,129.1,311.8,131.2z M305.5,115.9
				c0.5,0.7,0.9,1.8,1.3,2.6c-0.5,0.1-1,0.2-1.5,0.3C305.3,117.9,305.3,116.8,305.5,115.9z M294.1,120.3c-0.7,0.8-1.6,1.6-2.3,2.4
				C292.3,120.3,293.1,120.6,294.1,120.3z M250.5,170.7c0.1,0.6,1.4,1.6-0.5,1.2C250.2,171.4,250.4,171.1,250.5,170.7z M238.5,110.8
				c1.6,0.8,3.1,1.7,4.7,2.5c-2.7,1.6-4,2.1-6.6-0.7C237,111.8,237.7,111.2,238.5,110.8z M174.2,109.6c0.9,0.2,1.9,0.5,2.8,0.8
				c-1.8,1.5-2.4,1.5-4.6,1.1C173,110.9,173.6,110.3,174.2,109.6z M144.2,468c-0.2-1.1-1-1.1-0.2-2.1
				C144.5,466.8,144,467.1,144.2,468z M169.5,958.6c-0.4-0.6-0.8-1.3-1.2-2c-2.2,1.1,5.1-0.8,3.3,1
				C170.9,957.9,170.2,958.2,169.5,958.6z M188.6,964.8c0.5,0,0.9,0,1.4-0.1c0,0.3,0,0.5,0.1,0.8
				C189.5,965.3,189.1,965.1,188.6,964.8z M209.8,989.9c0.2-0.7,0.4-1.3,0.5-2c0.7,0.5,1.8,1.4,2.3,2.2
				C211.8,990.1,210.8,990.1,209.8,989.9z M215.4,977c-0.5-0.4-1-0.7-1.6-1.1c0.5-0.7,2.9-2,3.1-0.1
				C216.5,976.4,216,976.8,215.4,977z M227.2,987c-1.2-2-2.4-4-3.6-6c2.8,0.2,5.6,0.4,8.5,0.5C230.4,983.3,228.8,985.2,227.2,987z
				 M251.7,982.8c-1.5-1.6,0.5-0.9,1.2-0.2C252.4,982.6,252,982.7,251.7,982.8z M265.8,965.5c-0.4-0.4-0.8-0.7-1.3-1.1
				c-3.9,1.5,3.5-1.6,2.5,0C266.6,964.8,266.2,965.1,265.8,965.5z M273.8,974.5c-0.3-0.5-1.3,0-0.1-1
				C274.4,973.8,274.4,974.2,273.8,974.5z M284.6,975.4c-1.9-1.4-3.4-3.4-5-5.2c4.2-2.9,6.5,0.6,8.7,5.2
				C287,975.7,285.8,975.8,284.6,975.4z M330.4,988.7c-0.4-0.2-0.9-0.5-1.3-0.7C330.8,987.2,331.2,989,330.4,988.7z M339,992.6
				c-0.8-0.3-1.6-0.8-2.3-1.5c2.3-1.6,2.4-2,4.4,0.1C340.5,991.9,339.8,992.4,339,992.6z M362.5,990.5c-1.9,0.1-4.5-0.1-5.6-2.7
				c-0.8-1.9-0.7-5.2,1.1-5.8c1.2-0.4,5.8,5.2,7,6.3C364.3,989.3,363.5,990,362.5,990.5z M415.5,991.9c0.4-0.4,0.8-0.8,1.2-1.2
				c0,0.5,0,1.1,0,1.6C416.4,992.2,416,992.1,415.5,991.9z M450,998.2c-2-0.7-4.3-2.1-3.9-5.4c1.5,0.4,6.6,0.3,7.6,1.7
				C455.8,997.6,452.5,999.1,450,998.2z M454.5,994.3c0.1-0.7,0.2-1.5,0.4-2.2c0.4,0.2,0.8,0.4,1.3,0.6
				C455.6,993.2,455,993.7,454.5,994.3z M468.6,1001.7c-2.4-3.8-4.4-4.7-2.3-9C468.5,996.3,471.7,998.6,468.6,1001.7z M490.2,994.2
				c-0.9,0.1-1.8,0-2.7,0.1c1.9-1.4,5.4-3.3,6.8-0.4C492.9,994,491.5,994.1,490.2,994.2z M498.8,978.4c-0.1-0.8-0.9-0.4-0.3-1.5
				C500.1,977.7,498.8,977.8,498.8,978.4z M515.3,983c0.4,0.3,0.8,0.6,1.3,0.8C514.9,985,515.6,983.5,515.3,983z M515.6,989.7
				c0-0.6-0.1-1.1-0.1-1.7c2.5,0.1,5,0.2,7.5,0.3C520.6,989.2,518,989.3,515.6,989.7z M555.7,998.3c-0.6-0.1-1.2-0.2-1.7-0.3
				c1.3-1.2,2.8-1.3,4.3-0.3C557.4,998,556.6,998.1,555.7,998.3z M573.4,991.1c0.9-0.7,1.8-1.3,2.7-2
				C575.4,990.7,574.5,991.7,573.4,991.1z M579.9,996.6c1.5-0.4,3.1-0.6,3,1.7C582,997.7,580.8,997.3,579.9,996.6z M583.5,996.1
				c0.6-0.8,1.1-1.5,1.7-2.3c0.2,0.2,0.5,0.4,0.7,0.6C585.1,995,584.3,995.8,583.5,996.1z M607.8,985.9c2.5,1.2,3.2,1.3,3.8,4.8
				C609.2,989.3,607.9,989.3,607.8,985.9z M662.1,1003.3c-0.4-0.8-0.2-1.2,0.6-1.2c0.2,0.2,0.4,0.4,0.6,0.6
				C662.9,1002.9,662.5,1003.1,662.1,1003.3z M669.1,1006.1c-0.5-0.4-1-0.9-1.4-1.5c2.8-1,2.2-1.3,3.6,0.5
				C670.6,1005.4,669.9,1005.8,669.1,1006.1z M689.8,1001.9c-0.1-0.7-1.1-0.6,0-1.3C690.6,1001,690.6,1001.4,689.8,1001.9z
				 M712.1,995.2c0.5,0.3,0.9,0.6,1.4,0.8C710.9,998.1,711.7,995,712.1,995.2z M716.3,1008.5c-1.5-0.1-3.4-2-4.7-2.9
				c4.2-1.6,5.6-3.6,8.7,1.1C719,1007.7,717.7,1008.3,716.3,1008.5z M749.9,996.1c-2.1,1.2-0.2-3.9-0.2-4
				C751.4,994.1,752.5,994.7,749.9,996.1z M776.7,998.6c-0.7-0.4-0.7-0.8,0-1.2C777.4,997.8,777.3,998.2,776.7,998.6z M782.9,1006.4
				c-0.4-0.3-0.8-0.6-1.2-1C782.4,1005,784,1005,782.9,1006.4z M782.5,987.9c-0.5-0.4-0.9-0.9-1.2-1.5
				C783.1,983.8,785,985,782.5,987.9z M807.2,981.1c-0.5-0.6-0.4-0.9,0.3-1.1C808.4,981.4,807.5,980.6,807.2,981.1z M809.7,999.5
				c2.2-1.7,2.4,1.8,3.2,4.1C811.8,1002.2,810.8,1000.8,809.7,999.5z M819.5,974.1c-0.5,0-1-0.2-1.5-0.5c1.1-1.7,1.1-1.3,2.5-0.8
				C820.1,973.2,819.8,973.6,819.5,974.1z M825.9,958.3c0.3-0.1,0.4-0.8,0.6-0.2S826.2,958.3,825.9,958.3z M829,927.7
				c0.6-0.6,1.3-0.5,2,0.3C830.3,927.9,829.6,927.7,829,927.7z M832.3,975.6c0.7,0,1.1,0.4,1.3,1.2
				C833.2,976.4,832.8,976,832.3,975.6z M837,956.3c0-0.7-0.8-0.8,0.2-1.2C837.8,955.6,837.7,956,837,956.3z M842.1,967.2
				c-0.5-0.2-1-0.3-1.6-0.5C840.3,966.6,842.7,964.9,842.1,967.2z M840.6,931.5c-4-2.3-7.6-4.5-11.8-6.2c4.6,0.3,9.2,0.4,13.9,0.5
				C841.6,927.1,841.1,929.8,840.6,931.5z M846.2,942.9c-0.6-0.1-1.2-0.1-1.7-0.2c1.8-5,2.3-5.5,6.2-7.5
				C850.1,939.7,849.1,940.3,846.2,942.9z M845.2,936c-0.2-0.3,0.5-0.4,0.8,1C845.7,936.7,845.5,936.3,845.2,936z M851.8,963.9
				c1.2,0.5,2.4,1.1,3.5,2c-1.3,0.8-3.2,2.7-4.3,1.6C849.7,966.3,849.6,963.6,851.8,963.9z M849.6,978.8c2.4-0.2,3,0.2,5,2.3
				C852.5,980.6,851.2,980.5,849.6,978.8z M855.9,983.1c-0.4-0.6-0.7-1.3-1.1-1.9c0.6,0.1,1.6,0.5,2.2,0.9
				C856.7,982.4,856.3,982.8,855.9,983.1z M857.7,927.9c-0.3-0.4-0.6-0.8-1-1.2c1-1,1.8-0.9,2.4,0.5
				C858.6,927.4,858.2,927.7,857.7,927.9z M859.5,966c0.3,0.5,0.7,1,1,1.4C858.7,967,859.6,966.3,859.5,966z M859.7,978.7
				c-0.2-0.3-0.3-0.7-0.5-1C860.3,977.8,859.6,978.1,859.7,978.7z M860.8,971.6c-0.1-1.1,0.2-2.5,0.2-3.6c0.7,0.7,1.7,1.9,2.2,2.9
				C862.4,971.1,861.5,971.6,860.8,971.6z M870.6,961.8c-0.2-0.4-0.5-0.8-0.7-1.2c-0.6-1.3,4.2,1.5,2,0.3
				C871.5,961.2,871,961.5,870.6,961.8z M875,975.8c-0.2,0.3-1-1.2,0.7-1.3C875.5,974.9,875.2,975.4,875,975.8z M876,947.6
				c-2.8,3.2-2.9,3.2-6.2,1.2C872.6,946.1,872.9,945.7,876,947.6z M874.2,929.2c1.8,4.2-0.2,5.4-3,3
				C872.2,931.3,873.2,930.2,874.2,929.2z M869.8,939.7c-2.1,2.3-1.9,1.6-3.5,0C862.3,941.9,871.8,937.5,869.8,939.7z M893.1,971.8
				c-0.4,0-0.8,0-1.1,0C892.6,970.9,894.1,971.4,893.1,971.8z M923.6,977.3c-1.3-3.1-1.1-3.1-0.7-5.9
				C925.9,973.2,925.7,973.6,923.6,977.3z M952.7,966.1c-1.7,1.4-9.4,8.1-11.4,3.8C944.8,966.6,953.6,954.2,952.7,966.1z
				 M976.1,173.9c-0.5-1.7-1.1-3.3-1.6-5C975.4,170.9,976.7,172.5,976.1,173.9z M974.2,167.7c-0.8-3,0.5-5.8-0.8-8.8
				c-1.4-3.2-4.4-3.3-1.2-7C976,158,979.8,162.1,974.2,167.7z M979.4,940.8c-2.2-4.7,0.2-5.5,3-8.3
				C981.4,935.2,980.4,938,979.4,940.8z M1007.6,868.1c0.6-1.8,1.4-3.6,2-5.4c0,0.2-0.3,8.2-1.2,7.2
				C1008.1,869.3,1007.8,868.7,1007.6,868.1z M1010.8,848.5c1-0.7,0.4,13.5-1.9,13.7C1007.3,862.4,1008.6,850.1,1010.8,848.5z
				 M999.6,824.8c0.6,0.3,0.6,0.8,0.3,1.5C999.1,825.7,999.7,825.5,999.6,824.8z M997.1,873.7c-0.4,0-0.8-0.1-1.1-0.1
				c0.1,0-0.5-2.9,1.3-1.9C997.3,872.4,997.2,873,997.1,873.7z M996.7,833.2c0,0.4,0,0.9,0.1,1.3c-0.7,0.1-1.9,0.3-2.5,0.1
				C995.1,834.2,995.9,833.6,996.7,833.2z M995.1,677.2c-0.8,3.7-1.1-5.4-1.2-3C994.9,674.8,995.7,674.8,995.1,677.2z M994.3,661.9
				c-1-6.6-0.3-9.1,1.7-15.5C997.2,651.9,998.8,659.2,994.3,661.9z M997.5,377.1c-0.6-0.5-1.2-0.8-1.8-1.2c0.1-0.4,0.1-0.7,0.2-1.1
				C996.4,375.6,997,376.3,997.5,377.1z M995,503.5c0-1.2,0.3-1.5,0.8-0.8C995.6,503,995.3,503.3,995,503.5z M997.2,801.9
				c-1.2-1.1-1.1-2.4,0-3.9C998.2,800.4,998.1,800,997.2,801.9z M996.8,762.2c0.1-0.4,0.1-0.8,0.2-1.2
				C997.6,761.5,997.7,762.9,996.8,762.2z M997.8,722.8c-1.5-0.1-0.7-2.4-0.1-3.1C997.6,719.6,999.6,722.9,997.8,722.8z M999,709.6
				c-1.6-1-1-5.6-0.7-8.1C999,704.7,999.3,706,999,709.6z M1004.7,636.1c0,3.5-1.4,2.6-3.9,3
				C1001.5,637.6,1003.6,636.8,1004.7,636.1z M1000.3,654.4c0,0,0.4,1.4-0.2,2.2C999.5,655.9,999.5,655.1,1000.3,654.4z M995.8,441
				c-0.7-0.2-1.2-0.6-1.7-1.3c2.9-3.5,2.8-4.4,6.2-2.2C998.9,438.7,997.4,440.3,995.8,441z M1004.3,456.1c-1.9-4.1-1.9-4.3-0.1-8.4
				C1006,451.3,1005.6,452,1004.3,456.1z M1006,419.6c-0.5,0.9-1.4,1.7-2.1,2.4c0-1.8-0.1-3.5-0.1-5.3
				C1004.5,417.7,1005.4,418.6,1006,419.6z M1001.9,409.4c0.6,2.3,1.1,4.6,1.7,6.9c-1.2,0-2.9-2.9-3.8-3.8
				C1000.5,411.6,1001.1,410,1001.9,409.4z M998.3,426.3c-0.2,1.2-0.7,2.3-1.2,3.3c-1.4-3.9-2.6-4.8-0.4-8.1
				C997.4,423,997.9,424.6,998.3,426.3z M995.7,266.5c0.7-0.1,0.2,3.2,0.2,2.7C995.7,268.8,994.5,266.7,995.7,266.5z M993.9,202.1
				c-0.2,0.4,0.2,1.7-0.3,0.6C992.9,201.5,993.6,202.6,993.9,202.1z M994.3,347.7c0.6-0.9,0.7,3,0.1,4
				C992.7,350.9,992.7,349.5,994.3,347.7z M992.6,392.1c0.5,0.8,0.4,1.1-0.3,1.1C991.8,392.5,991.9,392.1,992.6,392.1z M989.6,375.9
				c0,0.5,1,2-0.3,1.5C989.4,376.9,989.5,376.4,989.6,375.9z M987.3,825c0.5,1.5,0.4,2.2-0.5,2.3C986.3,825.9,986.5,825.2,987.3,825
				z M984,188.6c0-0.9-0.1-1.8-0.1-2.6c1.5,0.8,2.1,2.2,1.4,4.1C984.9,189.6,984.5,189.1,984,188.6z M986.5,889
				c-0.4-0.2-0.6-0.6-0.8-1.1c0.6-1.3,1.2-2.7,1.7-4.1c1-3.4,2.4-6.8,3.8-10C990.6,879.4,988.7,884.4,986.5,889z M991.5,835.8
				c0.6-0.3,1.3-0.5,1.9-0.7C992.2,837.2,992.1,836.5,991.5,835.8z M994.1,917.4c1.2-8,1.8-10.2,5.8-16.6
				C999.7,908.5,997.6,911.4,994.1,917.4z M1000,945.7c-2.3,3.3-5.2,5.6-8,8.2c2.9-7.6,5.1-11,10-16.5
				C1001.5,939.7,1001.2,943.9,1000,945.7z M1002.1,880.2c-0.9,2.3-2.2,4.5-3.7,6.2c0,0.1,0-5.6,0.1-6.1c0.7-3.5,2.5-6.8,3.4-10.1
				C1002.2,872.8,1003,877.6,1002.1,880.2z"/>
			<path class="st0" d="M881.3,1037.2c0.1,0.4,0.3,0.9,0.4,1.3C881.8,1037.3,881.1,1036.3,881.3,1037.2z"/>
			<path class="st0" d="M64.3,389.5c1.4,0.1,2.7,0.5,3.9,1.3c-2.4,6.8-0.9,14.5-2.9,20.9c-1.4,4.3-2.4,4-6.1,3.5
				c0.4,2.2,1.2,6.5,3.2,7.3c2.7,1.1,3-2.2,4.4-3.6c2.2-2.1-0.1-3.4,2.6-2.1c1.8,0.9,2.7,8.3,3.3,10.3c0.5,1.5,1.8,7.5,3.4,7.9
				c0.8-1.5,1.8-2.2,3-2.3c1,0.2,1.9,0.9,2.6,1.9c1.2,0.9,1.8,4.3,3.5,4c2.7-0.4,0.6-5.5,0.3-7.1c-0.7-1.2-1.4-2.5-1.9-3.8
				c0.2-1.6,0.6-3.1,1.2-4.5c-0.1,0.9,0-1.7-0.1-1c0.4-4-0.3-8.2-0.1-12.2c0.1-3.9,1.5-8.1-1.4-10.7c-4.8-4.3-8.7,3.5-12.5,5.7
				c0.1-6.3,0.7-9.1,5-12.6c2.5-2,5-2,7.7-2.8c-3.1-1.8-0.4-9.3-1.3-13.5c-1-0.6-1.7-1.6-1.9-3c-0.1-1.6-0.2-3.1-0.4-4.7
				c-0.6-3.8-1.5-7.6-2.3-11.4c-0.1,3.3,1.8,21.9-3.1,21c-2.1-0.4-2.6-4.6-3.1-6.8c0,0.2-1.8-9.1-2.4-7.1
				c-3.2,10.4-9.6,16.6-8.4,28.8C61.4,391.8,63,389.9,64.3,389.5z M75.8,427.1c0,0.2,1.2,1.3,0,1.3
				C74.6,428.4,75.8,427.3,75.8,427.1z"/>
			<path class="st0" d="M34.9,633.2c0.2-1.2,0.3-2.5,0.3-3.8c-6.9,2.3-3,10.8-4.3,17.9c-2.4,12.8-3.2-1.5-5.9-2.6
				c-3.2-1.3-2.1,9.5-1.3,12.3c1.4,5.1,1.8,1.1,4.3,3c1.1,0.8,1.1,2.9,1.8,4c1.5,2.2,3.1,2.6,5.2,3.7
				C36.2,655.6,31.6,645.4,34.9,633.2z"/>
			<path class="st0" d="M1018.1,619.1c5.5,7.2,4.5,17.3,3.1,26.3c-1.1-1.9-2.2-3.8-3.3-5.7c-0.4,3.3-2.3,10.7-1.5,13.8
				c2.9,10.4,7.7-4.3,8.4-7.3c0.9-3.7,0.8-11.4,0.8-15.3c-0.1-5.8-1.8-9.2-4.2-13.8c-1.6-3-6.2-9.6-6.4-13.3
				c-0.1-1.8,1.1-4.4,1.3-6.1c-0.4,1.9-1.1,4.4-1.3,6.2c-1.4-0.2-2.8-0.3-4.2-0.5C1011.9,610.5,1014.2,613.9,1018.1,619.1z"/>
			<path class="st0" d="M1013.8,792.1c-1.3-7.6-1.7-6-3.9-0.9c-2.1,4.8-5.1,8.4-3.1,14.4c1.8,5.4,5.6,7.4,8.6,3.5
				c3.4-4.5,2.6-6.6,8.1-5.6C1020.7,800.8,1014.7,797.2,1013.8,792.1z M1008.3,801.4c-0.5-0.2-0.7-0.7-0.4-1.5
				C1008.9,800.4,1008.2,800.7,1008.3,801.4z"/>
			<path class="st0" d="M1034,780.7c4.3-8.4-2.5-5.7-6.1-8c0.5,9.1-4.3,22.7,1.2,29.8c1.1-5-0.6-8.1,2-11.2c-0.6,0.7,4.1-2.2,3.8-2
				c1-0.9,2-2.7,3-3.7C1035.8,785.3,1031.8,785.1,1034,780.7z"/>
			<path class="st0" d="M1020.8,728.3c0.4-2.1,5.2-22.9,0.1-19.2c-1.3,0.9-0.4,6.5-2,7.6c-1.6,1.1-2.3-1.7-3.6-2.4
				c-7.1-4-1,8.7-3.2,13.9C1015.3,729.2,1018,723.2,1020.8,728.3z"/>
			<path class="st0" d="M60.4,445.7c-0.2,1.6-0.2,3.2,0,4.8c2.8-2.8,3.2-6.2,5-10.1c0.1-0.2,2.5,2.5,2.4,2.5
				c1.8-0.9,2.4-3.8,1.6-6.3c-1-3.5-4.9-5.1-7.4-7.2c-1,2.7-3.2,5.5-2.8,7.8c0.1,0.5,2.2,1.6,2.5,3.3
				C61.8,441.8,60.6,444.4,60.4,445.7z"/>
			<path class="st0" d="M59.5,846.5c-2.4,4.3,4.4,9.5,6.6,7.7c3.8-3.2,1.6-14.9,0.9-19.3C64.4,838.6,61.8,842.4,59.5,846.5z"/>
			<path class="st0" d="M1011.6,773.5c-2-0.2-3.3-1.7-5.3-1c0.7,2.2,7.9,8.8,9.9,7.2c3-2.3-0.1-12.4-1.6-15
				C1014.6,768.3,1015.5,773.9,1011.6,773.5z"/>
			<path class="st0" d="M697.8,67.1c3.8-1.8,5.1-9.1,0.2-11C690.6,53,696,64.2,697.8,67.1z"/>
			<path class="st0" d="M993,168.4c-2.9-5.1-2.9-7.7-3-13.4c0-1.9-0.6-11.5-4.3-8.1c-3.4,3.1,0.4,15.5,1.7,18.7
				C988.7,168.4,992,175.6,993,168.4z"/>
			<path class="st0" d="M984.6,157.5c0.5,1.5-0.1-0.2-0.1-0.2C984.3,157.8,984.6,157.8,984.6,157.5z"/>
			<path class="st0" d="M1022.9,670.7c-0.3-1.2-0.7-2.4-1.1-3.5c-1.1,2.4-4.7,8-4.4,10.7c0.4,3.8,5.1,3.2,7.6,3.6
				C1024.3,677.9,1023.6,674.3,1022.9,670.7z"/>
			<path class="st0" d="M70.9,526.4c0,2.1-1.2,5.6-1.6,7.7c2.9-1.7,5.9-4,5.7-8.9C74.8,518.2,70.8,520.6,70.9,526.4z"/>
			<path class="st0" d="M673.2,96.4c2.9-4.9,1.3-8.1-1.5-12.8C668.2,89.3,669.9,90.9,673.2,96.4z"/>
			<path class="st0" d="M777.7,1040.3c-3.8-1.8-7.9-3.6-11.9-2.6c3.9,3.7,9.7,4.3,14.3,6.3C779.5,1042.5,778.7,1041.3,777.7,1040.3z
				"/>
			<path class="st0" d="M227.9,999.8c-7.6-0.1-15-3.8-22.5-0.3c2.9,0.8,5.7,1.5,8.6,2.1c2.6,0.5,5.2,1,7.8,1.5
				c0.8,0.1,5.2,1.6,5.7,0.9C227.6,1004,228.1,999.8,227.9,999.8z"/>
			<path class="st0" d="M556,1009.9c-1.5-4-8.5,5.8-9.3,7.3c4.3-1,7.6-3.6,11.5-5.4C557.6,1011.4,556.7,1010.3,556,1009.9z"/>
			<path class="st0" d="M637.9,85.2l7.9-7.2C637.4,75.9,636.8,76.4,637.9,85.2z"/>
			<path class="st0" d="M106.1,205.5c-2.6,3.9-6.3,10.6-6.8,16.4c-0.4,4.6,0.2,4,2.3,1.3C105.7,218.1,105.3,212.6,106.1,205.5z"/>
			<path class="st0" d="M427.3,996.4c2.4,0.2,5.1,0.6,7.7,3.1c-0.9-5.6-6.1-7.7-9.6-10.5C425.4,992,424.6,995.2,427.3,996.4z"/>
			<path class="st0" d="M1012,702.7c0.6-3.7,0.4-7.5,0.5-11.3c-1,2.1-5.6,9.7-4.7,12.5C1009.1,707.9,1011.5,705.9,1012,702.7z"/>
			<path class="st0" d="M90.3,448.2c0.4,0.6,2.7,5.3,3.8,5c0.9-0.2,2.4-5.3,2.3-6C95.4,442.1,92,446.7,90.3,448.2z"/>
			<path class="st0" d="M86.3,339.9c0,0.1-1.7,9.8-2.1,12.4c1.6-0.5,3.3-1,4.9-1.5C88.2,347.1,87.3,343.5,86.3,339.9z"/>
			<path class="st0" d="M388,1000.8c3.5,2.6,3.7,2.7,7.1-0.1C391.5,998.4,391.2,997.6,388,1000.8z"/>
			<path class="st0" d="M562.6,1020.4c1.5,1.2,3.5-0.8,3.6-2.7c0.2-2.2-2.5-4.6-3.5-6.1C561.7,1014.7,559.7,1018.2,562.6,1020.4z"/>
			<path class="st0" d="M67.8,613.8c-1.6,4.2-5.8,10-2,13.5C67.9,621.7,69,619.8,67.8,613.8z"/>
			<path class="st0" d="M51.9,406.8c-1.2,3.8-0.2,7.6,1.8,10.4c0.8-3.7,1.6-7.4,2.4-11.1C55.4,406.2,52.4,405.3,51.9,406.8z"/>
			<path class="st0" d="M274.5,989.3c1.1,3.3,1.4,6.7,4.2,6.6c-0.7-2.6-1.4-5.2-2-7.8C276,988.5,275.2,988.9,274.5,989.3z"/>
			<path class="st0" d="M67.9,807.8c-2,1.7-7.6,8.9-2.6,10.2c1.2,0.3,2.5-3.9,2.7-5.1C68,812.8,69.6,806.3,67.9,807.8z"/>
			<path class="st0" d="M94.9,401.2c0.9-1.8,2.1-4,2.7-5.7c-1.8,3.6-3.4,6.8-5.4,10c2,1.5,11.6,3.4,8.3-3
				C99.4,400.6,97.3,401.2,94.9,401.2z"/>
			<path class="st0" d="M720.1,1017.6c-0.3,1.7-0.5,3.3-0.8,5c4.7,0.2,10.1,2.7,12.9-3.1C728.1,1021.1,723.8,1020.4,720.1,1017.6z"
				/>
			<path class="st0" d="M855.8,992.9c-3,1.9-3.5,4.9,0.2,4.6C860,997,859.6,990.5,855.8,992.9z"/>
			<path class="st0" d="M60.5,398.9c-0.9,1.6-4.2,5.4-4.3,7.3c-0.1,2.3,2.2,6.6,2.9,8.7C59.6,409.6,60,404.2,60.5,398.9z"/>
			<path class="st0" d="M1032.3,684.4c0.3,2,2.9,9.8,4.2,4.6C1037.7,684.5,1034.1,684.8,1032.3,684.4z"/>
			<path class="st0" d="M97.6,470.8c0.3-0.6-1.1-9.7-4.4-5.3c-0.8,1-0.9,6.4-1.2,8.1C94.1,474.3,96.1,472.9,97.6,470.8z"/>
			<path class="st0" d="M906.2,998.9c5.1-2.6,12.7-4.6,16.2-10.4c-3,1-6.9,1-9.7,2.5C910,992.5,908.4,995.8,906.2,998.9z"/>
			<path class="st0" d="M1014.3,469c0.6,2.2,1.3,4.4,1.9,6.7c1.8-3.7,0-6.6-1.3-10.5C1014.8,466.4,1014.5,467.7,1014.3,469z"/>
			<path class="st0" d="M1030.8,733.6c0.1,0.4-0.2,1.2,0.2,0.8c0,0,0-4.3-0.1-4.4c-2.2-1.8-4.1,6.1-4.5,7.7
				C1028.4,736.6,1029.4,735.8,1030.8,733.6z"/>
			<path class="st0" d="M503,66c4.9-3.5,0.5-7.8-3-7.2C501,61.2,501.9,63.7,503,66z"/>
			<path class="st0" d="M112.1,170.2c-2.9,2.5-3.7,4.6-3.9,9c2.1-3,4.3-6,6.2-9.2C113.6,169.7,112.9,169.8,112.1,170.2z"/>
			<path class="st0" d="M1030.3,532.6c-1.2-1.8-1.9-3.1-3.2-2.3c-2.1,1.4,1.8,4.8,2.4,5.5C1029.9,534.8,1030.1,533.7,1030.3,532.6z"
				/>
			<path class="st0" d="M93,925.5c0.1,0.6,0.3,1.1,0.4,1.7c1.7-1.1,3.3-2.1,5-3.2C96.1,923.6,93.1,919.4,93,925.5z"/>
			<path class="st0" d="M106.6,908.1c-1-1.6,1.4,8,0.3,4.8c0.8,2.4,1.9,3.2,3.5,4.2C109.5,913.6,108.4,911,106.6,908.1z"/>
			<path class="st0" d="M1024.1,786.9c-2.4-5.6-3.9,1.4-3.6,5C1021.7,790.2,1022.9,788.6,1024.1,786.9z"/>
			<path class="st0" d="M396.3,95.5c0.6-0.2,1.1-0.5,1.6-0.9c-2.2-2.3-4.3-3.9-6.8-5.5C392.3,92.8,393.4,94,396.3,95.5z"/>
			<path class="st0" d="M468.4,81.1c-0.7-4-7-3.1-9.1-1.7C462.3,80.3,465.4,80.7,468.4,81.1z"/>
			<path class="st0" d="M146.2,107.8c2.5,1.9,5.1-1.5,7.5-3.4c-1.6,0.4-4.2,1-5.2,1.3C148.3,106.1,147,107.1,146.2,107.8z"/>
			<path class="st0" d="M1015.1,539.5c1,1.5,2.1,3,3.2,4.4c0.3-2.5,0.6-4.9,1-7.4c-1.9,0-3.7,0-5.6,0
				C1014.1,537.5,1014.5,538.6,1015.1,539.5z"/>
			<path class="st0" d="M1034.2,644.8c1.2,1.7-0.7-3.1-0.7-2.9c-0.6-1.6-1.8-3.1-2.6-4.6C1029.3,640.2,1032.6,642.6,1034.2,644.8z"
				/>
			<path class="st0" d="M1016.7,705.1c1.3,1.2,2.6,2.4,4,3.5c-0.4-3.4-0.9-6.7-1.3-10.1C1018.5,700.7,1017.6,702.9,1016.7,705.1z"/>
			<path class="st0" d="M590,1010.2c2.7,2,2.9,1.9,5.7,0.2C593.5,1008.1,592.7,1009.1,590,1010.2z"/>
			<path class="st0" d="M1021.1,506.7c1.5,1.1,2.9,2.6,3.9,4.4C1025.6,505.9,1024.8,501.8,1021.1,506.7z"/>
			<path class="st0" d="M100.2,198.5c0.5-1.4-0.3-5.1-0.3-6.3c-1.3,4.1-2.7,6.9-2.2,11.5C98.6,202.1,99.5,200.3,100.2,198.5z"/>
			<path class="st0" d="M68.1,543.8c0-2-0.5-4-0.8-6c-0.1,0.4-2.5,4.8-2.3,5.5C65.3,544.9,68.1,546.6,68.1,543.8z"/>
			<path class="st0" d="M70.7,860.7c-0.5,2.3-0.1,5.3,0,7.6c0.7-1.1,5.9-10.5,1.3-10.5C71.3,858.4,70.8,859.4,70.7,860.7z"/>
			<path class="st0" d="M499.1,77.2c1-1,2-2,3-3c-1.3-0.7-3.7-3.2-4.3-0.3C497.3,76.2,497.5,75.8,499.1,77.2z"/>
			<path class="st0" d="M801.3,1011.7c0.4,0.6,0.9,1.1,1.3,1.7c1.7-2.9,1.8-2,1-4.2C802.8,1010.1,802.1,1010.9,801.3,1011.7z"/>
			<path class="st0" d="M90.7,384.4c0.9,0.4,2.1,0.5,3.1,0.7c-0.4-1.8-0.9-3.7-1.3-5.5c-1,1.3-2.4,2.7-3.5,3.9
				C89.5,383.9,90.1,384.2,90.7,384.4z"/>
			<path class="st0" d="M968.9,957.5c-1.6,3-3.3,6-5,8.9c4.4-1.1,7-1.2,9.9-5.5c2.2-3.3,3.7-8.6,5.2-12.5
				C975.9,951.3,971.6,956.2,968.9,957.5z"/>
			<path class="st0" d="M331.4,100c0.7-1.4,1.5-2.7,2.3-4c-2.8-0.7-4.9,3.6-3.1,6.5C330.8,101.6,331.1,100.8,331.4,100z"/>
			<path class="st0" d="M705.4,1017.5c0.3,0.3,3,2.8,4,3.8c-1.4,0-2.8,0-4.2,0c0,0,0,0-0.1,0c1.1,0.2,3,0.2,4.4,0.2
				c0.4-1.8,1-3.9,1.5-5.8C709.2,1016.2,707.3,1016.8,705.4,1017.5z"/>
			<path class="st0" d="M1024,731.2c-1.1-0.8-2.2-1.7-3.3-2.5c-0.6,1.8-1.8,3.9-1.1,5.1C1021.5,736.9,1023.6,733.5,1024,731.2z"/>
			<path class="st0" d="M1020.5,580.4c0.5-1,1-2,1.4-3C1019.1,575.1,1019.5,577.8,1020.5,580.4z"/>
			<path class="st0" d="M568.8,57c-2.3-1.4-2.7-2-4.9-0.5C565.7,58.1,566.7,57.5,568.8,57z"/>
			<path class="st0" d="M790.3,27.1c0-1.1-0.2-2.1-0.6-3.1c-1.7,2.2-2.1,2.1-1.1,4.9C789.3,28.5,789.8,27.9,790.3,27.1z"/>
			<path class="st0" d="M1033.1,707.5c-0.5,0.2-0.9,0.6-1.3,1.2c1.5,1.5,2,2.8,3.7,1.9C1034.8,709.5,1034,708.4,1033.1,707.5z"/>
			<path class="st0" d="M577.3,1010.1c0.4-0.4,0.7-0.9,0.9-1.5c-2-0.6-3.7-1.4-5.7-0.5C574,1009.6,575.5,1009.9,577.3,1010.1z"/>
			<path class="st0" d="M1003.5,215.8c-0.3-2.9-0.8-5.4-1.7-8.1C1002.2,210.6,1002.1,213.4,1003.5,215.8z"/>
			<path class="st0" d="M370.3,95.9c-2-2.7-3.4-0.6-0.6,1.7C369.9,97,370.1,96.5,370.3,95.9z"/>
			<path class="st0" d="M690,66.3c0.2-0.5-2.2-0.9-2.6-0.7c-1.2,0.7-1.6,3.1-1.7,4.6C687.5,69.4,689.1,68.6,690,66.3z"/>
			<path class="st0" d="M240.1,1009c2.1,1.2,2.6,1.1,4.8,1C244.2,1007.6,241.8,1008.9,240.1,1009z"/>
			<path class="st0" d="M122.9,154.4c-2.8,2.7-2.7,2.9-2.3,7.5C121.3,159.3,122.1,156.8,122.9,154.4z"/>
			<path class="st0" d="M1011.9,385.9c-0.7-0.9-1.7-1.6-2.5-2.3c0.4,1.7,0.9,3.5,1.3,5.2C1011.1,387.9,1011.6,386.9,1011.9,385.9z"
				/>
			<path class="st0" d="M73.4,714.7c-1.5,1-0.9,3,0.5,3.5C73.7,717,73.5,715.9,73.4,714.7z"/>
			<path class="st0" d="M82,777.4c0.1,0.4-0.1,0.7,0.3,1.1C82.2,778.2,82.1,777.8,82,777.4z"/>
			<path class="st0" d="M84.1,782.8c-0.6-1.4-1.2-2.8-1.9-4.2c0.4,1.8,0.9,3.6,1.3,5.4C83.8,783.6,84,783.2,84.1,782.8z"/>
			<path class="st0" d="M518.3,71.1c-0.2-0.8-0.4-1.7-0.7-2.5c-1.8,2.3-1.6,2.4-0.1,5C517.9,72.9,518.2,72,518.3,71.1z"/>
			<path class="st0" d="M80.8,745.4c0.2,0.7,0.4,1.4,0.6,2.1c1.6-3,1.5-2.1,1-4.5C81.9,743.8,81.2,744.6,80.8,745.4z"/>
			<path class="st0" d="M204.3,79.2c-2.4-2.9-3.6-1.2-5.9,0.7C198.6,79.9,204.8,79.8,204.3,79.2z"/>
			<path class="st0" d="M646.1,77.9l6.2,3C651.1,78.3,650.8,74.1,646.1,77.9z"/>
			<path class="st0" d="M530.5,1014.9c-1.2,2.4,6.6-1.5,3.5,0C532.5,1013.2,531.9,1012.2,530.5,1014.9z"/>
			<path class="st0" d="M1005.2,199.2c-0.4-2.8-0.1-7.7-2.6-7.6C1003.6,193.8,1004.7,196.7,1005.2,199.2z"/>
			<path class="st0" d="M305.6,96c-1.6-2.1-1.6-2-3.7-1C303.8,97.1,303.6,96.7,305.6,96z"/>
			<path class="st0" d="M1022.7,551.8c-0.3-1.1-0.7-2-1.3-2.8c-1.4,2.8-1.1,3,0.2,6C1022.1,554.1,1022.4,553,1022.7,551.8z"/>
			<path class="st0" d="M403.9,54.9c-2.5-0.8-3.4-1.3-6-0.3C400.6,56,401.2,55.6,403.9,54.9z"/>
			<path class="st0" d="M198.9,999c2.3,0.7,3.8,0.6,6.1,0.5C202.5,998.4,201.3,998.3,198.9,999z"/>
			<path class="st0" d="M755.5,1031c1-0.9,1.6-2.2,1.7-3.8C755.2,1028.3,754.9,1028.4,755.5,1031z"/>
			<path class="st0" d="M536.8,999.8c2.2-0.6,2.5-0.6,2.8-3.5C538.3,997.3,537.3,997.7,536.8,999.8z"/>
			<path class="st0" d="M52.5,391.4c-0.3-0.7-0.5-1.4-0.8-2.1c-0.6,1.2-1.4,1.9,0,3.4C52.1,392.3,52.3,391.9,52.5,391.4z"/>
			<path class="st0" d="M112.1,955.8c1.5,1.2,3,2.4,4.5,3.6c-1.4-1.9-2.7-3.7-4.1-5.6C112.4,954.5,112.2,955.2,112.1,955.8z"/>
			<path class="st0" d="M90.6,877.7c0.2,3.8,0.3,7.7,0.7,11.5C94.4,882.3,94.5,883.2,90.6,877.7z"/>
			<path class="st0" d="M775.4,1018c-0.7-0.4-1.5-0.8-2.2-1.1C774,1017.2,774.7,1017.6,775.4,1018z"/>
			<path class="st0" d="M101.1,917c1.3,2.8,2,3.3,4.4,4.1C104,919.1,103.2,918.2,101.1,917z"/>
			<path class="st0" d="M558.4,57.6c-1.5-1.8-2.1-1.7-3.4-0.1c1.1,0.6,2.1,1.1,3.2,1.7C558.4,58.7,558.5,58.1,558.4,57.6z"/>
			<path class="st0" d="M1008.9,764.8c-0.4-2.7-1-3.4-2.3-5.4C1007,762.3,1006.9,763.8,1008.9,764.8z"/>
			<path class="st0" d="M85.7,798.2c-1.4,4.3-1.2,6.9-0.8,11.6C86,805.5,86,802.6,85.7,798.2z"/>
			<path class="st0" d="M892.3,991.8c2.6,1.7,5-0.3,7-3C896.8,989.6,894.6,990.8,892.3,991.8z"/>
			<path class="st0" d="M548.3,1023.3c0.3,0.5,0.6,1,0.8,1.6c0.3-0.1,0.5-0.3,0.8-0.4C548.2,1020.2,549.7,1023.9,548.3,1023.3z"/>
			<path class="st0" d="M71.4,629.3c-0.3-0.5-0.6-0.9-0.8-1.4c-0.2,0.5-1.6,2.8,0,2.8C70.9,630.3,71.2,629.8,71.4,629.3z"/>
			<path class="st0" d="M71.1,609.1c-0.5,2.1,0.7,3.5,2.3,3.7C73.2,611,72.4,609.8,71.1,609.1z"/>
			<path class="st0" d="M89.3,392.7c0.6-3.3,0-5.4-0.5-8.8C88.7,387.1,88.2,389.7,89.3,392.7z"/>
			<path class="st0" d="M201.6,987.9c0.3-2-0.5-2.3-2.2-1C199,986.4,201.3,989.3,201.6,987.9z"/>
			<path class="st0" d="M1036.2,817.1c-0.1,0.1,1.6,1.3,0.8-1.3C1036.7,816.3,1036.4,816.7,1036.2,817.1z"/>
			<path class="st0" d="M846.6,988.4c1.3,1.2,2.7,1.4,4.1,0.6C849.3,988.7,848,988.5,846.6,988.4z"/>
			<path class="st0" d="M92.7,194.9c0.3-5.1-2-1.1-1.3,0.2C91.9,195.2,92.3,195.2,92.7,194.9z"/>
			<path class="st0" d="M89.8,906.6c-0.9-0.2,2.5,6,1.4,3.9C91.4,908.9,91.2,906.9,89.8,906.6z"/>
			<path class="st0" d="M347.2,44.6c-0.3-0.5-0.5-1-0.8-1.4c-0.3,0.1-0.5,0.3-0.8,0.5C346.5,45.8,347.1,44.4,347.2,44.6z"/>
			<path class="st0" d="M97.5,429.5c-0.8-0.2-1.7-0.2-2.5-0.3c0.4,0.8,1.4,1.7,2,2.2C97.2,430.8,97.4,430.1,97.5,429.5z"/>
			<path class="st0" d="M808.3,41c0.1-0.1-0.5-2.3-2.1-0.4C805.9,41.1,807.3,42.3,808.3,41z"/>
			<path class="st0" d="M365.9,84.1c-0.5-0.2-0.9-0.4-1.4-0.7c-0.5,0.9-0.2,1.5,0.7,1.9C365.5,84.9,365.7,84.5,365.9,84.1z"/>
			<path class="st0" d="M383.9,70c-0.4-1.4-2.6-0.8-2.2,0.3C382.1,71.4,384.3,71.5,383.9,70z"/>
			<path class="st0" d="M66.1,653.3c0.2-0.6,0.3-1.2,0.5-1.8c-0.2-0.2-0.4-0.3-0.5-0.5C65.3,652.4,66.1,652.4,66.1,653.3z"/>
			<path class="st0" d="M92.7,250.7c-2-1-2,2.7,0,3.1C92.7,252.7,92.7,251.7,92.7,250.7z"/>
			<path class="st0" d="M537.6,1020.1c-3.2-0.8,3.1,1.1,2-0.3C537.3,1016.9,539,1019.8,537.6,1020.1z"/>
			<path class="st0" d="M1034.6,657.8c0.3-0.3,0.5-0.6,0.8-0.9C1034,655.1,1034.6,657.7,1034.6,657.8z"/>
			<path class="st0" d="M50.6,594.3c-1,0.4-0.7,3.4,0.3,3C51.8,596.9,51.8,593.9,50.6,594.3z"/>
			<path class="st0" d="M299.7,993.2c1-0.1,2-0.4,2.9-0.6c-0.8-0.5-2-0.7-2.9-0.9C299.7,992.2,299.7,992.7,299.7,993.2z"/>
			<path class="st0" d="M85.6,661c-0.7,0.4-1.4,1.3-2.1,1.9c0.6,0.3,1.7,0.6,2.3,0.6C85.7,662.7,85.6,661.8,85.6,661z"/>
			<path class="st0" d="M85,277.8c0.2,1,0.3,2,0.5,3.1c1.1-1.9,0.9-1.3,0.4-4.6C85.4,276.7,85.1,277.1,85,277.8z"/>
			<path class="st0" d="M944.7,107.6c-1.2,0-3.1-1.9-5.2-1.2C941.4,107.3,942.7,107.6,944.7,107.6z"/>
			<path class="st0" d="M438.7,30.7c-0.9,0-1.2,0.2-0.9,1.6C438.9,32.6,438.7,32,438.7,30.7z"/>
			<path class="st0" d="M1014.2,410.6c-0.5-0.8-1.3-1.5-2-2.2c0,1.7,0,3.4,0,5.1C1012.8,412.6,1013.6,411.7,1014.2,410.6z"/>
			<path class="st0" d="M672.2,71.9c0.5-0.7,0.4-1.4-0.4-2C670.8,71.7,671.1,71.3,672.2,71.9z"/>
			<path class="st0" d="M54.1,632c0,0.8,0,1.5,0.1,2.3C55.9,633.8,54.1,631.5,54.1,632z"/>
			<path class="st0" d="M827.6,997.8c0.9-0.3,1.9-1.2,2.7-1.8C829,994.8,828.2,995.6,827.6,997.8z"/>
			<path class="st0" d="M674.3,1022.1c0.4,0.1,0.8,0.3,1.3,0.4C675.7,1021.6,675.2,1021.4,674.3,1022.1z"/>
			<path class="st0" d="M510.7,1022.5c0.9,1,1.7,0.9,2.4-0.4C511.9,1020.8,511.7,1021.7,510.7,1022.5z"/>
			<path class="st0" d="M825.4,990.9l-5.8,1.8C822.8,995.3,823.8,992.5,825.4,990.9z"/>
			<path class="st0" d="M90.3,217.4c-1.6,1.3-2.1,1.9-2.6,4.5C89.3,220.7,89.5,219.4,90.3,217.4z"/>
			<path class="st0" d="M241.5,97.2c0.7-0.2,1.3-0.5,2-0.7C242.8,96.1,240,95.5,241.5,97.2z"/>
			<path class="st0" d="M829.2,1028c0.6-0.3,1.1,0.8,0.9-1C829.4,1026.9,829.1,1027.2,829.2,1028z"/>
			<path class="st0" d="M763.2,1028.6c1.2-0.6,1.9-1.7,2.1-3.3C764.1,1025.7,763.4,1026.8,763.2,1028.6z"/>
			<path class="st0" d="M83.4,220.8c1.7,1.4,0.9-3.6,0.2-4.1C81.8,215.4,81.8,219.5,83.4,220.8z"/>
			<path class="st0" d="M1021.3,754.8c0.6,0.6,1.2,1.1,1.8,1.6C1022.1,753.6,1022,754.3,1021.3,754.8z"/>
			<path class="st0" d="M77.5,284.3c0.1-0.2,0.9,0.4,0.1-0.2c-0.3,1.1-0.5,2.2-0.8,3.2C76.9,286.3,77.2,285.3,77.5,284.3z"/>
			<path class="st0" d="M897,1007.3c0.4,0.2,3.3,0.4,3.1,0.2C898.6,1006.3,898.2,1006.4,897,1007.3z"/>
			<path class="st0" d="M86.7,366.7c0.7-0.4,1.3-0.9,2-1.4C86.8,364.8,87.1,365.5,86.7,366.7z"/>
			<path class="st0" d="M538.1,1003.1c-0.4-0.9-0.9-1.9-1.3-2.8C536.5,1003,537.2,1002.6,538.1,1003.1z"/>
			<path class="st0" d="M301,1001c0.4-0.1,0.7-0.2,1.1-0.3c-0.4-0.7-0.8-1.4-1.1-2.1C301,999.4,301,1000.2,301,1001z"/>
			<path class="st0" d="M664.4,79.3c-0.1-0.8-0.4-1-1-0.6C663.7,80.4,663.9,79.2,664.4,79.3z"/>
			<path class="st0" d="M834.8,1000.9c-0.1,0.8,0.3,1.1,1,0.9C835.9,1000.3,835.4,1001.2,834.8,1000.9z"/>
			<path class="st0" d="M658.5,73.9c-0.7,0.4-1.3,1-2,1.6c0.7,0.2,1.9,0,2.6-0.1C658.9,74.9,658.7,74.4,658.5,73.9z"/>
			<path class="st0" d="M336.7,1000.1c0.4-0.5,0.8-0.9,1.3-1.4C336.4,998.9,336.8,999.9,336.7,1000.1z"/>
			<path class="st0" d="M783.2,25.5c-0.1,0.4-0.9,0.4-0.1,0.6C783.9,26.2,783.1,26,783.2,25.5z"/>
			<path class="st0" d="M821.8,1023.6c-0.1-0.5,0.9-0.7-0.1-0.6C820.7,1023,821.7,1023.1,821.8,1023.6z"/>
			<path class="st0" d="M40.2,639.6c0.5-0.3,1.1-0.7,1.6-1C40.3,638.1,40.1,639.6,40.2,639.6z"/>
			<path class="st0" d="M185.2,993.6c-2.6-1.2-5.2-2.9-7.8-4C179.9,990.9,183.1,993,185.2,993.6z"/>
			<path class="st0" d="M391.4,61.5c0-0.9-1.2-0.7-1.5-0.5C389.9,61.2,391.4,63.3,391.4,61.5z"/>
			<path class="st0" d="M794.4,34.4c1.3-1.1-1-0.6-1.1-0.6C793.4,34.6,793.7,35,794.4,34.4z"/>
			<path class="st0" d="M258.6,1012.7c0.8,0.4,1.4,0.1,1.7-0.8C259,1011.5,258.6,1012.7,258.6,1012.7z"/>
			<path class="st0" d="M1028.2,549.6c0.1-0.6,0.8-0.3,0.3-1.4C1027.3,548.9,1028.3,549.1,1028.2,549.6z"/>
			<path class="st0" d="M1028.3,656.1c-0.6,0.8-1.1,1.8-1.7,2.7c0.6,0,1.7-0.6,2.3-0.9C1028.7,657.3,1028.5,656.7,1028.3,656.1z"/>
			<path class="st0" d="M1029.5,676.7c0.3,1.2,0.6,2.3,0.9,3.5C1030.6,678,1029.8,677.1,1029.5,676.7z"/>
			<path class="st0" d="M1028.2,752.6c0-0.7,0.9-0.8-0.2-1.8C1027.6,751.5,1027.6,752.1,1028.2,752.6z"/>
			<path class="st0" d="M639,1004.2l-4,0C636.3,1007.4,637.7,1006.4,639,1004.2z"/>
			<path class="st0" d="M671.8,102.9c1,0,2.1-0.1,3.1-0.2C673.7,102.1,672.4,102,671.8,102.9z"/>
			<path class="st0" d="M98.3,225.3c0.2-0.4,0.5-0.9,0.3-1.3C98.5,224.4,98.4,224.8,98.3,225.3z"/>
			<path class="st0" d="M97.2,230c0.3-1.6,0.7-3.2,1.1-4.7C97.2,226.7,96.9,228.2,97.2,230z"/>
			<path class="st0" d="M60.7,393.1c0,1.7,0,3.3,0,5C62.1,396.3,62.3,394.4,60.7,393.1z"/>
			<path class="st0" d="M87.5,459.8c0.1-0.1,0.2-0.1,0.2,0l0,0C87.7,459.3,87.6,459.6,87.5,459.8z"/>
			<path class="st0" d="M86.2,463.3c0.5-1,0.9-2.4,1.3-3.5C86,459.7,85.8,461.2,86.2,463.3z"/>
			<path class="st0" d="M521.9,1007c0.7,1.1,1.3,1.2,1.9,0.3C523.1,1006.1,522.5,1006,521.9,1007z"/>
			<path class="st0" d="M1021.1,396.1c-0.2,1.2-0.3,2.5-0.5,3.7C1020.9,398.6,1021,397.3,1021.1,396.1z"/>
			<path class="st0" d="M124.2,131.7c0.4-0.3,0.7-0.7,1.1-1c-0.2-0.3-0.5-0.6-0.7-0.9C123.5,130.5,123.4,131.2,124.2,131.7z"/>
			<path class="st0" d="M866.8,70.5c0,0,1.2-0.8,0.4-0.3c-3.3,1.9-7.4,2.4-10.9,3.5C860.9,73.7,862.8,73.5,866.8,70.5z"/>
			<path class="st0" d="M66.4,875.5c-0.6,2.3-0.3,3.5,0.9,3.5C67.6,877.1,67.1,876.3,66.4,875.5z"/>
			<path class="st0" d="M57.5,902.6c1.5,0.5,0.5-1.7,0.1-2.4C57.6,901,57.6,901.8,57.5,902.6z"/>
			<path class="st0" d="M910.3,1003.6c1.2,0.5,1.8,0.8,2.8-0.2C911.5,1002.5,911.6,1002.7,910.3,1003.6z"/>
			<path class="st0" d="M1016.9,566.8c0.4-0.7,0.4-1.3-0.1-1.9C1015.9,566.3,1016.8,566.2,1016.9,566.8z"/>
			<path class="st0" d="M375.6,1005.1c0.1-0.2,0.7,1.3,1.3-0.9c-0.2-0.2-0.4-0.3-0.7-0.4C376,1004.3,375.8,1004.7,375.6,1005.1z"/>
			<path class="st0" d="M1024.9,539.6c0.2,0.6,0.4,1.1,0.6,1.7c0.2-0.2,0.4-0.3,0.5-0.5C1025.9,539,1025.5,538.6,1024.9,539.6z"/>
			<path class="st0" d="M1025.8,856.6c0.3-0.5,0.9-1.2,0.6-3.4C1025.8,854.1,1025.6,855.3,1025.8,856.6z"/>
			<path class="st0" d="M658.6,1014.8c0.5,0.6,0.9,0.6,1.3-0.1C659.2,1013.9,659.2,1014.7,658.6,1014.8z"/>
			<path class="st0" d="M78,714.4c0.1-0.4,0.2-0.8,0.3-1.1c-0.2-0.2-0.4-0.4-0.6-0.6C77.3,713.5,77.4,714.1,78,714.4z"/>
			<path class="st0" d="M170.4,91.8c-2.3-0.4-1.8-0.8-3,0.5C168.6,93.2,169.6,93,170.4,91.8z"/>
			<path class="st0" d="M507.3,1011.4c0.5,0.4,0.8,0.3,1-0.4C507.8,1010.6,507.5,1010.7,507.3,1011.4z"/>
			<path class="st0" d="M1014.8,363.8c0,0.4-0.5,0.9,0,0.8C1015.4,364.6,1014.8,364.2,1014.8,363.8z"/>
			<path class="st0" d="M34,675.3c0.3-0.1,1,0.6,0.6-0.2C34.2,674.3,34.4,675.2,34,675.3z"/>
			<path class="st0" d="M692.5,73.9c-0.5-0.2-1-0.6-1.5-0.6C691.5,73.5,692,73.7,692.5,73.9z"/>
			<path class="st0" d="M778.8,1023.6c0.8-0.6,1.4-2.1,1.9-3c-1.8-0.9-3.6-1.8-5.3-2.7c1.8,0.9,3.5,1.9,5.3,2.8
				C780.2,1021.6,779.5,1023,778.8,1023.6z"/>
			<path class="st0" d="M777.9,1025c-0.3,0.5,0.7-1.1,0.9-1.4C778.5,1024.1,778.2,1024.6,777.9,1025z"/>
			<path class="st0" d="M40.1,690.1c-0.4,0.6-0.3,1.1,0.2,1.4C40.7,690.9,40.6,690.4,40.1,690.1z"/>
			<path class="st0" d="M187,1007.9c0.6,0.2-0.9,2.3,1.1,0.6C188.9,1007.9,186.8,1007.9,187,1007.9z"/>
			<path class="st0" d="M971.8,114.9c-0.7-0.2-1.4-0.4-2.1-0.6c0.9,0.7,1.9,1.3,2.9,1.8C972.4,115.7,972.1,115.3,971.8,114.9z"/>
			<path class="st0" d="M485.1,1011.4c1.2-0.1-0.7-0.2-1.3,0C484.3,1011.5,484.7,1011.4,485.1,1011.4z"/>
			<path class="st0" d="M80.5,736.8c-0.5-0.5-0.7-0.3-0.8,0.6C80.8,738.3,80.2,737.3,80.5,736.8z"/>
			<path class="st0" d="M76.6,791.1c0.1-0.6,0.6-0.5,0.1-1.3C76.7,790.2,76.7,790.7,76.6,791.1z"/>
			<path class="st0" d="M92.1,377.6c0.1,0.6,0.2,1.3,0.3,1.9C92.3,378.9,92.2,378.3,92.1,377.6z"/>
			<path class="st0" d="M721.8,42.4c-0.3-0.1-0.6-0.2-0.9-0.3C721.3,43.6,721.3,42.5,721.8,42.4z"/>
			<path class="st0" d="M417.9,92.6c0.1,0.1,0.6,1,1,1.3C418.6,93.5,418.2,93.1,417.9,92.6z"/>
			<path class="st0" d="M816,42.1c-0.5-0.7-0.9-0.7-1.4,0C815,42.8,815.5,42.8,816,42.1z"/>
			<path class="st0" d="M1042.3,610c0.1,0.5,0.3,1,0.4,1.4C1043,610.7,1042.9,610.3,1042.3,610z"/>
			<path class="st0" d="M719.8,1024.4c-0.2-0.5-0.4-1.2-0.5-1.7C719.3,1022.9,719.6,1023.9,719.8,1024.4z"/>
			<path class="st0" d="M1024.6,878.1c0.3-1.1,0.9-1.2,0.3-2.4C1024.7,876.5,1024.6,877.3,1024.6,878.1z"/>
			<path class="st0" d="M851.2,47.1c-0.6-0.7-1.4-0.4-2,0.2C849.1,47.3,852,48.1,851.2,47.1z"/>
			<path class="st0" d="M326,104.4c-0.2,0.4-1.1,0.2-0.3,0.6C326.5,105.4,325.8,104.9,326,104.4z"/>
			<path class="st0" d="M200.4,1008.6c0.3,0.1,0.7,0.2,1,0.2C201.2,1007.7,200.9,1008.5,200.4,1008.6z"/>
			<path class="st0" d="M479.2,65.9c0.6-0.4,0.6-0.7,0-1.1C478.7,65.1,478.7,65.5,479.2,65.9z"/>
			<path class="st0" d="M517.6,68.4c0-0.1,0.4-1.8,0.4-2.4C517.8,66.8,517.7,67.6,517.6,68.4z"/>
			<path class="st0" d="M705.3,1021.2l0-3.6C702.8,1018.7,702.6,1019.9,705.3,1021.2z"/>
			<path class="st0" d="M1031.1,877.5c0.3,0.8,0.5,1.7,0.8,2.5C1031.8,879.3,1031.3,878.3,1031.1,877.5z"/>
			<path class="st0" d="M81.5,764.4c0-0.5,0-0.9,0.1-1.4C80.9,763.6,81.4,763.7,81.5,764.4z"/>
			<path class="st0" d="M1032.8,543.4c0.7-1.4-0.2-1.3-0.7-1C1032.1,542.6,1032.3,544.5,1032.8,543.4z"/>
			<path class="st0" d="M89.3,457.9c-0.5-0.3-1.1-0.7-1.6-1c0,0.9,0,1.7,0,2.6C88.2,459,88.9,458.5,89.3,457.9z"/>
			<path class="st0" d="M407.3,68.6c-0.5-0.6-0.8-0.5-0.9,0.3C406.9,69.5,407.2,69.4,407.3,68.6z"/>
			<path class="st0" d="M652.6,81c0.1,0.2,0.5,1.2,0.9,1.6C653.2,82.1,652.9,81.6,652.6,81z"/>
			<path class="st0" d="M334.7,82.5c-0.3,0.3-1.1,0-0.4,0.5C335,83.6,334.4,82.9,334.7,82.5z"/>
			<path class="st0" d="M432.3,73.1c0.7,0.1,1.3,0.2,2,0.3C433.7,72.9,433,72.8,432.3,73.1z"/>
			<path class="st0" d="M77,754c0.6,0.1,0.9-0.3,0.7-1.2C76.4,752.5,77.2,753.2,77,754z"/>
			<path class="st0" d="M1012.2,664.7c-0.2-0.4-2.3-2.1-2.9-3.2C1009.2,662.4,1011.5,664.1,1012.2,664.7z"/>
			<path class="st0" d="M651.5,1017.6c0.1-0.6,0.2-1.1,0.2-1.7C651.5,1016.5,651.6,1017.1,651.5,1017.6z"/>
			<path class="st0" d="M286.7,93.2c1.1,0.2,2.4,0.2,3.4-0.3C288.7,93.6,286.3,92.4,286.7,93.2z"/>
			<path class="st0" d="M1022.2,423c-0.2,0.5-0.8,0.2-0.3,0.7C1022.4,424.2,1022,423.4,1022.2,423z"/>
			<path class="st0" d="M223.4,994.4c2.1-0.2,4.3-1.1,6.4-1.8C227.7,993,225.5,993.8,223.4,994.4z"/>
			<path class="st0" d="M67.6,571.9c-0.2-1.8-0.7-3.8-1.1-5.7C66.8,568.1,67.2,570,67.6,571.9z"/>
			<path class="st0" d="M250.1,992.5c0.3-0.1,0.6-0.2,0.9-0.4C250.7,992.1,250.2,992.5,250.1,992.5z"/>
			<path class="st0" d="M973.5,962.7c0.2-0.2-1.1,1.1-1.3,1.5C972.6,963.7,973,963.2,973.5,962.7z"/>
			<path class="st0" d="M137.7,1004.6c0.3,0.1,0.7,0.2,1,0.4C138.2,1003.9,138.1,1004.6,137.7,1004.6z"/>
			<path class="st0" d="M99,476.4c-0.4-1.7-0.9-3.4-1.3-5.1c0,1.7,0,3.4,0,5.1C98.1,476.4,98.6,476.4,99,476.4z"/>
			<path class="st0" d="M53.6,423.4c0.1-2,0.1-4.1,0.2-6.1C53.6,419.3,53.5,421.4,53.6,423.4z"/>
			<path class="st0" d="M445.1,73.7c-1.5,0-1.8,2.5-2.1,4.2C443.3,76.1,443.9,74,445.1,73.7z"/>
			<path class="st0" d="M147.7,105.7c0.9,0.1,1.1,0,0.5-0.4C147.8,104.8,147.7,104.9,147.7,105.7z"/>
			<path class="st0" d="M362.3,52c-0.1-0.7-0.4-0.8-0.9-0.4C361.5,52.3,361.8,52.4,362.3,52z"/>
			<path class="st0" d="M55.9,783.3c0.2-0.8,0.9-0.7,0.1-1.7C56,782.1,56,782.7,55.9,783.3z"/>
			<path class="st0" d="M75,497.2c-0.3,0-0.4-1-0.5,0C74.5,498.2,74.6,497.2,75,497.2z"/>
			<path class="st0" d="M1025.8,494.4c0,0.5-0.6,0.7-0.1,0.9C1026.2,495.5,1025.8,494.8,1025.8,494.4z"/>
			<path class="st0" d="M876.5,73.8c-0.5,0-1.1-0.1-1.6-0.1C875.2,74.1,876.2,73.8,876.5,73.8z"/>
			<path class="st0" d="M1025.1,462c-0.2,0.5-0.9,0.1-0.3,0.7C1025.4,463.3,1024.9,462.4,1025.1,462z"/>
			<path class="st0" d="M583.4,1019.1c-0.1,1.3-0.3,2.7-0.4,4c0.4-1.1,0.4-2.8,0.6-4C582.2,1019,583.4,1018.9,583.4,1019.1z"/>
			<path class="st0" d="M562.3,1011.4c-1.4-0.5-2.8-1-4.2-1.5c0,0.6,0,1.2,0,1.8C559.5,1011.6,560.9,1011.5,562.3,1011.4z"/>
			<path class="st0" d="M888.3,81.7c-0.3,0-0.6,0-0.9,0C887.9,82.4,887.8,81.8,888.3,81.7z"/>
			<path class="st0" d="M87.6,221.9c-0.9-0.7-2.2-1.4-3-1.5C85.5,221.1,87.2,221.9,87.6,221.9z"/>
			<path class="st0" d="M84.9,810.4c-0.2,1.3-0.1,2.9-0.1,4.2c0.4-0.1,0.9-0.3,1.3-0.4C85.8,813.1,85.5,811.5,84.9,810.4z"/>
			<path class="st0" d="M86.2,459.8c-0.1-0.7,0.1-2.1,0-2.9c0.1,0,1.4,0,1.5,0c-0.3-0.1-1.1-0.2-1.5-0.1
				C86.2,457.7,86,459,86.2,459.8z"/>
			<path class="st0" d="M362,92.9c-0.2,0,0.2,0-0.3,0C360.9,92.8,361.9,92.9,362,92.9z"/>
			<path class="st0" d="M632.8,1002.3c0.7,0.6,1.5,1.4,2.1,1.8C634.3,1003.4,633.4,1002.8,632.8,1002.3z"/>
			<path class="st0" d="M147.1,979.7c-1.9-2.9-7.9-8.5-7.9-12.2c-2.1,1.8-1.9,4.1-1,6.8C140.2,980.2,143.8,977.5,147.1,979.7z"/>
			<path class="st0" d="M90.1,874.1c0.2,1.1,0.3,2.2,0.5,3.2c0.4-0.3,0.8-0.5,1.1-0.8C91.2,875.8,90.6,875,90.1,874.1z"/>
			<path class="st0" d="M402.4,998.4c0.8,0,1.6,0,2.4,0.1C404,998.2,403.1,998.4,402.4,998.4z"/>
			<path class="st0" d="M105.8,921.5c0.9,0.9,1.9,1.6,2.9,2.4C107.9,923,106.4,921.8,105.8,921.5z"/>
			<path class="st0" d="M1030.5,681.1c0.5,1.1,1.1,2.2,1.7,3.3C1031.9,683.3,1030.9,681.7,1030.5,681.1z"/>
			<path class="st0" d="M1027.6,828.8c0.5,1.1,1.2,2.2,1.7,3.3C1029.1,831,1028,829.4,1027.6,828.8z"/>
			<path class="st0" d="M313.4,994.7c-0.8,0-2.4,0-2.8,0.1C311.6,994.8,312.5,994.8,313.4,994.7z"/>
			<path class="st0" d="M278.9,102.5c0.9,0.1,1.6-0.1,2.4,0.4C280.4,102.5,278.5,102.6,278.9,102.5z"/>
			<path class="st0" d="M907.2,990.6c-0.1-0.6-0.3-1.3-0.4-1.9c0,0-0.1,0-0.1,0c0.1,2.3,3.8,3.9,4.8,2.4
				C910,991,908.6,990.8,907.2,990.6z"/>
			<path class="st0" d="M95.1,242.2c0.4,1.7,0.7,3.4,1.2,5.1C96.2,246.6,95.2,242.3,95.1,242.2z"/>
			<path class="st0" d="M440,990.8c0.6,0.5,1.2,1.1,1.8,1.7c0-0.5,0-1.1,0-1.7C441.2,990.8,440.6,990.8,440,990.8z"/>
			<path class="st0" d="M329,69.6c-0.2-0.4-0.6-0.8-0.9-1.1c0.4,1.3,0.7,2.1,0.9,3.4C329,71.1,329,70.3,329,69.6z"/>
			<path class="st0" d="M917.4,1022.7c-1.1-0.8,1.3,0.3,2.1,0.4C918.9,1022.9,918.2,1022.8,917.4,1022.7z"/>
			<path class="st0" d="M969.1,113.4c0.2,0.4,0.2,0.9,0.6,1C969.5,114,969.3,113.7,969.1,113.4z"/>
			<path class="st0" d="M326.3,74c0.9-0.7,1.7-1.6,2.7-2.2C328.1,72.2,326.9,73.4,326.3,74z"/>
			<path class="st0" d="M74.9,860.6c1.4-3.4-1.1,1.7-1,2.1c0.7-1.8,1.8-3,3.3-3.5C76.4,859.7,75.7,860.1,74.9,860.6z"/>
			<path class="st0" d="M296.6,981.3c0.7,0,1.5,0.1,2.2,0C298.2,981.2,297.1,981.2,296.6,981.3z"/>
			<path class="st0" d="M572.4,1017.4c0.8,0.8,1.8,1.6,2.6,2C574.2,1018.7,573.1,1018,572.4,1017.4z"/>
			<path class="st0" d="M998.8,173.8c-0.6-1-1.6-2.1-2.5-2.9C996.9,172,997.8,173,998.8,173.8z"/>
			<path class="st0" d="M996.2,171c-1.1-0.9-2.1-1.8-3.2-2.7C993.9,169.3,995.6,170.7,996.2,171z"/>
			<path class="st0" d="M622.4,1009.9c0.1,0.8,0.3,1.6,0.4,2.4C622.8,1011.7,622.4,1010.1,622.4,1009.9z"/>
			<path class="st0" d="M407.6,88.4c-0.4,0.5-0.8,0.2-0.4,1.2C406.9,88.8,407.2,88.8,407.6,88.4z"/>
			<path class="st0" d="M1006.1,242.4c0.2,0,1.1-0.3,1.5-0.6c0.9-0.5-18.4-1.7,1.3-1.3c0.1,0.4,0.1,1.2,0.1,1.6
				c0.3-1.3-0.7-5.6-2-6.1c-2.6-1.1,0.4,5.4,0.6,5.7C1007.1,241.9,1006.6,242.2,1006.1,242.4z"/>
			<path class="st0" d="M407.2,89.6c0,0.6,0.1,1.2,0.1,1.7C407.4,91.3,407.2,89.7,407.2,89.6z"/>
			<path class="st0" d="M1016.4,623.4c-1.4,2.4-5.1,7.9-1.4,10.1C1016.4,629.5,1017.9,627.4,1016.4,623.4z"/>
			<path class="st0" d="M1006.3,614.2c0.2,0.3,0.5,1.1,0.9,1.4C1007,615.2,1006.6,614.7,1006.3,614.2z"/>
			<path class="st0" d="M1014.9,633.7c1,1.9,2,3.9,3,5.8C1017.3,637.8,1015.7,634.8,1014.9,633.7z"/>
		</g>
	</g>
</g>
</svg>
